<svg width="512" height="512" xmlns="http://www.w3.org/2000/svg"><g fill="none" fill-rule="evenodd"><rect fill="#5E72E4" width="512" height="512" rx="51"/><path d="M383 456l-3-61c-1-19 5-43 12-63 3-13 13-26 18-38 11-26 20-41 23-75 3-24-2-49-3-54-20-70-87-114-158-114-49 0-90 16-125 58-36 42-36 92-54 145-4 11-23 27-23 50 0 5 0 7 7 14 8 8 27 6 30 14 4 9-3 51 10 67 25 28 70 4 78 18 4 9 5 21 3 39h185z" fill="#FFF"/><path d="M185 195c0-7 4-17 7-23 3-8 14-13 20-16 6-2 26-5 39 0 16 8 24 25 24 19 0-14 4-25 16-38 11-14 25-17 47-12 12 3 25 15 31 28 8 16 3 62-9 77-8 10-29 64-29 68 0 5 6-4-45-21-10-4-23-4-54-17-48-21-47-57-47-65z" fill="#E05860"/></g></svg>