<svg width="800" height="500" xmlns="http://www.w3.org/2000/svg" xmlns:xlink="http://www.w3.org/1999/xlink">
  <defs>
    <path id="a" d="M.06.31H434.2v250.63H.06z"/>
    <path d="M9.08 13.87c-.96 0-1.9-.1-2.77-.28-2.46-.55-4-1.79-4.52-3.36v-.04L.77 7.03c.52 1.55 2.06 2.77 4.5 3.31.88.2 1.8.29 2.77.29 4.48 0 9.58-2 12.4-5.08 1.3-1.43 1.94-2.9 1.93-4.2 0-.4-.05-.78-.17-1.14l1.02 3.2v.04c.12.36.18.75.18 1.14 0 1.31-.63 2.77-1.94 4.2-2.82 3.08-7.92 5.08-12.4 5.08z" id="c"/>
  </defs>
  <g fill="none" fill-rule="evenodd">
    <g transform="translate(177 206)">
      <mask id="b" fill="#fff">
        <use xlink:href="#a"/>
      </mask>
      <path d="M370.61 37.03c84.79 48.94 84.78 128.3 0 177.26-84.78 48.95-222.24 48.95-307.02 0-84.79-48.95-84.78-128.31 0-177.26 84.78-48.95 222.24-48.95 307.02 0" fill="#E4E4DE" mask="url(#b)"/>
      <path d="M434.2 125.53c-.05-28.74-17.13-57.47-51.2-80.72l-1.83-1.23-306.24 176.8c.62.32 1.26.63 1.89.94C117.14 241.07 167 250.97 216.88 251L434.2 125.53" fill="#FAF9F6" mask="url(#b)"/>
    </g>
    <path d="M371.95 225.15c14.93 8.62 14.93 22.6 0 31.22-14.94 8.62-39.15 8.62-54.08 0s-14.93-22.6 0-31.22c14.93-8.62 39.14-8.63 54.08 0" fill="#D4D5CF"/>
    <path d="M464.52 393.1c-14.37 0-28.74-3.16-39.7-9.5-21.94-12.65-21.94-33.18 0-45.84a64.47 64.47 0 0112.99-5.6c.81 6.55 1.5 11.5 1.5 11.5s.8.56 2.14 1c-1.02 1.28-1.83 2.3-2.07 2.39-.67.23-.86 1.5-1.01 4-.05.8-.23 1.74-.23 2.66 0 .32.02.65.08.96-.15 2.55.38 3.17 1.97 3.87a7.5 7.5 0 002.84.5c1.3 0 2.61-.26 3.28-.81 1.92-1.6 2.96-3.24 3.87-4.66a21.4 21.4 0 013.71-4.32c1.27-1.1 3.41-2.35 4.47-5.17.74-1.96.54-3.58.44-5.38l-.29.28v-.12c0-1.53-.65-2.37-2.1-3.02-.4-.18-.81-.25-1.26-.25-2.02 0-4.5 1.57-6.43 2.6l1.17-8.81c3.42-.53 6.9-.87 10.42-1.02.56 13.99 1.73 32.18 1.73 32.18s2.37 1.53 5.6 1.53c1.4 0 2.97-.29 4.57-1.11 0 0 2.05-18.31 3.74-32.02 10.36 1.24 20.23 4.18 28.27 8.82 21.93 12.66 21.93 33.19 0 45.85-10.96 6.33-25.33 9.5-39.7 9.5m-4.59-18.48c-.05 2.23-.1 3.18 1.75 3.76 1.85.58 6.5.72 8.38 1.23 1.87.5 4 2.53 8.5 3.93 1.87.59 3.7.85 5.4.85 2.42 0 4.57-.53 6.2-1.42 2.77-1.53 3.57-2.63 3.18-4.76l-.14-.02c.04-.14.06-.28.06-.42 0-1.1-1.33-2.4-7.68-5.26-.08-.04-9.53-3.74-13.44-8.23l-10.17-.42s-.94 2.67-1.46 5a23.5 23.5 0 00-.67 4.66c0 .4.03.77.1 1.1" fill="#E7E7E1"/>
    <path d="M210.53 328.56c-17.25 9.96-17.25 26.11 0 36.07 17.26 9.96 45.23 9.96 62.49 0 17.25-9.96 17.25-26.11 0-36.07-17.26-9.97-45.23-9.97-62.49 0" fill="#D4D5CF"/>
    <path d="M336.06 133.56v106.96c0 1.29.85 2.57 2.55 3.55 3.39 1.96 8.89 1.96 12.28 0 1.7-.98 2.55-2.26 2.55-3.55V133.56h-17.38" fill="#B56262"/>
    <path d="M402.31 188.92L348.5 58.96H341l-53.82 129.97a6.88 6.88 0 005.02 9.38l.88.17a6.88 6.88 0 015.48 7.6 6.88 6.88 0 008.85 7.42l2.66-.82a6.88 6.88 0 018.28 3.74l2.68 5.9a6.88 6.88 0 009.77 3.07l10.44-6.19a6.88 6.88 0 017.02 0l10.44 6.2a6.88 6.88 0 009.77-3.08l2.67-5.9a6.88 6.88 0 018.29-3.74l2.66.82a6.88 6.88 0 008.84-7.43 6.88 6.88 0 015.48-7.6l.89-.18a6.88 6.88 0 005.01-9.37" fill="#00A798"/>
    <path d="M362.2 226.36c-1.2 0-2.4-.31-3.5-.97l-5.26-3.12-5.18-3.07a6.87 6.87 0 00-7.02 0l-10.44 6.2a6.88 6.88 0 01-9.77-3.07l-2.68-5.91a6.88 6.88 0 00-8.28-3.74l-2.66.82a6.9 6.9 0 01-8.85-7.43 6.86 6.86 0 00-5.48-7.6l-.88-.16a6.88 6.88 0 01-5.01-9.38l12.7-30.67-1.84 4.44c.57.97 1.52 1.7 2.88 1.92a5.2 5.2 0 014.32 5.73l-.11 1a5.2 5.2 0 007 5.46l2.67-1.02a5.2 5.2 0 016.6 2.75l3.3 7.4a5.2 5.2 0 007.42 2.35l9.95-5.94a5.2 5.2 0 015.33 0l8.92 5.94a5.2 5.2 0 007.41-2.35l3.3-7.4a5.2 5.2 0 016.6-2.75l2.67 1.02a5.2 5.2 0 007.01-5.46l-.11-1a5.2 5.2 0 014.32-5.74 3.98 3.98 0 003.39-3.21l11.4 27.52a6.89 6.89 0 01-5.02 9.37l-.89.18a6.88 6.88 0 00-5.48 7.6 6.9 6.9 0 01-8.84 7.43l-2.66-.82a6.87 6.87 0 00-8.29 3.74l-2.67 5.9a6.87 6.87 0 01-6.27 4.04" fill="#009E81"/>
    <path fill="#DBDCD6" d="M390.92 161.4l-1.5-3.62 1.5 3.62"/>
    <path d="M359 189.03c-.91 0-1.83-.24-2.67-.74l-8.92-5.94a5.19 5.19 0 00-5.33 0l-9.96 5.94a5.17 5.17 0 01-7.4-2.35l-3.31-7.4a5.2 5.2 0 00-6.6-2.75l-2.66 1.02a5.2 5.2 0 01-7.01-5.46l.11-1a5.2 5.2 0 00-4.32-5.73 3.94 3.94 0 01-2.88-1.92l1.83-4.44c.32.14.67.24 1.05.3a5.2 5.2 0 014.32 5.74l-.11.99a5.21 5.21 0 007.01 5.46l2.66-1.01a5.17 5.17 0 016.6 2.74l3.3 7.4a5.2 5.2 0 007.42 2.36l9.95-5.95a5.2 5.2 0 015.33 0l8.92 5.95a5.17 5.17 0 007.42-2.35l3.3-7.41a5.2 5.2 0 016.6-2.74l2.66 1.01a5.21 5.21 0 007.01-5.46l-.11-1a5.2 5.2 0 014.32-5.73c.75-.12 1.38-.4 1.89-.78l1.5 3.62a3.98 3.98 0 01-3.39 3.21 5.2 5.2 0 00-4.32 5.74l.11 1a5.2 5.2 0 01-7.01 5.46l-2.66-1.02a5.2 5.2 0 00-6.6 2.75l-3.3 7.4a5.2 5.2 0 01-4.76 3.09" fill="#008C73"/>
    <path d="M390.31 151.13L348.5 53.76H341l-42.86 97.37c-1.54 3.13-.66 6.87 2.79 7.43a5.2 5.2 0 014.32 5.73l-.12 1a5.2 5.2 0 007.02 5.46l2.66-1.01a5.2 5.2 0 016.6 2.74l3.3 7.4a5.2 5.2 0 007.42 2.36l9.95-5.95a5.2 5.2 0 015.33 0l8.92 5.95a5.2 5.2 0 007.42-2.35l3.3-7.41a5.2 5.2 0 016.6-2.74l2.66 1.01a5.2 5.2 0 007.01-5.46l-.11-1a5.2 5.2 0 014.32-5.73c3.45-.57 4.33-4.3 2.78-7.43" fill="#00A798"/>
    <path d="M359 182.97c-.91 0-1.83-.23-2.67-.73l-8.92-5.95a5.19 5.19 0 00-5.33 0l-9.96 5.95a5.2 5.2 0 01-7.41-2.35l-3.3-7.41a5.2 5.2 0 00-6.6-2.74l-2.66 1.01a5.21 5.21 0 01-7.01-5.46l.11-1c.02-.2.04-.4.04-.6a5.2 5.2 0 00-4.36-5.13c-2.36-.39-3.52-2.26-3.52-4.41 0-.99.25-2.03.73-3.02l11.87-26.95c.35.42.78.8 1.29 1.08l.23.13c1.6.9 2.53 2.65 2.38 4.49a4.69 4.69 0 005.86 4.92l1.81-.48a4.67 4.67 0 015.33 2.32l2.49 4.65a4.68 4.68 0 006.3 1.94l6.88-3.6a4.68 4.68 0 014.34 0l6.88 3.6a4.67 4.67 0 006.3-1.94l2.5-4.65a4.69 4.69 0 015.31-2.32l1.82.48a4.69 4.69 0 005.86-4.93 4.69 4.69 0 012.38-4.48l.23-.13c.28-.16.54-.34.77-.54l-1.94-4.51 13.28 30.92c.49.99.74 2.03.74 3.02 0 2.15-1.16 4.02-3.52 4.41a5.2 5.2 0 00-4.32 5.73l.11 1a5.21 5.21 0 01-7.01 5.46l-2.66-1.01a5.18 5.18 0 00-6.6 2.74l-3.3 7.4a5.2 5.2 0 01-4.76 3.1" fill="#00A28C"/>
    <path d="M310.01 124.18l1.94-4.4-1.94 4.4" fill="#DBDCD6"/>
    <path d="M355.96 143.76c-.73 0-1.47-.17-2.16-.53l-6.88-3.6a4.68 4.68 0 00-4.34 0l-6.88 3.6a4.67 4.67 0 01-6.3-1.94l-2.5-4.65a4.69 4.69 0 00-5.32-2.32l-1.81.48a4.69 4.69 0 01-5.86-4.93 4.68 4.68 0 00-2.38-4.48l-.23-.13a4.64 4.64 0 01-1.29-1.08l1.93-4.4a4.68 4.68 0 011.97 4.22 4.67 4.67 0 005.86 4.93l1.81-.48a4.71 4.71 0 015.33 2.31l2.49 4.66a4.68 4.68 0 006.3 1.93l6.88-3.59a4.68 4.68 0 014.34 0l6.88 3.6a4.66 4.66 0 006.3-1.94l2.5-4.66a4.69 4.69 0 015.31-2.31l1.82.48a4.7 4.7 0 005.86-4.93 4.69 4.69 0 011.44-3.8l1.94 4.52c-.23.2-.49.38-.77.54l-.23.13a4.69 4.69 0 00-2.38 4.48 4.69 4.69 0 01-5.86 4.93l-1.82-.48a4.71 4.71 0 00-5.32 2.32l-2.5 4.65a4.68 4.68 0 01-4.13 2.47" fill="#009F83"/>
    <path d="M379.9 112.84l-31.43-66.08-.25-.4a4.01 4.01 0 00-6.94 0l-.25.41-31.43 66.07a4.69 4.69 0 001.7 6.55l.23.13c1.6.9 2.53 2.65 2.38 4.48a4.68 4.68 0 005.86 4.93l1.81-.48c2.1-.55 4.3.4 5.33 2.32l2.49 4.65a4.68 4.68 0 006.3 1.94l6.88-3.6a4.68 4.68 0 014.34 0l6.88 3.6a4.68 4.68 0 006.3-1.94l2.5-4.65a4.68 4.68 0 015.31-2.32l1.82.48a4.69 4.69 0 005.86-4.93 4.68 4.68 0 012.38-4.49l.23-.13a4.68 4.68 0 001.7-6.54" fill="#00A798"/>
    <path d="M355.96 137.89c-.73 0-1.47-.17-2.16-.53l-6.88-3.6a4.68 4.68 0 00-4.34 0l-6.88 3.6a4.66 4.66 0 01-6.3-1.94l-2.5-4.65a4.69 4.69 0 00-5.32-2.32l-1.81.48a4.7 4.7 0 01-5.86-4.93l.01-.4c0-1.69-.9-3.25-2.4-4.08l-.22-.13a4.68 4.68 0 01-1.7-6.55l31.43-66.06.25-.41a4.01 4.01 0 016.94 0l.24.4 31.44 66.07a4.66 4.66 0 01-1.7 6.54l-.23.14a4.69 4.69 0 00-2.38 4.48l.02.4a4.7 4.7 0 01-5.88 4.53l-1.82-.48a4.71 4.71 0 00-5.32 2.32l-2.5 4.65a4.68 4.68 0 01-4.13 2.47" fill="#00A593"/>
    <path d="M340.56 243.88a5.34 5.34 0 00-10.67 0v.3c.06.74.58 1.46 1.56 2.03a8.35 8.35 0 007.55 0c.98-.57 1.5-1.3 1.56-2.03v-.3" fill="#253C40"/>
    <path d="M339 246.2c.97-.56 1.5-1.28 1.56-2.02v-.3a5.33 5.33 0 00-2.78-4.53c.03.05 2.66 3.35.72 5.55-1.34 1.52-5.95 1.8-7.97.6.24.25.54.5.92.7a8.35 8.35 0 007.55 0" fill="#132529"/>
    <path d="M331.93 246.56a3.77 3.77 0 00-7.53 0V246.77c.05.53.41 1.04 1.1 1.44a5.9 5.9 0 005.33 0c.7-.4 1.06-.91 1.1-1.44v-.2" fill="#334F55"/>
    <path d="M330.83 248.2c.7-.39 1.06-.9 1.1-1.43v-.2c0-.45-.1-.87-.25-1.26.1 1.62-.67 2.6-3.05 2.9-2.46.31-3.94-.7-4.14-1.07.15.4.48.76 1.01 1.07a5.9 5.9 0 005.33 0" fill="#253C40"/>
    <path d="M359.56 242.8a3.74 3.74 0 00-7.47 0v.2c.04.52.4 1.03 1.09 1.43 1.46.84 3.83.84 5.29 0 .68-.4 1.05-.9 1.1-1.43v-.2" fill="#334F55"/>
    <path d="M358.47 244.43c.68-.4 1.05-.9 1.1-1.43v-.2a3.7 3.7 0 00-.26-1.25c.1 1.6-.67 2.58-3.03 2.88-2.44.31-3.9-.7-4.1-1.06.14.38.47.75 1 1.06 1.46.84 3.83.84 5.29 0" fill="#253C40"/>
    <path d="M250.6 231.62v115.6c0 1.39-.91 2.77-2.75 3.83-3.66 2.12-9.6 2.12-13.27 0-1.84-1.06-2.75-2.44-2.75-3.83v-115.6h18.77" fill="#B56262"/>
    <path d="M179 291.45l58.16-140.44h8.1l58.16 140.45A7.43 7.43 0 01298 301.6l-.95.18a7.43 7.43 0 00-5.93 8.21 7.43 7.43 0 01-9.56 8.03l-2.87-.88a7.43 7.43 0 00-8.95 4.03l-2.9 6.37a7.43 7.43 0 01-10.55 3.33l-11.29-6.7a7.43 7.43 0 00-7.58 0l-11.28 6.7a7.43 7.43 0 01-10.56-3.32l-2.9-6.38a7.43 7.43 0 00-8.94-4.04l-2.88.89a7.43 7.43 0 01-9.56-8.03 7.43 7.43 0 00-5.92-8.22l-.96-.19a7.43 7.43 0 01-5.41-10.13" fill="#00A798"/>
    <path d="M222.36 331.9a7.43 7.43 0 01-6.78-4.35l-2.9-6.38a7.43 7.43 0 00-8.94-4.04l-2.88.89a7.45 7.45 0 01-9.56-8.03 7.43 7.43 0 00-5.93-8.21l-.95-.2a7.44 7.44 0 01-5.41-10.13l13.93-33.65-1.62 3.91a4.3 4.3 0 003.66 3.48 5.62 5.62 0 014.67 6.2l-.12 1.07a5.63 5.63 0 007.58 5.9l2.87-1.1a5.61 5.61 0 017.13 2.97l3.57 8a5.62 5.62 0 008.01 2.55l9.64-6.43a5.62 5.62 0 015.76 0l10.76 6.42a5.6 5.6 0 008.02-2.53l3.56-8a5.62 5.62 0 017.14-2.97l2.87 1.1a5.62 5.62 0 007.58-5.9l-.12-1.08a5.62 5.62 0 014.67-6.2 4.26 4.26 0 003.11-2.07l-1.98-4.8 13.72 33.14A7.43 7.43 0 01298 301.6l-.95.18a7.43 7.43 0 00-5.93 8.21 7.45 7.45 0 01-9.56 8.02l-2.87-.87a7.44 7.44 0 00-8.95 4.03l-2.9 6.37a7.43 7.43 0 01-10.55 3.33l-5.69-3.37-5.6-3.32a7.42 7.42 0 00-7.58 0l-5.6 3.32-5.68 3.37a7.4 7.4 0 01-3.78 1.04" fill="#009E81"/>
    <path d="M225.82 291.57a5.62 5.62 0 01-5.14-3.33l-3.57-8a5.62 5.62 0 00-7.13-2.97l-2.87 1.1a5.61 5.61 0 01-7.58-5.9l.12-1.09a5.62 5.62 0 00-4.67-6.2 4.3 4.3 0 01-3.66-3.47l1.62-3.9c.55.4 1.23.7 2.04.83a5.62 5.62 0 014.67 6.2l-.12 1.08a5.63 5.63 0 007.58 5.9l2.87-1.1a5.61 5.61 0 017.14 2.97l3.56 8a5.61 5.61 0 008.02 2.54l9.64-6.42a5.62 5.62 0 015.75 0l10.77 6.42a5.6 5.6 0 008-2.54l3.58-8a5.62 5.62 0 017.13-2.97l2.87 1.1a5.63 5.63 0 007.58-5.9l-.12-1.08a5.62 5.62 0 014.67-6.2 5 5 0 001.13-.31l1.98 4.79a4.26 4.26 0 01-3.11 2.07 5.62 5.62 0 00-4.67 6.2l.12 1.07a5.63 5.63 0 01-7.58 5.9l-2.87-1.1a5.61 5.61 0 00-7.14 2.97l-3.56 8a5.62 5.62 0 01-8.02 2.54l-10.76-6.42a5.62 5.62 0 00-5.76 0l-9.64 6.42c-.9.55-1.9.8-2.87.8" fill="#008C73"/>
    <path d="M191.97 250.62l45.2-105.22h8.1l46.3 105.22c1.67 3.38.72 7.42-3 8.03a5.62 5.62 0 00-4.67 6.2l.12 1.07a5.62 5.62 0 01-7.58 5.9l-2.87-1.1a5.62 5.62 0 00-7.13 2.97l-3.57 8a5.62 5.62 0 01-8.01 2.54l-10.77-6.42a5.62 5.62 0 00-5.75 0l-9.64 6.42a5.62 5.62 0 01-8.02-2.54l-3.56-8a5.62 5.62 0 00-7.14-2.97l-2.87 1.1a5.62 5.62 0 01-7.58-5.9l.12-1.08a5.62 5.62 0 00-4.67-6.2c-3.72-.6-4.68-4.64-3-8.02" fill="#00A798"/>
    <path d="M225.82 285.03a5.61 5.61 0 01-5.14-3.34l-3.57-8a5.62 5.62 0 00-7.13-2.97l-2.87 1.1a5.63 5.63 0 01-7.58-5.9l.12-1.08a5.62 5.62 0 00-4.67-6.2c-2.54-.41-3.8-2.43-3.8-4.74 0-1.08.26-2.21.8-3.28l12.25-28.55a5 5 0 00.83.59l.25.14a5.06 5.06 0 012.57 4.84 5.07 5.07 0 006.34 5.33l1.96-.52a5.06 5.06 0 015.75 2.5l2.7 5.03a5.06 5.06 0 006.8 2.1l7.44-3.89a5.06 5.06 0 014.69 0l7.43 3.89a5.04 5.04 0 006.81-2.1l2.7-5.02a5.07 5.07 0 015.75-2.5l1.96.51a5.07 5.07 0 006.33-5.33 5.06 5.06 0 012.57-4.84l.25-.14c.56-.3 1.01-.72 1.4-1.17l12.82 29.13c.52 1.06.79 2.2.79 3.26 0 2.32-1.25 4.35-3.8 4.77a5.62 5.62 0 00-4.67 6.2l.12 1.07a5.64 5.64 0 01-5.57 6.28c-.66 0-1.33-.12-2-.38l-2.88-1.1a5.6 5.6 0 00-7.14 2.97l-3.56 8a5.62 5.62 0 01-8.02 2.54l-10.76-6.42a5.62 5.62 0 00-5.76 0l-9.64 6.42c-.9.54-1.9.8-2.87.8" fill="#00A28C"/>
    <path d="M204.23 222.07l2.1-4.87-2.1 4.87m74.53-.58l-2.1-4.75 2.1 4.75" fill="#DBDCD6"/>
    <path d="M229.1 242.66c-1.81 0-3.56-.97-4.47-2.68l-2.7-5.02a5.06 5.06 0 00-5.75-2.5l-1.96.51a5.07 5.07 0 01-6.34-5.33 5.06 5.06 0 00-2.57-4.84l-.25-.14a5 5 0 01-.83-.59l2.1-4.87a5.06 5.06 0 011.55 4.1l-.02.44a5.07 5.07 0 006.36 4.88l1.96-.52a5.06 5.06 0 015.75 2.5l2.7 5.03a5.06 5.06 0 006.8 2.1l7.44-3.88a5.07 5.07 0 014.69 0l7.43 3.88a5.04 5.04 0 006.81-2.1l2.7-5.02a5.06 5.06 0 015.75-2.5l1.96.51a5.07 5.07 0 006.33-5.33l-.01-.43c0-1.64.8-3.18 2.13-4.12l2.1 4.75c-.39.45-.84.86-1.4 1.17l-.25.14a5.06 5.06 0 00-2.57 4.85 5.07 5.07 0 01-6.33 5.32l-1.96-.52a5.06 5.06 0 00-5.76 2.5l-2.69 5.03a5.06 5.06 0 01-6.8 2.1l-7.44-3.89a5.05 5.05 0 00-4.69 0l-7.44 3.89c-.75.39-1.55.57-2.34.57" fill="#009F83"/>
    <path d="M203.23 209.23l33.97-71.4.26-.43a4.34 4.34 0 017.5 0l.28.44 33.96 71.4a5.06 5.06 0 01-1.83 7.07l-.26.14a5.06 5.06 0 00-2.57 4.85 5.06 5.06 0 01-6.33 5.32l-1.96-.52a5.06 5.06 0 00-5.76 2.5l-2.69 5.03a5.06 5.06 0 01-6.8 2.1l-7.44-3.88a5.07 5.07 0 00-4.69 0l-7.44 3.88a5.06 5.06 0 01-6.8-2.1l-2.7-5.02a5.06 5.06 0 00-5.75-2.5l-1.96.51a5.06 5.06 0 01-6.34-5.32 5.06 5.06 0 00-2.57-4.85l-.25-.14a5.06 5.06 0 01-1.83-7.08" fill="#00A798"/>
    <path d="M229.1 236.3c-1.81 0-3.56-.96-4.47-2.67l-2.7-5.02a5.06 5.06 0 00-5.75-2.5l-1.96.51a5.07 5.07 0 01-6.34-5.33c.02-.14.02-.29.02-.43 0-1.82-.98-3.51-2.59-4.41l-.25-.14a5.06 5.06 0 01-1.83-7.08l33.97-71.4.26-.43a4.34 4.34 0 017.5 0l.28.44 33.96 71.4a5.03 5.03 0 01-1.83 7.07l-.26.14a5.06 5.06 0 00-2.57 4.85 5.07 5.07 0 01-6.33 5.33l-1.96-.53a5.07 5.07 0 00-5.76 2.5l-2.69 5.03a5.06 5.06 0 01-6.8 2.1l-7.44-3.88a5.05 5.05 0 00-4.69 0l-7.44 3.88c-.75.39-1.55.58-2.34.58" fill="#00A593"/>
    <path d="M245.74 350.85a5.76 5.76 0 0111.53 0v.32c-.07.8-.63 1.58-1.68 2.2a9.03 9.03 0 01-8.16 0c-1.06-.62-1.62-1.4-1.69-2.2v-.32" fill="#253C40"/>
    <path d="M247.43 353.36c-1.06-.6-1.62-1.4-1.69-2.2v-.31a5.75 5.75 0 013-4.9c-.03.06-2.87 3.62-.77 6 1.45 1.64 6.43 1.94 8.61.64-.26.28-.59.54-1 .77a9.03 9.03 0 01-8.15 0" fill="#132529"/>
    <path d="M255.06 353.75a4.07 4.07 0 018.14 0v.22c-.04.57-.44 1.12-1.19 1.55a6.37 6.37 0 01-5.76 0c-.74-.43-1.14-.98-1.19-1.55v-.22" fill="#334F55"/>
    <path d="M256.25 355.52c-.74-.43-1.14-.98-1.19-1.55v-.22c.02-.48.11-.93.28-1.36-.1 1.75.72 2.81 3.3 3.14 2.65.34 4.25-.76 4.47-1.16-.16.42-.53.82-1.1 1.15a6.37 6.37 0 01-5.76 0" fill="#253C40"/>
    <path d="M225.2 349.67a4.04 4.04 0 018.08 0v.22c-.04.57-.43 1.12-1.17 1.55a6.33 6.33 0 01-5.72 0c-.74-.43-1.14-.98-1.18-1.54V349.67" fill="#334F55"/>
    <path d="M226.39 351.44c-.74-.43-1.14-.98-1.18-1.54V349.67c0-.47.1-.92.27-1.34-.1 1.73.72 2.79 3.27 3.11 2.63.34 4.22-.76 4.44-1.15-.16.42-.52.82-1.08 1.15a6.33 6.33 0 01-5.72 0" fill="#253C40"/>
    <path d="M365.9 360.38l5.86-3.34s2.81-15.49.71-28.8c-2.95-18.7-15.7-25.16-20.32-23.3-4.63 1.86-5.72 7.4 2.64 18.21 4.93 6.38 11.27 19.87 11.11 37.23" fill="#00A798"/>
    <path d="M365.9 360.38s2.22-3.13 2.98-4.88a15.4 15.4 0 001.38-6.06 4.87 4.87 0 00-1.33-3.51c.17-15.77-6.21-31.6-13.27-38.5a.42.42 0 00-.6 0 .42.42 0 00.01.6c6.81 6.65 12.97 21.78 13.03 37.02-1.19-1.14-2.47-2.11-3.02-3.78a4.46 4.46 0 01-.22-1.41c0-1.78.81-3.65.81-5.38 0-.63-.1-1.23-.4-1.8-.66-1.33-2.12-2.06-3.55-2.44-.95-.25-1.93-.39-2.88-.61a43 43 0 00-4.05-6.48c-4.43-5.73-6.2-9.98-6.2-12.99a5.27 5.27 0 015.34-5.53c5.5 0 15.9 6.95 18.54 23.62.57 3.62.78 7.4.78 11 0 9.6-1.49 17.79-1.49 17.79l-5.86 3.34" fill="#009E81"/>
    <path d="M368.03 352.95h-.06a.42.42 0 01-.36-.47c2.42-17.52-4.62-36.71-12.54-44.45a.42.42 0 01.59-.6c8.06 7.88 15.24 27.39 12.78 45.16-.03.21-.2.36-.41.36" fill="#FFFFFE"/>
    <path d="M349.65 369.77c-.92.53-2.83-.63-3.56-1.12a8.84 8.84 0 01-2.94-3.37 8.27 8.27 0 01-.73-4.97c.12-.9.38-1.78.63-2.65l.73-2.56c.25-.85.5-1.72.38-2.6-.23-1.75-1.78-2.97-3.2-4.04-1.56-1.17-3.2-2.71-3.19-4.83.01-1.63.85-3.14 1.86-4.42 1.02-1.28 2.21-2.41 3.13-3.76a5.19 5.19 0 001.06-3.28 5.42 5.42 0 00-.72-2.05c-.74-1.38-1.72-2.64-2.24-4.12-.51-1.48-.44-3.31.71-4.37.95-.87 2.36-.99 3.64-.9 1.18.07 2.34.6 3.38 1.19 3.35 1.86 5.27 5.83 8.82 7.27 1.38.55 2.88.67 4.31 1.05 1.43.38 2.9 1.1 3.56 2.43 1.3 2.61-1.12 5.83-.2 8.6.8 2.45 3.19 3.39 4.53 5.6.58.96.72 2.08.62 3.2a15.4 15.4 0 01-1.35 5.43 38.64 38.64 0 01-2.98 4.88c-.05.06-16.1 9.3-16.25 9.39" fill="#00A798"/>
    <path d="M349.07 369.9c-.99 0-2.38-.85-2.98-1.25a8.84 8.84 0 01-2.94-3.37 7.93 7.93 0 01-.83-3.6c0-.46.03-.91.1-1.37.12-.9.38-1.78.63-2.65l.73-2.56c.2-.7.4-1.42.4-2.14 0-.15 0-.3-.02-.45-.23-1.75-1.78-2.98-3.2-4.05-1.56-1.16-3.19-2.7-3.19-4.81v-.02c.01-1.63.85-3.14 1.86-4.42 1.01-1.28 2.21-2.41 3.13-3.76a5.47 5.47 0 001.06-3.28 5.42 5.42 0 00-.72-2.05c-.74-1.38-1.73-2.64-2.24-4.12-.2-.56-.3-1.17-.3-1.77 0-.99.3-1.94 1.01-2.6.79-.72 1.9-.93 2.98-.93l.66.03c1.18.07 2.34.6 3.38 1.19 3.35 1.86 5.27 5.83 8.82 7.27 1.38.55 2.88.67 4.31 1.05 1.43.38 2.9 1.1 3.56 2.43.28.58.39 1.18.4 1.8 0 1.74-.82 3.61-.82 5.39 0 .48.06.95.22 1.4.8 2.46 3.19 3.4 4.53 5.6.47.8.65 1.68.65 2.58 0 .21 0 .42-.03.63a15.4 15.4 0 01-1.35 5.43 38.64 38.64 0 01-2.98 4.88c-.05.06-16.1 9.3-16.25 9.39-.16.1-.36.14-.58.14" fill="#00A390"/>
    <path d="M359.16 364.7h-.01a.42.42 0 01-.4-.43c.68-16.58-7.13-34.88-12.8-40.2a.42.42 0 01.56-.61c5.8 5.42 13.77 24.03 13.07 40.84-.01.23-.2.4-.42.4" fill="#FFFFFE"/>
    <path d="M356.68 345.12l-.13-.02c-5.32-1.65-11.96-1.94-12.03-1.94a.42.42 0 01-.4-.44.4.4 0 01.44-.4c.06 0 6.8.3 12.24 1.98a.42.42 0 01-.12.82" fill="#FFFFFE"/>
    <path d="M584.65 116.16c-.02-.55-.38-1.09-1.1-1.5a5.92 5.92 0 00-5.36 0c-.72.41-1.09.95-1.1 1.5h-.01V306c0 1.19 1.7 2.15 3.78 2.15 2.1 0 3.79-.96 3.79-2.15V116.16" fill="#253C40"/>
    <path d="M584.65 116.16c0-1.18-1.7-2.14-3.79-2.14s-3.78.96-3.78 2.14c0 1.19 1.7 2.15 3.78 2.15 2.1 0 3.79-.96 3.79-2.15" fill="#334F55"/>
    <path fill="#00A798" d="M623.69 188.48l-7.43-12.87-49.42-28.51-3.74 2.15v17.17l49.42 28.5 3.8-2.1 7.37-4.34"/>
    <path fill="#00A798" d="M563.1 149.25l49.42 28.51 7.43 12.88-7.43 4.29-49.42-28.51v-17.17"/>
    <path fill="#009E81" d="M612.52 194.93l7.43-4.3.02.05-7.45 4.25"/>
    <path fill="#009E81" d="M612.52 194.93l-49.42-28.51v-17.17l49.42 28.51 7.43 12.88-7.43 4.29"/>
    <path fill="#00A593" d="M612.52 177.76l-49.42-28.5 3.74-2.16 49.42 28.51-3.74 2.15"/>
    <path fill="#00A28C" d="M619.97 190.68l-.02-.04-7.43-12.88 3.74-2.15 7.43 12.87-3.72 2.2M619.95 190.64l-7.43-12.88 7.43 12.88"/>
    <path fill="#00A798" d="M607.44 144.75l-49.42-28.55-7.43 4.29 7.43 12.87 49.42 28.56v-17.17"/>
    <path fill="#00A798" d="M558.02 116.2l3.63-2.19 49.5 28.6-3.71 2.14-49.42-28.55"/>
    <path fill="#4FB9B1" d="M607.44 144.75l-49.42-28.55 3.63-2.18 49.5 28.6-3.71 2.13"/>
    <path fill="#00A798" d="M611.15 159.78l-3.71 2.14v-17.17l3.7-2.14v17.17"/>
    <path fill="#00A593" d="M607.44 161.92v-17.17l3.7-2.14v17.17l-3.7 2.14"/>
    <path fill="#00A798" d="M594.95 197.8l-49.42-28.56-7.43 4.29 7.43 12.87 49.42 28.56v-17.17"/>
    <path fill="#00A798" d="M545.53 169.24l3.64-2.19 49.49 28.6-3.7 2.14-49.43-28.55"/>
    <path fill="#4FB9B1" d="M594.95 197.8l-49.42-28.56 3.64-2.19 49.49 28.6-3.7 2.14"/>
    <path fill="#00A798" d="M598.66 212.82l-3.7 2.14v-17.17l3.7-2.14v17.17"/>
    <path fill="#00A593" d="M594.95 214.96v-17.17l3.7-2.14v17.17l-3.7 2.14"/>
    <path d="M470.1 100.06c.4-.13.79-.1 1.17.1.39.19.64.48.77.88l1.58 4.77c.13.4.1.8-.1 1.18-.19.38-.48.64-.88.77l-4.66 1.54c-.4.13-.8.1-1.18-.1-.38-.19-.64-.48-.77-.88l-1.58-4.77c-.13-.4-.1-.8.1-1.18.19-.38.48-.64.88-.77l4.67-1.54zm-12.35-30.1c1.7-.56 3.44-.87 5.2-.93 1.76-.06 3.42.16 4.98.68 1.55.5 2.93 1.31 4.13 2.42a9.94 9.94 0 012.7 4.32c.47 1.44.66 2.77.56 3.99-.1 1.21-.36 2.36-.79 3.45a19.85 19.85 0 01-1.53 3.09l-1.7 2.78c-.53.88-.97 1.76-1.3 2.63a4.67 4.67 0 00-.27 2.56c.06.42.01.81-.15 1.19a1.3 1.3 0 01-.83.75l-4.12 1.36c-.4.14-.8.1-1.2-.08-.4-.19-.65-.49-.75-.9a9.94 9.94 0 01-.33-4c.17-1.25.49-2.41.95-3.5.46-1.1 1-2.13 1.63-3.1.62-.97 1.19-1.89 1.7-2.76.51-.87.9-1.7 1.16-2.49a3.6 3.6 0 00.02-2.32 4.31 4.31 0 00-2.86-2.82c-1.45-.5-3.13-.44-5.05.2-3.07 1.01-4.82 3.3-5.25 6.84-.05.46-.14.82-.28 1.09-.13.26-.43.47-.9.63l-4.4 1.45c-.32.1-.64.09-.94-.05-.31-.14-.52-.4-.64-.75a8.86 8.86 0 01-.12-4.27 14 14 0 011.8-4.56 16.9 16.9 0 013.53-4.08 14.86 14.86 0 015.06-2.81zM502.6 133.26c.26-.13.53-.15.81-.07.29.1.5.27.63.52l1.62 3.07c.13.26.15.53.06.81-.08.29-.26.5-.51.63l-3 1.58c-.26.13-.53.16-.81.07-.29-.1-.5-.26-.63-.52l-1.62-3.07a1.03 1.03 0 01-.06-.81c.08-.28.26-.5.51-.63l3-1.58m-11.8-19.1a12.8 12.8 0 013.43-1.21 9.85 9.85 0 013.46-.11c1.12.17 2.15.57 3.1 1.18.94.62 1.71 1.5 2.31 2.64a7.03 7.03 0 01.7 5.09c-.17.78-.4 1.55-.7 2.28l-.84 2.09c-.26.66-.46 1.3-.59 1.93a3.2 3.2 0 00.1 1.77c.1.29.1.56.04.83a.9.9 0 01-.48.61l-2.65 1.4c-.26.13-.54.16-.83.07a.87.87 0 01-.61-.52 6.84 6.84 0 01-.68-2.7c-.02-.86.06-1.7.25-2.49.19-.8.44-1.56.76-2.29.31-.73.6-1.42.85-2.07.25-.65.42-1.26.5-1.83.1-.56.01-1.1-.25-1.58a2.98 2.98 0 00-2.26-1.6 5.38 5.38 0 00-3.42.7c-1.97 1.05-2.9 2.8-2.8 5.27.02.31 0 .57-.07.77-.06.2-.24.37-.54.53l-2.83 1.48a.87.87 0 01-.65.08.82.82 0 01-.52-.44c-.4-.83-.59-1.8-.56-2.9.03-1.1.27-2.2.71-3.3.44-1.11 1.09-2.17 1.94-3.18a10.3 10.3 0 013.13-2.5" fill="#00A798"/>
    <path d="M501.73 139.92c-.11 0-.22-.02-.33-.05-.29-.1-.5-.26-.63-.52l-1.62-3.07a1.02 1.02 0 01-.06-.81c.08-.28.26-.5.51-.63l3-1.58a1.02 1.02 0 01.81-.07c.29.1.5.27.63.52l1.62 3.07a1.02 1.02 0 01.06.81c-.08.29-.26.5-.51.63l-3 1.58c-.16.08-.32.12-.48.12M498.18 132.78c-.1 0-.22-.02-.33-.05a.87.87 0 01-.61-.52 6.84 6.84 0 01-.68-2.98c0-.76.08-1.5.25-2.2.19-.8.44-1.57.76-2.3.31-.73.6-1.42.85-2.07.25-.65.42-1.26.5-1.83a2.45 2.45 0 00-.25-1.58 2.98 2.98 0 00-2.26-1.6 4.16 4.16 0 00-.69-.05 5.9 5.9 0 00-2.73.76c-1.87.98-2.81 2.61-2.81 4.89a9.32 9.32 0 00.01.58c0 .22-.02.4-.07.56-.06.2-.24.37-.54.53l-2.83 1.48a.89.89 0 01-.65.08.82.82 0 01-.52-.44 5.96 5.96 0 01-.56-2.66v-.23c.03-1.1.27-2.2.71-3.32.44-1.1 1.09-2.16 1.94-3.17a10.3 10.3 0 013.13-2.5 12.8 12.8 0 013.43-1.22 10.4 10.4 0 013.46-.1c1.12.17 2.15.56 3.1 1.18.94.62 1.71 1.5 2.31 2.64a7.03 7.03 0 01.7 5.09c-.17.78-.4 1.55-.7 2.28l-.84 2.09c-.26.66-.46 1.3-.59 1.93a3.03 3.03 0 00.1 1.77 1.6 1.6 0 01.04.83.9.9 0 01-.48.61l-2.65 1.4c-.16.08-.33.12-.5.12" fill="#00A28C"/>
    <path d="M519.06 74.41c1.4.43 2.7 1.04 3.91 1.83 1.21.8 2.21 1.73 3 2.8a9.21 9.21 0 011.63 3.57c.28 1.31.2 2.7-.24 4.16a8.28 8.28 0 01-1.5 2.93 9.88 9.88 0 01-2.16 1.93c-.8.52-1.63.97-2.49 1.34l-2.45 1.06c-.77.34-1.47.72-2.1 1.14-.64.43-1.1.96-1.39 1.58-.16.31-.38.55-.66.73-.28.17-.59.21-.91.11l-3.4-1.04c-.33-.1-.58-.3-.76-.62-.18-.31-.21-.63-.08-.95a8.15 8.15 0 011.67-2.84 11.4 11.4 0 012.29-1.89c.82-.51 1.67-.94 2.55-1.3.87-.35 1.68-.7 2.44-1.03.75-.34 1.4-.71 1.95-1.12.55-.4.92-.92 1.1-1.54.35-1.13.16-2.2-.57-3.23a6.37 6.37 0 00-3.46-2.25c-2.54-.78-4.79-.08-6.75 2.09-.25.28-.48.48-.7.6-.2.1-.5.1-.9-.01l-3.62-1.1a1.03 1.03 0 01-.6-.49.97.97 0 01-.08-.8c.35-1.04 1-2 1.94-2.9a11.4 11.4 0 013.35-2.2c1.3-.57 2.73-.92 4.29-1.07 1.55-.14 3.12.03 4.7.51m-5.96 25.93c.33.1.57.3.74.62.16.3.2.63.1.96l-1.2 3.93c-.1.33-.3.57-.62.74-.31.16-.63.2-.96.1l-3.84-1.18c-.33-.1-.57-.3-.74-.61a1.2 1.2 0 01-.1-.96l1.2-3.93c.1-.33.3-.58.62-.74.31-.17.63-.2.96-.1l3.84 1.17" fill="#00A798"/>
    <path d="M511.53 106.74c-.12 0-.24-.02-.37-.05l-3.84-1.18c-.33-.1-.57-.3-.74-.61a1.24 1.24 0 01-.1-.96l1.2-3.93c.1-.33.3-.58.62-.74a1.24 1.24 0 01.96-.1l3.84 1.17c.33.1.57.3.74.62a1.25 1.25 0 01.1.96l-1.2 3.93c-.1.33-.3.57-.62.74-.2.1-.39.15-.6.15M514.05 97.65a1.2 1.2 0 01-.35-.06l-3.4-1.04c-.33-.1-.58-.3-.76-.62-.1-.18-.16-.37-.16-.56 0-.13.03-.26.08-.39a8.15 8.15 0 011.67-2.84 11.4 11.4 0 012.29-1.89c.82-.51 1.67-.94 2.55-1.3.87-.35 1.68-.7 2.44-1.03.75-.34 1.4-.71 1.95-1.12.55-.4.92-.92 1.1-1.54.12-.36.17-.72.17-1.07 0-.75-.24-1.47-.74-2.16a6.37 6.37 0 00-3.46-2.25c-.67-.2-1.32-.3-1.94-.3-1.76 0-3.36.79-4.81 2.39-.25.28-.48.48-.7.6a.8.8 0 01-.37.08c-.15 0-.33-.03-.53-.1l-3.62-1.1a1.03 1.03 0 01-.6-.48.9.9 0 01-.13-.46c0-.1.02-.22.05-.34.35-1.04 1-2 1.94-2.9a11.4 11.4 0 013.36-2.2 13.83 13.83 0 015.35-1.11c1.2 0 2.42.18 3.63.55 1.4.43 2.7 1.04 3.91 1.83 1.21.8 2.21 1.73 3 2.8a9.21 9.21 0 011.63 3.57c.1.51.17 1.04.17 1.57 0 .83-.14 1.7-.41 2.59a8.28 8.28 0 01-1.5 2.93 9.88 9.88 0 01-2.16 1.93c-.8.52-1.63.97-2.49 1.34l-2.45 1.06c-.77.34-1.47.72-2.1 1.14-.64.43-1.1.96-1.39 1.58-.16.31-.38.55-.66.73-.18.11-.37.17-.56.17" fill="#81C9C1"/>
    <path d="M458.8 338.7c.1 1.8.3 3.42-.44 5.38-1.06 2.82-3.2 4.08-4.47 5.17a21.4 21.4 0 00-3.7 4.32c-.92 1.42-1.96 3.05-3.88 4.66-1.2 1-4.53 1.02-6.12.31-1.6-.7-2.12-1.32-1.97-3.88.15-2.5 7.93-3.27 7.93-3.27l12.65-12.7" fill="#334F55"/>
    <path d="M439.38 347.05c-.67.23-.86 1.5-1.01 4-.12 1.9-.97 4.66 1.62 5.9 2.09 1.01 5.47.44 6.94-1.32 1.82-2.2 3.06-4.14 5.65-6.81 2.25-2.32 4.56-3.07 5.63-7.78.7-3.02.22-4.3-1.8-5.2-2.79-1.26-7.28 2.57-9.5 3.14-1.9.5-6.87 7.83-7.53 8.07" fill="#00A798"/>
    <path d="M442.38 357.45c-.86 0-1.7-.16-2.39-.5-1.5-.72-1.85-1.96-1.85-3.24 0-.92.18-1.87.23-2.66.15-2.5.34-3.77 1-4 .25-.09 1.06-1.1 2.08-2.4a9.2 9.2 0 006.43-.18l.84-6.28c1.93-1.03 4.41-2.6 6.43-2.6.45 0 .87.07 1.26.25 1.45.65 2.1 1.49 2.1 3.02 0 .6-.1 1.32-.3 2.18-1.07 4.7-3.38 5.46-5.63 7.78-2.59 2.67-3.83 4.61-5.65 6.81-.98 1.18-2.81 1.82-4.55 1.82" fill="#00A28C"/>
    <path d="M446.91 338.98l.38-.12a7.24 7.24 0 016 4.11c.36.83-.8 1.45-1.48.8-1.5-3.15-4.72-3.91-6-4.1.42-.35.8-.61 1.1-.69" fill="#FAF9F6"/>
    <path d="M445.07 340.37a7.2 7.2 0 015.57 4.07c.36.84-.81 1.46-1.48.8a7.41 7.41 0 00-5-3.89l.9-.98" fill="#FAF9F6"/>
    <path d="M493.34 378.22c.39 2.13-.4 3.23-3.18 4.76-2.78 1.53-7.1 1.98-11.6.57-4.5-1.4-6.63-3.43-8.5-3.93-1.88-.51-6.53-.65-8.38-1.23-1.85-.58-1.8-1.53-1.75-3.77l33.4 3.6" fill="#334F55"/>
    <path d="M461.97 363.87s-.94 2.67-1.46 5c-.42 1.85-1.02 4.95-.4 6.37.63 1.41 3.15 2.37 7.1 2.41 2.55.04 6.5 1.85 9.2 3.43 2.77 1.63 5.83 1.7 8.81 1.4 3.52-.34 7.2-2.3 7.8-3.74.59-1.44.76-2.53-7.44-6.22-.08-.04-9.53-3.74-13.44-8.23l-10.17-.42" fill="#00A798"/>
    <path d="M482.73 382.62c-2.16 0-4.32-.37-6.33-1.54-2.7-1.58-6.64-3.4-9.2-3.43-3.94-.04-6.46-1-7.09-2.41a4.4 4.4 0 01-.27-1.7c0-1.51.38-3.39.67-4.67.52-2.33 1.46-5 1.46-5l10.17.42c3.91 4.5 13.36 8.2 13.44 8.23 6.35 2.86 7.68 4.15 7.68 5.26 0 .32-.11.63-.25.96-.6 1.44-4.27 3.4-7.79 3.74-.83.08-1.66.13-2.49.13" fill="#00A28C"/>
    <path d="M477.52 381.64s.85-7.08 6.66-9c5.25-1.73 9.73 2.23 9.16 5.58-.39 2.25-6.84 7.26-15.82 3.42M482.75 371.28s-1.86-.03-3.98 1.67c-1.69 1.37-1.76 2.3-1.76 2.3-.39.57-1.6.23-1.49-.75 0 0 .46-3.57 5.19-4.21 0 0 1.3-.3 2.04 1M479.48 369.64s-1.9-.21-4.01 1.5c-1.7 1.36-1.73 2.46-1.73 2.46-.39.58-1.6.23-1.49-.75 0 0 .46-3.57 5.2-4.2 0 0 1.3-.3 2.03.99M476.24 367.7s-1.87-.33-4.1 1.23c-1.78 1.24-1.89 2.34-1.89 2.34-.43.54-1.62.12-1.44-.85 0 0 .7-3.54 5.47-3.85 0 0 1.32-.2 1.96 1.13" fill="#FAF9F6"/>
    <path d="M439.46 342.99l-.1 4.81s3.16 2.53 7.78.37c.14-.3.63-5.02.63-5.02l-8.31-.16M462.04 360.54s-.04 2.29-.08 3.6c-.03 1.3 1.47 3.28 5.47 3.22 2.8-.05 4.78-.76 4.71-3.07l.07-3.33-10.17-.42" fill="#EB9598"/>
    <path d="M435.08 302.01c.47-10.15 2.65-14.57 2.65-14.57s-.53-12.56-1.9-27.96c-2.11-23.44-.25-26.91 4.57-37.34 0 0 38.87-4.24 39.74 12.15 1.09 20.4.44 61.85-.25 69.04-.68 7.19-.54.54-2.58 15.07-1.62 11.5-5.1 42.56-5.1 42.56-5.28 2.72-10.17-.42-10.17-.42s-2.46-38.14-1.96-46.44c.62-10.13 1.25-12.7 1.25-12.7s-3.95-32.92-4.55-38.22c0 0-.83 9.44-1.52 16.63-.69 7.19-.76 12.99-2.57 27.85-1.42 11.65-4.81 36.8-4.81 36.8-4.7 1.88-8.57-.8-8.57-.8s-4.6-33.43-4.23-41.65" fill="#334F55"/>
    <path d="M456.85 344.51s-.1-5.63-7.69-6.56l-.44.24s1.25-2.18 3.8-2.81c2.54-.63 4.52.06 5.81 1.8 1.3 1.73-.14 6.26-1.48 7.33" fill="#FAF9F6"/>
    <path d="M456.78 263.18l-.5-6.73s-5.86-1.92-12-6.03c0 0 2.68 5.33 9.67 7.34l1.2 6.6.11 15.45 1.52-16.63" fill="#253C40"/>
    <path d="M442.82 131.12c-2.13 2.65-17.88 28.02-20.18 32.77-2.3 4.75-2.86 7.83.78 11.67 5.47 5.77 19.26 19.68 19.26 19.68l7.72-18.42-14.32-8.98 14.02-29.64-7.28-7.08" fill="#EB9598"/>
    <path d="M436.08 167.83s-3.92-1.37-7.19.75c0 0 2.58-3.65 7.92-2.28l-.73 1.53" fill="#E88385"/>
    <path d="M450.77 175.38l-12.69-6.29c-4.67-.67-10.75 6.64-10.58 12.24l11.1 9.8 12.17-15.75" fill="#334F55"/>
    <path d="M452.61 165.99l-.8 8.8c-1.98.63-1.63 3.42-.46 5.14l-.23 2.59 12.95 1.17 1.95-14.88-13.4-2.82" fill="#EB9598"/>
    <path d="M438.35 181.2c1.44-3.92 7.12-6.92 10.57-6.65 1.33.1 2.9.25 2.9.25-.8 1.6.35 2.74 2.45 3.34 2.7.78 7.67 1.23 10.6-.5l.1-.75s5.52 1.57 7.15 2.19c4.58 1.72 6.09 2.6 10.83 14.92 2.04 5.27.78 10.73-4.68 13.7-.41 3.26-.87 8.4-.87 8.4 2.46 11.3 3.3 21.16 3.3 21.16s-2.87 6.54-22.82 5.44c-15.45-.85-22.64-8.67-22.64-8.67.38-3.8 2.78-9.85 7.7-21.27-5.82-16.42-6.73-25.75-4.6-31.56" fill="#253C40"/>
    <path d="M520.83 173.07h-.05a3.36 3.36 0 011.9-6.33l.12.14-.14.12a3.1 3.1 0 00-1.75 5.83l.05.17-.13.07" fill="#D4D5CF"/>
    <path d="M518.8 170.34l.75.94c.27.68.8 1.35 1.42 1.75l.75.94.56-.46c.32-.2.47-.62.38-1.18a3.65 3.65 0 00-2.07-2.56c-.53-.2-.97-.14-1.23.12l-.57.45" fill="#334F55"/>
    <path d="M520.55 174.04c.99.37 1.65-.16 1.49-1.2a3.64 3.64 0 00-2.08-2.57c-.98-.38-1.64.16-1.48 1.2a3.65 3.65 0 002.07 2.57" fill="#132529"/>
    <path d="M518.03 171.82l2.09 2.59.9-.72H521c.22-.15.33-.45.27-.85a2.61 2.61 0 00-1.48-1.83c-.38-.15-.7-.1-.88.09l-.9.72" fill="#253C40"/>
    <path d="M498.77 180.99l1.01 3.2v.02l.01.02c.51 1.57 2.06 2.81 4.52 3.36 4.95 1.09 11.74-1.06 15.16-4.8 1.7-1.86 2.25-3.76 1.77-5.34v-.02l-.01-.02-1.02-3.2-1.27.64a8.48 8.48 0 00-2.24-.81c-4.95-1.1-11.74 1.05-15.16 4.79a8.45 8.45 0 00-1.36 1.93l-1.41.23" fill="#00A798"/>
    <g transform="translate(498 174)">
      <mask id="d" fill="#fff">
        <use xlink:href="#c"/>
      </mask>
      <path fill="#009E81" mask="url(#d)" d="M.78 13.87h22.63V.21H.78z"/>
    </g>
    <path d="M521.98 173.42a3.32 3.32 0 01-1.2-.36l-.05-.18.18-.05a3.1 3.1 0 101.75-5.83l-.12-.15.14-.11a3.36 3.36 0 01-.7 6.68" fill="#D4D5CF"/>
    <path d="M515.68 170.8c-4.95-1.1-11.74 1.04-15.17 4.79-3.42 3.74-2.18 7.66 2.77 8.75 4.95 1.1 11.74-1.05 15.17-4.8 3.42-3.73 2.18-7.65-2.77-8.75" fill="#00A798"/>
    <path d="M506.05 184.63c-.96 0-1.9-.1-2.77-.29-3.05-.67-4.7-2.43-4.7-4.55 0-1.31.62-2.77 1.93-4.2 2.82-3.08 7.92-5.08 12.4-5.08.96 0 1.9.09 2.77.28 3.06.68 4.7 2.43 4.7 4.55 0 1.32-.62 2.78-1.93 4.2-2.82 3.09-7.92 5.09-12.4 5.09m-5.29-4.87c0 .45.15.9.54 1.3l.1.08c.52.48 1.34.85 2.35 1.08.72.16 1.5.23 2.3.23 3.87 0 8.4-1.75 10.8-4.37a5.11 5.11 0 001.32-2.37 1.81 1.81 0 00-.6-1.71 5.15 5.15 0 00-2.36-1.08c-.72-.16-1.5-.24-2.3-.24-3.87 0-8.4 1.75-10.8 4.38-.48.53-1.34 1.63-1.35 2.7" fill="#00A28C"/>
    <path d="M502.12 177.06c2.9-3.18 8.9-5.07 13.1-4.14 1 .22 1.82.6 2.34 1.07.57.52.7 1.13.61 1.72-.15.96-.89 1.89-1.33 2.37-2.9 3.17-8.9 5.06-13.09 4.14a5.15 5.15 0 01-2.35-1.08l-.1-.09c-1.32-1.35.12-3.24.82-4" fill="#00A798"/>
    <path d="M506.06 182.45c-.81 0-1.59-.07-2.31-.23a5.15 5.15 0 01-2.35-1.08l-.1-.09c-.39-.4-.54-.84-.54-1.3 0-1.06.87-2.16 1.36-2.7 2.4-2.62 6.92-4.37 10.79-4.37.8 0 1.58.08 2.3.24 1.02.22 1.83.6 2.35 1.07a1.81 1.81 0 01.61 1.72c-.15.96-.89 1.89-1.33 2.37-2.4 2.62-6.92 4.37-10.78 4.37" fill="#006C5A"/>
    <path d="M502.63 178.68c2.9-3.17 8.9-5.07 13.1-4.14 1 .22 1.82.6 2.35 1.08l.1.09c-.16.96-.9 1.89-1.34 2.37-2.9 3.17-8.9 5.06-13.09 4.14a5.15 5.15 0 01-2.35-1.08l-.1-.09a5.1 5.1 0 011.33-2.37" fill="#EAEAE5"/>
    <path d="M508.28 178.39l-2.9 2.16c-.22.17.06.33.36.21l3.85-1.59-1.31-.78M510.61 178.6l2.9-2.16c.22-.17-.06-.33-.36-.2l-3.85 1.58 1.31.78" fill="#334F55"/>
    <path d="M510.64 179.21c-.9.5-2.16.58-2.81.19-.66-.4-.47-1.12.42-1.62.9-.5 2.16-.58 2.82-.19.66.4.46 1.12-.43 1.62" fill="#00A798"/>
    <path d="M510.21 178.96c-.57.32-1.38.37-1.81.12-.42-.26-.3-.72.28-1.05.57-.32 1.39-.37 1.81-.12.43.26.3.72-.28 1.05" fill="#253C40"/>
    <path d="M522.12 176.45c-1.08-1.54-1.8-1.92-1.8-1.92l.83 2.64c.65 1.94-.77 4.5-2.18 5.96-.95.98-2.73 2.15-2.88 1.78-.2-.5.1-3-.42-5.25-.61-2.7-2.22-1.39-2.63.64-.23 1.1-1.43 3.93-1.78 6.08-.41 2.63.13 4.88-.66 6.79-.62 1.48-7.04 9.5-10.74 13.8-3.84-5.12-9.04-11.78-13.51-17.51-6.29-8.06-7.58-9.75-12.62-9.92-4 11.55 2.85 23.17 2.85 23.17s9.45 11.49 15.35 17.53c5.68 5.82 7.68 5.33 10.41 3 2.73-2.32 9.77-12.75 12.78-18.53 3.03-5.8 6.21-10.17 8-13.24 3-5.17 2.11-10.58-1-15.02" fill="#EB9598"/>
    <path d="M472.12 179.07s4.72-.67 7.9 1.89c.73.58 3.2 2.99 5.44 6l12.63 16.86s-3.36 7.28-12.86 10c0 0-8.08-8.44-11.1-12.63-5.36-7.42-4.81-18-2.01-22.12" fill="#334F55"/>
    <path d="M451.81 174.8s-6.46 2.86-7.76 7l-6.07-.77s2.58-4.73 7.71-6.23c3.27-.96 6.13 0 6.13 0" fill="#00A798"/>
    <path d="M445.26 179.6a29.57 29.57 0 00-2.66-.45c-.39-.05-.73-.08-1.01-.08h-.05c-.74 0-1.63.2-2.58.52a13.64 13.64 0 016.73-4.8c1.1-.31 2.14-.42 3.04-.42 1.82 0 3.08.43 3.08.43s-4.25 1.88-6.55 4.8" fill="#00A28C"/>
    <path d="M465.84 187.7s2.52-7.61 6.28-8.63c0 0-2.52-1.77-6.77-2.05 0 0-3.6 2.33-5.8 7.1l6.29 3.59" fill="#00A798"/>
    <path d="M465.84 187.7c-.44-.33-.9-.65-1.41-.96a44.92 44.92 0 00-3.87-2.05l-1-.57c2.2-4.77 5.79-7.1 5.79-7.1 4.25.28 6.77 2.05 6.77 2.05-3.68 1-6.17 8.3-6.28 8.62" fill="#00A28C"/>
    <path d="M441.6 179.07c-3.61-.04-10.7 4.51-11.96 7.32-1.32 2.95-6.23 39.9-3.14 43.63 3.87 4.66 21.65 15.21 29.97 14.92 6.86-.24 13.6-5.44 14.64-7.28 1.7-3.01-.6-44.04-2.8-47.49-3.54-5.59-22.12-11.03-26.72-11.1" fill="#00A798"/>
    <path d="M471.70000000000005 229.81c0-12.9-1.72-37.03-3.38-39.64 1.66 2.61 3.38 26.75 3.38 39.64" fill="#1A2D31"/>
    <path d="M465.84 187.7a20.75 20.75 0 010 0" fill="#008F76"/>
    <path d="M460.59 243.3c-1 0-2.05-.17-2.87-.68-.15-.09-.3-.2-.42-.3-.2-.2-.39-.52-.55-.99v-.01c-1.5-4.31-1.29-19.83-1.34-31.6-.06-9.97 1.07-15.5 3.2-18.49a7.16 7.16 0 012.25-2.08l3.56-2.4c.5.31.98.63 1.42.96a9.8 9.8 0 012.48 2.46c1.66 2.61 3.38 26.75 3.38 39.64 0 2.76-.08 5-.26 6.4a4.56 4.56 0 01-.34 1.46c-.16.29-.46.65-.88 1.06-.14.15-.3.3-.48.46l.15-.14c-.69.63-1.6 1.33-2.68 2.02-.99.62-2.13 1.24-3.36 1.76l-.19.05c-.47.13-1.72.42-3.07.42" fill="#00A28C"/>
    <path d="M456.13 244.95c-3.68 0-9.03-1.95-14.23-4.54 5.2 2.58 10.55 4.53 14.22 4.53h.35a17.7 17.7 0 00-.34 0" fill="#2C464B"/>
    <path d="M426.95 230.52c-.17-.18-.32-.34-.45-.5-.4-.5-.67-1.55-.83-3.02.16 1.47.43 2.53.83 3.01.13.17.28.34.45.51" fill="#C6C7C2"/>
    <path d="M426.46 207.55c1-9.95 2.53-19.7 3.18-21.16-.65 1.46-2.18 11.21-3.18 21.16" fill="#DBDCD6"/>
    <path d="M437.16 180.33a17.65 17.65 0 000 0" fill="#2C464B"/>
    <path d="M438.96 179.59a8.24 8.24 0 012.58-.52h.05-.05c-.74 0-1.63.2-2.58.52M464.42 186.75" fill="#009F83"/>
    <path d="M456.12 244.94c-3.67 0-9.02-1.95-14.22-4.53-6.33-3.15-12.43-7.25-14.95-9.89-.17-.18-.32-.34-.45-.5-.4-.5-.67-1.55-.83-3.02-.44-4.23.02-11.9.79-19.45 1-9.95 2.53-19.7 3.18-21.16.13-.3.33-.6.57-.93 1.34-1.74 4.2-3.83 6.95-5.13.61-.29 1.22-.54 1.8-.74a8.28 8.28 0 012.58-.52h.05c.29 0 .63.03 1.01.08 4.02.47 13.24 3.13 19.46 6.28.84.43 1.63.87 2.36 1.32l-3.55 2.4a7.16 7.16 0 00-2.26 2.08c-2.13 2.98-3.26 8.52-3.2 18.49.05 11.77-.16 27.3 1.34 31.6v.01c.16.47.34.8.55.98.13.12.27.22.42.31.81.52 1.87.68 2.87.68 1.34 0 2.6-.3 3.07-.42l.19-.05a23.5 23.5 0 005.9-3.64 25.15 25.15 0 01-8.12 4.72 17.7 17.7 0 01-5.5 1.03" fill="#00A593"/>
    <path d="M456.75 241.32000000000002c-1.5-4.3-1.3-19.83-1.35-31.6-.04-9.97 1.08-15.5 3.2-18.49-2.12 2.99-3.25 8.52-3.2 18.5.06 11.76-.14 27.28 1.35 31.59m10.46-.25c1.08-.69 2-1.4 2.68-2.02l-.15.14c-.66.59-1.52 1.24-2.53 1.88" fill="#009F83"/>
    <path d="M441.22 179.07c-3.96 0-9.94 3.22-11.95 6.34-2.01 3.12-3.44 12.2-1.97 14.87 1.45 2.62 11.3 7.97 17.99 10.7 5.35 2.18 8.15 1.62 10.04.27 1.2-.86 1.41-3.43 1.5-5.32.24-4.89-.16-7.5 2.78-10.37 2.95-2.86 8.2-5.28 9.08-3.12 0 0 1.19-3.25-4.9-6.38-10.09-5.2-17.7-6.98-22.57-6.99" fill="#00A798"/>
    <path d="M446.9 204.78l3.53 1.34s-.47 10.77-.45 14.98c0 0-.83 1.82-1.6 2.12-.77.3-1.77-1.74-1.94-3.26-.17-1.53.08-11.53.45-15.18" fill="#334F55"/>
    <path d="M446.8 205.61l3.59 1.25c.43.15.81-.1.85-.56l.13-1.74a.95.95 0 00-.59-.91l-3.6-1.3c-.44-.16-.81.09-.85.54l-.13 1.82c-.03.37.24.78.6.9" fill="#253C40"/>
    <path d="M448.15 218.16c.55.22.99.9.99 1.5 0 .61-.44.94-.99.74a1.7 1.7 0 01-.98-1.5c0-.63.44-.96.98-.74" fill="#D4D5CF"/>
    <path d="M432.11 197.05l3.46 1.52s-1.02 10.74-1.22 14.94c0 0-.92 1.77-1.7 2.03-.79.26-1.69-1.82-1.78-3.35-.09-1.53.68-11.52 1.24-15.14" fill="#334F55"/>
    <path d="M431.97 197.88l3.52 1.43c.43.17.82-.06.88-.51l.23-1.73a.95.95 0 00-.54-.95l-3.54-1.48c-.42-.18-.81.05-.87.5l-.23 1.8c-.05.38.2.8.55.94" fill="#253C40"/>
    <path d="M432.68 210.48c.53.25.94.95.9 1.55-.02.61-.48.91-1.02.68a1.7 1.7 0 01-.9-1.55c.03-.62.49-.92 1.02-.68" fill="#D4D5CF"/>
    <path d="M428.3 217.6c-.04 4.3-.12 6.08.07 8.16.14 1.41.4 2.67 2.5 4.16 2.08 1.49 11.09 6.23 13.75 7.5 3.26 1.54 6.81 2.57 6.76.04-.05-2.2 0-6.9 0-8.51 0-1.98-.96-3.27-5-5.14-3.83-1.78-12.36-6.57-14.72-7.65-2-.91-3.35.14-3.36 1.43" fill="#00A798"/>
    <path d="M474.44 148.86s6.8-8.78 1.75-13.53c-6-5.63-13.95-5.51-24.34-1.89-4.86 1.7-11.94 6.62-12.56 16.17-.48 7.36 20.06 12.8 19.59 17.84l15.56-18.59" fill="#132529"/>
    <path d="M476.19 152.7s2.78 4.46 2.4 4.91c-.4.46-2.26.9-2.26.9l-.14-5.82" fill="#E88385"/>
    <path d="M467.69 138.54c2.78 1.54 7.59 4.36 8.56 14.8 1 10.7-1.47 14.35-2.97 15.71-1 .92-6.08 1.13-8.7.23-3.29-1.11-10.36-4.85-13.57-10.45-3.78-6.59-4.36-15.25.3-18.52 6.54-4.59 14.02-3.07 16.38-1.77" fill="#EB9598"/>
    <path d="M465.92 169.61c2.32.41 5.4.28 6.8-.25-3.7.12-6.7-1.91-6.7-1.91l-.1 2.16" fill="#E88385"/>
    <path d="M467.55 151.14s5.75-1.76 6.8-8.55c1.05-6.8-7.44-9.68-7.44-9.68l.64 18.23" fill="#132529"/>
    <path d="M466.65 160.49c-.56.88-2.75 1.72-5.06-.67-2.38-2.46-2.23-6.77 1.09-7.77 3.3-1 4.92 2.84 4.92 2.84 3.1-6.08.91-15.88.91-15.88s-7.24-7.45-18.98-3.9c-6.31 1.92-9.55 8.5-10.25 13.41-.7 4.91-2.59 13.68-.14 16.87 2.5 3.25 11.91 8.1 20.42 7.69 8.51-.41 8.51-2.1 8.51-2.1l-1.3-10.73-.12.24" fill="#132529"/>
    <path d="M442.82 131.12c3.3-4.02 8.53-3.07 12.6-2.4 4.06.66 10.03 1.24 8.97 3.94-1.06 2.7-4.04 5.23-11.01 4.56-6.96-.68-8.3 0-9.86 1.85 0 0-4.58-1.85-.7-7.95" fill="#EB9598"/>
  </g>
</svg>
