<svg width="800" height="500" xmlns="http://www.w3.org/2000/svg">
  <g fill="none" fill-rule="evenodd">
    <path d="M731.99 416.99c-4.48-8.57-22.67-15.45-30.8-17-43.46-8.32-88.98-7.16-133-7.02-47.93.15-93.67 7.84-141.21 11.4-24.73 1.85-50.85-1.47-75.63-2.33-40.81-1.42-81.6-3.09-122.4-5-35.16-1.64-71.66 2.05-102.68 21.49-3.53 2.21-7.1 4.88-8.7 8.85-10.07 24.9 115.52 21.78 131.88 22.2 82.53 2.16 165.12 3.27 247.67 1.03 61.38-1.67 125.34-1.57 186.2-10.25 13.47-1.92 31.79-2.6 43.41-10.55 6.44-4.4 7.37-8.8 5.26-12.82" fill="#EAF5F9"/>
    <path d="M450.95 429.84s-11.96 5-11.95 7.5c0 1.44 16.44-.61 17.43-1.59 1.59-1.55-.64-5.7-.64-5.7l-4.84-.21" fill="#283364"/>
    <path d="M450 422.77l.82 7.68s.42 1.24 2.21 1.38c1.8.14 2.97-1.38 2.97-1.38l-.63-9.61" fill="#F0AB83"/>
    <path d="M469.6 258.84c4.27 17.01 2.69 25.65-3.55 38.49-3.78 43.15-6.43 86.13-11.51 128.2l-5.38.3c-12.22-40.96-23.47-102.2-22.04-158.17l42.49-8.82M496.95 431.84s-11.96 5-11.95 7.5c0 1.44 16.44-.61 17.43-1.59 1.59-1.55-.64-5.7-.64-5.7l-4.84-.21" fill="#283364"/>
    <path d="M496 423.77l.82 7.68s.42 1.24 2.21 1.38c1.8.14 2.97-1.38 2.97-1.38l-.63-9.61" fill="#F0AB83"/>
    <path d="M507.53 257.84c5.23 16.65 4.26 25.35-.95 38.53-.87 43.18-3.78 88.27-5.98 130.47h-5.37c-14.48-39.96-30-101.66-32.23-157.45l44.53-11.55" fill="#283364"/>
    <path d="M445 176.87c-18.25 32-37.89 60.98-49.53 95.97l-3.47-1.86c.89-32.49 11.33-79.73 25.05-109.14" fill="#F0AB83"/>
    <path d="M436.15 142.84s-5.58 1.61-12.13 6.1c-6.16 4.24-10.82 10.53-14 17.43-3.16 6.9-4.9 14.42-6.02 21.97 0 0 7.54 3.89 16.17 5 8.64 1.12 17.83 0 17.83 0" fill="#D9EFF5"/>
    <path d="M421.96 162.76c-1.95 34.6-.46 70.2.41 103.87 0 0 12.06 3.2 41.35 3.2 29.17 0 48.28-8.9 48.28-8.9-5.65-34.6-10.15-77.04-24-105.52 0 0-15.62-16.87-31.03-17.56-3.1-.14-6.2 1-9.14 2.37-2.18 1.01-12.17 3.46-12.17 3.46l-13.7 19.08" fill="#D9EFF5"/>
    <path d="M451.6 282.45c1.9-.21 3.74-.31 5.53-.31 10.3 0 19 3.29 26.75 8.7 11.59 8.1 20.78 21.2 27.96 34.54 3.59 6.67 6.7 13.38 9.4 19.52 2.71 6.14 5.02 11.71 7.09 16.17 5.76 12.45 14.83 22.08 25.79 29.38 16.45 10.95 37.1 16.86 58.32 20.13 21.22 3.27 43.05 3.86 61.86 3.86 11.18 0 21.3-.2 29.52-.2 21.34-.02 38.24 2.63 49.49 6.34 5.61 1.84 9.8 3.97 12.32 5.92 1.26.98 2.09 1.9 2.54 2.6.45.72.53 1.17.53 1.48 0 .25-.04.48-.23.86a7.2 7.2 0 01-2.32 2.39c-1.34.96-3.3 2-5.9 2.98a4.15 4.15 0 002.94 7.76c4.1-1.57 7.33-3.35 9.76-5.6a13.6 13.6 0 002.93-3.79c.72-1.41 1.12-3 1.12-4.6 0-2.14-.72-4.19-1.84-5.94a18.25 18.25 0 00-3.79-4.16c-2.67-2.2-6.1-4.13-10.27-5.86-6.27-2.6-14.24-4.75-23.84-6.27a214.6 214.6 0 00-33.44-2.42c-8.36 0-18.44.22-29.52.22-24.83 0-54.7-1.09-80.67-7.84-12.99-3.37-24.98-8.14-34.91-14.76-9.94-6.64-17.8-15.06-22.86-25.96-2.61-5.63-5.86-13.67-9.93-22.48-6.13-13.23-14.1-28.3-25.14-40.3-5.53-6-11.84-11.23-19.1-14.99a52.87 52.87 0 00-24.56-5.98c-2.1 0-4.25.12-6.44.36a4.15 4.15 0 00.92 8.25" fill="#B7E0ED"/>
    <path d="M469 280.84c0 25.57-19.35 41-35.88 41H406v-82h27.12c16.53 0 35.88 15.43 35.88 41" fill="#EFA73A"/>
    <path d="M455 280.84c0 24.85-14.8 45-33.06 45H392v-90h29.94c18.26 0 33.06 20.15 33.06 45" fill="#E17C2C"/>
    <path d="M454.48 280.84c-.03-4.5-.54-8.84-1.48-12.93 2.66-3.71 5.35-7.4 8.06-11.07 2.62 3.79 4.69 8.19 5.94 13.15-3.77 3.6-7.95 7.85-12.52 10.85" fill="#EA8A2F"/>
    <path d="M444.61 283.84a1.1 1.1 0 01-.47-.1c-.94-.45.12-1.64.12-2.33a4.44 4.44 0 01-2.26 1.23 775.29 775.29 0 0110.54-15.8 63.67 63.67 0 011.46 13.31 25.99 25.99 0 01-4.92 2.7c.04-.38.1-.9.4-1.6-.66.68-1.52 1.88-2.44 2.1a1.17 1.17 0 00-.36-.05c-.35 0-.7.13-1.04.27-.35.13-.69.27-1.03.27" fill="#DE682B"/>
    <path d="M427 280.84c0 24.85-14.55 45-32.5 45s-32.5-20.15-32.5-45 14.55-45 32.5-45 32.5 20.15 32.5 45" fill="#F7C448"/>
    <path d="M397 296.34c0 3.59-2.46 6.5-5.5 6.5s-5.5-2.91-5.5-6.5c0-3.6 2.46-6.5 5.5-6.5s5.5 2.9 5.5 6.5M397 264.34c0 3.59-2.46 6.5-5.5 6.5s-5.5-2.91-5.5-6.5c0-3.6 2.46-6.5 5.5-6.5s5.5 2.9 5.5 6.5" fill="#E17C2C"/>
    <path d="M497.81 187.65s2.04 21.2-7.25 38.84c-7.95 15.08-23.74 34.6-36.5 45.35l-3.06-.76c4.44-17.38 18.45-48.25 19.32-59.82.88-11.57.67-24.97.88-31.42" fill="#F0AB83"/>
    <path d="M458 136.84s17.38 1.2 27.47 9.85c14.4 12.35 16.53 36.52 16.53 42.13-4.35 4.77-13.87 5.02-20.8 5.02-6.93 0-12-3.37-12-3.37l-1.41-26.66" fill="#D9EFF5"/>
    <path d="M451.02 268.84a10.6 10.6 0 00-5.4 2.47c-1.49 1.2-3.31 3.2-3.12 4.1.2.97 2.63-.88 2.92-.5.3.37-4.15 7.3-3.31 7.83.83.52 4.62-5.77 4.62-5.77s-3.68 6.72-2.25 6.87c1.19.12 4.45-6.24 4.45-6.24s-2.76 5.68-1.81 5.9c.94.21 3.5-5.45 3.5-5.45s-2.08 4.84-1.28 4.92c.4.04 2.46-2.36 3.32-5.28.84-2.87 1.83-5.36 1.07-7.6" fill="#F0AB83"/>
    <path d="M421.12 115.87c-.09 1-.13 2.02-.12 3.03.02 2.19.3 4.48 1.53 6.27a6.47 6.47 0 003.55 2.54c1 .28 2.33.16 2.76-.81.15-.34.16-.73.16-1.1a30.24 30.24 0 00-2.1-10.96" fill="#283364"/>
    <path d="M447.38 118.57c-1.52-5.9-6.3-14.18-14.06-12.52-4.87 1.05-9.36 4.36-10.8 9.01-1.71 5.55 1.07 12 4.4 16.53a13.7 13.7 0 004.57 4.24c4.5 2.32 10.57.42 13.62-3.45 3.05-3.87 3.47-9.13 2.27-13.8" fill="#F0AB83"/>
    <path d="M437.88 133.67l2.45 8.87-3.33 1.56s2.54 3.36 7.57 2.64c10.22-1.47 13.43-8.5 13.43-8.5l-5.77-.6-6.39-10.8" fill="#F0AB83"/>
    <path d="M452.84 112.11c-.74-3.99-3.6-7.38-7.09-9.48-6.2-3.75-15.02-4.05-20.54 1.1-3.14 2.94-8.8 13.35-2.04 15.41 2.11.65 4.29-.63 6.12-1.85l5.6-3.72c.67-.45 1.39-.9 2.2-.94 1.31-.05 2.41 1.09 2.88 2.31.48 1.23.51 2.57.82 3.85.22.9.62 1.83 1.4 2.33.79.5 2.03.35 2.43-.48.27-.59.08-1.27.07-1.92-.01-.64.35-1.43 1-1.4.23 0 .44.13.63.27 1.63 1.26 1.1 3.79 1.64 5.77.07.26-.48 4.28-.3 4.48 5.21-1.2 5.7-12.86 5.18-15.73" fill="#283364"/>
    <path d="M445.01 117.3c-.11-.71.58-1.37 1.31-1.45.73-.08 1.44.29 2 .75a4.34 4.34 0 011.68 3.18c.01.96-.38 1.9-.91 2.7a2.93 2.93 0 01-1.47 1.28c-.82.25-1.73-.12-2.31-.73" fill="#F0AB83"/>
    <path d="M261.13 429.84s11.55 1.92 11.87 4.45c.18 1.45-16.2 3.18-17.3 2.32-1.78-1.36.4-6.48.4-6.48l5.03-.3" fill="#283364"/>
    <path d="M260.08 421.9l.92 6.48s-.23 1.1-1.83 1.4c-1.6.31-2.85-.84-2.85-.84l-1.32-8.1" fill="#F0AB83"/>
    <path d="M218.15 261.84c-2 17.32-2.1 25.64 5.65 37.5 3.68 16.76 9.33 33.92 13.6 51.07-1.84 20.49 11.05 53.12 17.98 76.43l5-.86c6.74-41.94 9.23-106.27 3.19-162.59" fill="#283364"/>
    <path fill="#1B5792" d="M254.83 428.84l-.83-3.71 6.9-.3.1 3.43-6.17.58"/>
    <path d="M173.2 429.73s8.5 6.58 7.75 8.9c-.43 1.33-14.27-4.16-14.82-5.37-.88-1.94 2.91-5.42 2.91-5.42l4.16 1.89" fill="#283364"/>
    <path d="M176 423.22l-2.06 6.94s-.65 1-2.05.57c-1.4-.41-1.89-2.14-1.89-2.14l2.43-8.75" fill="#F0AB83"/>
    <path d="M179.43 257.84c-5.35 16.7-4.36 25.44.97 38.67.33 15.83.49 31.85.67 47.87-11.29 28.23-13.08 53.56-11.65 80.44l5.45 2.02s32.4-56.45 38.36-78.76c6.84-25.6 10.72-52.97 11.77-78.65" fill="#283364"/>
    <path fill="#1B5792" d="M170 424.27l.88-3.43 7.12 3.06-1.4 2.94-6.6-2.57"/>
    <path d="M271 129.28l-4.54-3.8v-7.85c0-1.22-1.68-8.53-3.2-8.53-1.52 0-1.87-1.83-2.63-1.08-.76.74.62 9 0 9.61-.62.61-1.43-3.92-2-3.36-.58.57-.63 3.89-.63 5.59 0 1.7 1.4 4.84 2.77 6.18 1.37 1.35 7.47 7.8 7.47 7.8l2.76-4.56" fill="#E48D64"/>
    <path d="M267.79 126.84l-3.64 4.1s14.38 18.84 18.94 25.15c-4.15-1.44-10.12-5.05-13.57-7.29-6.77-4.39-13.55-6.71-18.25-6.71-9.96 0-4.75 32.5 6.81 37.26 21.93 3.26 46.51 1.2 50.28-6.43 5.58-11.3-26.57-37.94-40.57-46.08" fill="#D9EFF5"/>
    <path d="M202.62 150.47C176.61 179.85 177 230.38 177 264.72c0 0 19.1 13.12 48.26 13.12 29.28 0 41.33-7.23 41.33-7.23.87-34.8-5.3-49.8.41-107.36 0 0-9.3-21.49-14.27-21.49-4.96 0-24.38-1.92-24.38-1.92l-25.73 10.63" fill="#D9EFF5"/>
    <path d="M236.23 117.55c.98-6.01 5.23-14.6 13.02-13.64 4.9.61 8.69 4.03 11.43 8.03 2.35 3.42 1.46 6.7-1.88 15.38-1.07 1.78-3.37 4.95-5.15 6.09-4.23 2.7-10.37 1.35-13.71-2.24-3.35-3.58-4.48-8.85-3.7-13.62" fill="#F0AB83"/>
    <path d="M237.42 117.66c1.1-.17 0-.9.5.12.3.66.4.85 1.02 1.06.61.21.63.79 1.14 1.18.8.6 1.47-.22 1.8-.92.63-1.3.6-2.87.46-4.27-.11-1.11-.47-2.86.58-3.63.87-.63 2.78.28 3.66.55 1.38.4 2.74.86 4.1 1.29 3.3 1.03 6.78 1.93 10.25 1.45 3.03-.42 6.16-2.04 7.6-4.92 1.75-3.45-1.73-7.96-5.28-7.97-.92 0-1.8.39-2.71.58-.34.07-.69.11-1.02.01-.77-.23-1.11-1.12-1.55-1.82-1.31-2.1-3.56-2.74-5.87-2.48-2.63.3-4.87 1.6-7.37 2.3-1.32.36-2.47.01-3.79.05a4.02 4.02 0 00-3.37 2.26c-1.07-1.15-3.46 1.67-4.05 2.41-2.62 3.27-3.44 7.97-3.52 12.1-.06 3.61.53 8.86 4.39 10.32 1.63.61 2.66.94 2.72-.6-.71-1.59-.88-4.75-1.03-6.07-.14-1.33.24-2.91 1.44-3.43" fill="#283364"/>
    <path d="M249.87 132.24l-.87 8.92 3 .83s-1.59 4-6.82 4.69c-10.65 1.38-18.18-6.6-18.18-6.6l3.56-.68 5.38-16.56" fill="#F0AB83"/>
    <path d="M238.76 117.16c.06-.72-.75-1.3-1.54-1.32-.8-.01-1.52.4-2.08.91-3.1 2.8.8 9.62 3.86 6.1" fill="#F0AB83"/>
    <path d="M257.8 127.49c-.46 1.1-2.25 1.54-3.23 1.65-4.75.54-8.7-2.64-13.24-3.22-.9-.12-1.93-.2-2.6.44-.64.6-.7 1.6-.71 2.49-.02 1.1-.04 2.2.05 3.3.08.95.26 1.91.73 2.73 2.06 3.54 8.91 4.14 12.38 3.92 1.4-.09 2.86-.37 3.97-1.23 1.56-1.22 1.9-3.36 2.48-5.24.72-2.32.16-4.84.16-4.84" fill="#283364"/>
    <path d="M255.7 130.8a.9.9 0 00-.5-.2c-2.22 0-3.46-.6-5.2-.74a2.2 2.2 0 00-.87.05c-.62.2-.98.9-1.1 1.58-.13.69.18 1.22.75 1.53 1.03.56 2.2.76 3.34.8 1 .03 2.3.12 3.12-.62.47-.42 1.16-1.86.46-2.4" fill="#F0AB83"/>
    <path d="M234.07 257.05c-2.71-.14-5.38-.21-8-.21-13.47 0-25.7 1.87-36.82 5.55-16.68 5.51-30.77 15.1-42.73 28.13-11.97 13.03-21.85 29.48-30.42 48.9-14.64 33.15-31.85 51.03-47.58 60.76a74.3 74.3 0 01-41.3 11.37 4.14 4.14 0 10-.15 8.27l1.77.02c10.49 0 26.7-1.9 44.05-12.63 17.36-10.7 35.68-30.14 50.8-64.46 11.1-25.15 24.24-44.57 40.69-57.62a88.42 88.42 0 0127.48-14.9c10.19-3.36 21.5-5.12 34.22-5.12 2.46 0 4.98.06 7.56.2a4.14 4.14 0 10.43-8.26" fill="#B7E0ED"/>
    <path d="M212.17 265.35c2.08 25.16 22.22 38.75 38.36 37.4l26.47-2.23-6.68-80.68-26.47 2.22c-16.14 1.36-33.76 18.13-31.68 43.3" fill="#EFA73A"/>
    <path d="M225.21 264.76c2.06 24.7 18.3 43.5 36.29 42l29.5-2.47-7.44-89.45-29.5 2.47c-17.98 1.5-30.9 22.74-28.85 47.45" fill="#E17C2C"/>
    <path d="M252.21 261.57c2.04 24.81 18.15 43.7 35.98 42.18 17.83-1.5 30.63-22.84 28.6-47.65-2.04-24.8-18.15-43.69-35.98-42.18-17.83 1.51-30.63 22.85-28.6 47.65" fill="#F7C448"/>
    <path d="M284.03 275.8c.3 3.57 2.99 6.27 6.01 6.02 3.02-.25 5.23-3.36 4.93-6.94-.3-3.58-2.99-6.28-6.01-6.03-3.02.25-5.23 3.36-4.93 6.94M282.03 243.8c.3 3.58 2.99 6.27 6.01 6.02 3.02-.25 5.23-3.36 4.93-6.94-.3-3.58-2.99-6.28-6.01-6.03-3.02.26-5.23 3.36-4.93 6.94" fill="#EFA73A"/>
    <path d="M288.82 248.83l41.02-3.53a4.68 4.68 0 004.14-5.11 4.61 4.61 0 00-4.9-4.34s-37.88 3.27-41.02 3.53c-3.14.28-2.54 9.74.76 9.45M290.82 278.83l41.02-3.53a4.68 4.68 0 004.14-5.11 4.61 4.61 0 00-4.9-4.34s-37.88 3.27-41.02 3.53c-3.14.28-2.54 9.74.76 9.45" fill="#E1E7E8"/>
    <path d="M189.19 187.65s-2.04 21.2 7.25 38.84c7.95 15.08 23.74 34.6 36.5 45.35l3.06-.76c-4.44-17.38-18.45-48.25-19.33-59.82-.87-11.57-.66-24.97-.87-31.42" fill="#F0AB83"/>
    <path d="M227.03 139.84s-18.13 1.06-28.55 9.03c-18.02 13.78-9.24 61.79-9.24 68.88 0 7.09 27.76-3.91 27.76-3.91l.67-49.72" fill="#D9EFF5"/>
    <path d="M233.98 268.84a10.6 10.6 0 015.4 2.47c1.49 1.2 3.31 3.2 3.12 4.1-.2.97-2.63-.88-2.92-.5-.3.37 4.15 7.3 3.31 7.83-.83.52-4.62-5.77-4.62-5.77s3.68 6.72 2.25 6.87c-1.19.12-4.45-6.24-4.45-6.24s2.76 5.68 1.81 5.9c-.94.21-3.5-5.45-3.5-5.45s2.08 4.84 1.28 4.92c-.4.04-2.46-2.36-3.32-5.28-.84-2.87-1.83-5.36-1.07-7.6M576 120.5l2.94-1.94s1.37-6.2 2.12-7.32c.8-1.18 2.32-3.61 4.04-4.74.72-.46 4-2.26 4.83-1.46.4.4-.98 3.99-1.62 4.6-.63.61-2.5 3.37-2.2 4.23.29.86 1.84-1.03 2.2-1.38.37-.36.87-.8 1.04-.34.29.77-1.37 5.09-2.67 6.34-1.3 1.25-3.4 2.44-4.86 2.44l-4.57 3.9" fill="#F0AB83"/>
    <path d="M600 143.57c-16.64-4.37-35.68 2.54-39.93 2.52 5.81-5.84 16.48-18.82 20.17-23.3 0-3.1-1.86-3.95-1.86-3.95s-45.64 23.68-41.06 39.14c4.8 16.14 49.5 8.22 53.08 12.86" fill="#B9E1ED"/>
    <path d="M603 292.55c-.05 1.36-5.95 30.5-6.38 33.63-1.27 9.1 3.52 18.24 3.06 32.36-.57 17.16-7.84 63.3-8.76 65.34-.92 2.05-5.35.17-5.35.17s-12.77-61.88-13.5-87.2c-.59-20.87 2.43-66.01 2.43-66.01" fill="#F0AB83"/>
    <path d="M592.28 424.84s.76 1.47.72 2.13l-.16 3.02-.84.05-.3-1.46s-2.24.36-4.52 1.75c-1.1.67-6.66.61-7.52.2-.96-.47-.68-1.32-.36-1.66.32-.35 6.33-2.78 6.33-2.78" fill="#283364"/>
    <path d="M585.94 423.15c-.5 1.27-5.36 4.08-4.91 4.46.45.37 3.27.39 6.4-.71 2.86-1.01 4.48-2.14 4.57-2.93l-.55-2.13M645 293.74c0 1.36-5.02 30.77-5.36 33.92-.98 9.17 4.08 18.18 4.04 32.36-.04 17.23-5.9 63.72-6.76 65.8-.86 2.08-5.35.33-5.35.33s-14.63-61.67-16.12-87.04c-1.22-20.9.42-66.27.42-66.27" fill="#F0AB83"/>
    <path d="M636.2 425.84s.81 1.61.8 2.35l-.06 3.38-.85.09-.34-1.63s-2.24.47-4.5 2.1c-1.08.78-6.68.9-7.55.45-.98-.5-.73-1.44-.42-1.84.3-.4 6.28-3.3 6.28-3.3" fill="#283364"/>
    <path d="M630.86 426.26c-.47 1.23-5.3 4.05-4.83 4.4.46.34 3.32.27 6.45-.88 2.85-1.05 4.45-2.17 4.52-2.93l-.61-2.01" fill="#F0AB83"/>
    <path d="M628.6 219.03s13.08 8.56 18.06 29.1c6.72 27.69-3.18 81.9-3.18 81.9s-20.48 6-42.77 5.8c-22.28-.19-35.48-7.7-35.52-9.06-.04-1.34-3.32-42.4 1.2-70.25 5.08-31.26 18.03-39.68 18.03-39.68" fill="#2C5092"/>
    <path d="M611.48 142.38c2.05-.76 7.35 1.1 17.3 4.89 4.36 4.7 6.28 15.01 7.22 24.14-2.58 22.21-5.46 34.34-4.07 41.84.33 1.77 1.96 3.12 1.7 5.6-.54 5.12-8.96 5.9-24.95 7.7-16 1.8-30.39-5.42-29.52-7.68.86-2.26 3.59-4.24 4.02-5.74.43-1.5 1.74-20.52 0-22.78-1.72-2.26-6.18-8.76-6.18-15.09 0-8.9 4.92-12.9 8.15-17.8 5.37-8.16 9.45-13.27 14.65-14.55 8.33-2.05 11.68-.53 11.68-.53" fill="#B9E1ED"/>
    <path d="M608.74 131.32c4.5-4.31 5.22-12.51 3.17-18.05-2.3-6.23-11.5-10.9-17.84-7-12.44 7.67.18 38.95 14.67 25.05" fill="#F0AB83"/>
    <path d="M600 131.01l.22 13.6s-.5 3.03 4.68 3.22c7.1.26 7.1-4.98 7.1-4.98l-4.1-14.01" fill="#F0AB83"/>
    <path d="M605.04 101.59a3.95 3.95 0 00-4.46-.11c-.91.54-1.55 1.44-2.52 1.87-.68.31-1.5.36-2.22.56-3.4.93-6.61 3.54-8.04 6.8-1.44 3.27-.98 8.6 1.71 10.94-.11-2.54.64-6.18 1.98-8.32.7-1.13 1.82-2.24 3.13-2.09 1.47.17 2.27 1.75 3.33 2.8 1.61 1.57 3.92 1.9 6.05 2.21 2.4.37 4.26.8 5.44 3.17.52 1.03.8 2.17 1.07 3.3.33 1.33.66 2.67.74 4.04.05.86 0 1.73.27 2.54.53 1.62 2.16 2.6 3.77 3.15 1.23.42 3.31.8 4.09-.6a14.4 14.4 0 001.42-4.15c.74-4.42-.65-9-3.01-12.8-2.6-4.15-6.3-6.94-9.63-10.4-1.02-1.06-2.03-2.19-3.12-2.91" fill="#283364"/>
    <path d="M608 121.9c.28-.93 1.1-1.88 2.23-2.03 3.66-.47 3.1 4.19 1.69 5.82-.83.96-2.96 2.2-3.92-.44M644.34 224.84l-1.53 3.54s-5.78 1.48-6.4 2.58c-.96 1.74-2.41 4.15-2.41 5.51 0 1.37.12 7.37 1.7 7.37 1 0 3.32-4.9 3.8-5.58 1.14-1.61 5.7-2.79 5.7-7.04l2.8-6.38" fill="#F0AB83"/>
    <path d="M611 143.75s14.17-3.54 25.25 3.33c8.6 5.33 30.75 31.9 30.75 47.1 0 10.26-20.71 35.66-20.71 35.66l-3.44-2.42s2-19.96 8.02-30.96c-4.44-4.37-21.75-17.92-26.1-22.2" fill="#B9E1ED"/>
    <path d="M209 119.06l-17.04-13.75s7.66-28.32-2.48-38.21c-5.4-5.26-12.22-8.86-19.27-11.53-15.68-5.96-34.4-7.31-48.38 1.97-10.3 6.85-16.57 18.58-19.38 30.64-2.47 10.62-2.26 22.69 4.37 31.33 2.98 3.89 7.06 6.81 11.4 9.08 13.47 7.07 49.14 9.74 64.6-.64 4.3-2.87 3.92-6.75 5.71-12.82l20.47 3.93" fill="#EAF5F9"/>
    <text font-family="MarkerFelt-Thin, Marker Felt" font-size="25" font-weight="300" letter-spacing="-.04" fill="#95B8D7">
      <tspan x="118" y="100">Oops!</tspan>
    </text>
  </g>
</svg>
