<svg width="290" height="69" xmlns="http://www.w3.org/2000/svg"><g fill="white" fill-rule="evenodd"><g fill-rule="nonzero"><path d="M45.4 50.8l9.3-1.8a2068.3 2068.3 0 01-7-37.7l-9.5-.8a7142.1 7142.1 0 00-10 24.8h-.3A1498.5 1498.5 0 0118 10.5l-9.4 1A1096.5 1096.5 0 01.7 49l9.1 1.7A633.1 633.1 0 0115 24.4h.1l3.4 8c2 4.4 3.8 9 5.6 13.8h7.3a438 438 0 018.9-21.8h.2l4.9 26.4zm26 12.8a4557.5 4557.5 0 0118-41.5L81 19.8a657.4 657.4 0 01-7.6 19.4h-.1l-2.8-7c-1.6-3.9-3.2-8-4.8-12.5l-9 2.5a1294.1 1294.1 0 0111.7 27.4l-5.3 12 8.3 2zM114.4 66.5c2.6 0 5-.3 6.9-1 2-.6 3.8-1.6 5.5-3 1.5-1.1 2.7-2.7 3.5-4.5 1-1.9 1.3-4 1.3-6.6a665.7 665.7 0 000-8.1v-2.1a416.6 416.6 0 01.1-13h-9.2a515.6 515.6 0 000 13.9v.6a701.7 701.7 0 010 8c0 2.8-.7 5-2 6.3-1.4 1.3-3.5 2-6.1 2-2.5 0-4.5-.7-6-2-1.5-1.5-2.2-3.5-2.2-6.2a673.2 673.2 0 000-16.7v-6H97a580.7 580.7 0 000 19.2v4c0 2.5.5 4.7 1.3 6.5.8 1.8 2 3.4 3.5 4.7 1.4 1.2 3.2 2.2 5.2 3 2 .6 4.4 1 7.4 1zm32.4-.4c2.4 0 4.8-.2 7.2-.6 2.4-.4 4.4-1 6-1.9 1.8-1 3.3-2.2 4.4-3.7 1-1.5 1.6-3.2 1.6-5.3 0-1.8-.5-3.4-1.4-4.8-.8-1.3-2.2-2.6-4-3.6a39.6 39.6 0 00-6.3-3.2 9.6 9.6 0 01-2.7-2 3 3 0 01-.8-1.9c0-.7.2-1.3.7-1.9.5-.5 1.1-.9 2-1.1a16.3 16.3 0 015.7-1 46.7 46.7 0 016 .4l-1-7.6H162l-4.2-.1c-3.5 0-6.5.3-9 1-2.5.8-4.5 1.8-6 3.1-1 .9-1.7 1.8-2.3 3a9 9 0 00.3 8.4c.8 1.4 2 2.6 4 3.7l3.3 1.8 3.2 1.5a9 9 0 012.7 1.9c.5.6.8 1.3.8 2.2a3 3 0 01-.7 2c-.5.6-1.3 1-2.5 1.4a29.7 29.7 0 01-10.5.7c-1.5 0-2.4-.1-2.6-.2l.9 7.6a96.3 96.3 0 007.4.2zm26.7-.6a794.4 794.4 0 0013 0 1474.5 1474.5 0 0114.2 0h.3v-6.9a409.8 409.8 0 00-9.1 0h-.7a1066.5 1066.5 0 01-8.9 0 307.6 307.6 0 010-8.1v-1.3a647.5 647.5 0 006.8 0h1.6a968.4 968.4 0 019.7 0v-5.5a611.7 611.7 0 00-10.7 0h-.7a713.8 713.8 0 01-6.7 0 350.6 350.6 0 010-8.6 737.2 737.2 0 007.3 0h1a728.9 728.9 0 0110 0v-6.9a3597.7 3597.7 0 00-26.2 0h-1a1952.3 1952.3 0 010 37.3zM53.3 61.5v6.3H.8v-6.3z"/></g><path d="M264 .3c11.1 0 21.7 7.4 24.8 19.3.2.8 1 5.1.6 9.1-.6 5.8-2 8.4-3.7 12.7-.8 2.1-2.3 4.4-3 6.5-.9 3.4-2 7.5-1.7 10.8.3 4.7.4 8.2.4 10.3h-29.2c.3-3 .2-5.2-.5-6.6-1.2-2.4-8.3 1.6-12.2-3.1-2.2-2.7-1-9.8-1.6-11.4-.6-1.4-3.5-1-4.8-2.3-1.1-1.2-1-1.6-1.1-2.3 0-4 3-6.8 3.6-8.7 2.9-9 2.9-17.4 8.5-24.5A23.6 23.6 0 01263.9.3zm9.4 9.1c-3.8-1-6.2-.3-8.1 2.2-2 2.4-2.7 4.4-2.7 7 0 1.1-1.5-2-4.3-3.4-2.2-1.1-5.7-.5-6.7 0s-2.8 1.4-3.4 2.9c-.5 1.1-1.2 2.9-1.2 4.1 0 1.5-.1 8.2 8.1 12 5.4 2.5 7.6 2.5 9.4 3.2 8.7 3.2 7.8 4.8 7.8 3.8 0-.6 3.6-10.7 5-12.5 2-2.7 3-11.2 1.5-14.1-1-2.4-3.2-4.6-5.4-5.2z"/></g></svg>