<svg width="800" height="500" xmlns="http://www.w3.org/2000/svg">
  <g fill="none" fill-rule="evenodd">
    <path d="M387.46 475.63c-69.5 0-139.13-1.2-208.63-2.3-23.75-.38-49.36.38-72.39-5.16-25.6-6.18-30.47-25.3-2.3-34.8 11.86-4 25.06-4.5 36.98-8.37 1.89-.61 3.85-1.4 4.87-2.85 2-2.86-.85-6.6-4.45-7.96-3.6-1.37-7.73-1.29-11.57-2.1-13.55-2.84-16.37-18.9-7.82-26.95 11.2-10.55 28-12.31 44.67-12.31 4.16 0 8.31.1 12.37.22 4.05.1 8.01.22 11.79.22h.7c12.75-.05 25.52-.24 38.28-.5 21.81-.43 43.63-1.04 65.43-1.4 58.58-.97 117.16-1.67 175.75-1.67 14.69 0 29.37.04 44.06.14 18.03.11 36.07.3 54.09.85l8.34 60.25h8.76l1.12-59.57c8.19.38 16.36.84 24.53 1.43 17.4 1.25 64.1-.18 73.05 16.52.9 1.68.9 3.43-.45 5.06-3.35 4.06-14.36 6.8-17.74 10.85-4.86 5.82 6.63 9.67 20.71 10.27 11.77.5 28.47 3.77 21.83 9.26-2.46 2.03-8.46 3.18-14.33 3.8-5.85.62-12.07.9-17.47 1.93-7 1.34-12.04 3.96-13.1 6.81-2.93 7.83 17.27 9.92 32.75 12.3 8.84 1.38 17.8 3.99 17.77 7.49-.06 5.03-17.06 7.27-30.63 8.13-29.68 1.88-59.31 3.9-89.11 5.5-69.07 3.7-138.4 4.9-207.86 4.9" fill="#79AFD4"/>
    <path fill="#3B455A" d="M179.95 430.64l5.42 5.22 9.61 6.88-.2-4.4-4.39-6.04-9.61-6.88-.83 5.22"/>
    <path fill="#305399" d="M188.6 270.44l-2.52 15.85 10.22 72.07-16.63 70.51 10.03 3.72 37.76-82.82 3.27-25.79-1.44-53.88-40.7.34"/>
    <path fill="#305399" d="M256.4 269.8l6.35 67.18-5.48 87.75-9.74.81-12.79-79.49-19.97-78.89 41.63 2.64"/>
    <path fill="#3B455A" d="M253.72 429.64l4.73 4.4 4.83-5.7-5.7-4.84-10.54.88 6.68 5.26"/>
    <path d="M211.93 188.47l-8.55 3.23a45.62 45.62 0 01-2.79-6.73c-2.66.33-5.86.43-7.43-1.74a7.57 7.57 0 01-.98-2.32l-2.98-10.03a9.21 9.21 0 01-.57-3.55c.23-2.1 1.85-3.79 3.56-5.04 4.36-3.19 10.07-4.73 15.32-3.44 1.4.35 2.78.9 3.81 1.9 1.6 1.55 2.12 3.86 2.57 6.03l1.23 6.01c.48 2.3.85 5-.73 6.75-.85.92-2.14 1.41-2.78 2.48-1.15 1.88.3 4.25.32 6.45" fill="#EAC5B0"/>
    <path d="M224.25 144.12c.08-1 .22-2 .44-2.97.48-2.11 1.34-4.15 1.5-6.31.16-2.16-.62-4.6-2.57-5.56-1.25-.62-2.73-.5-4.11-.26-4.54.8-8.85 2.83-12.35 5.83-3.33 2.86-5.95 6.16-10.5 6.62-4.27.44-6.6 2.28-9.7 5.49-3.36 3.47-8.66 6.53-11.33 10.4a12.15 12.15 0 00-1.91 5.53 18.3 18.3 0 008.55 17.37c1.3.8 2.71 1.4 4.14 1.96 2.96 1.13 6.53 2.57 9.56 2.03-1.1-2.4-6.96-8.8-6.1-11.63 1.36-4.51 8.41-6.67 12.37-7.68 4.31-1.1 9.16-.07 13.32-1.4 3-.95 5.87-4.07 7.53-6.68 2.04-3.23.84-9.08 1.16-12.74" fill="#3B455A"/>
    <path d="M176.33 305.05c.58 6.13 1.74 14.35 4.12 14.38.45 0 .85-.27 1.2-.52 3.81-2.7 6.32-6.15 10.07-8.77 3.93-2.73 8.6-4.49 13.2-5.88 6.9-2.1 14-3.75 21.15-4.71 7.78-1.05 23.12-1.3 23.12-1.3 4.29-1.25 8.3-3.25 12.32-5.14 6.93-3.24 14.03-6.22 20.4-10.38 2.04-1.33 7.65-5.23 5.18-7.86-1.88-2-7.55-2.82-10.19-3.87-8.59-3.43-16.27-8.5-21.8-16.05-7.56-10.35-13-23.85-17.16-35.94-.77-2.24-1.48-4.5-2.16-6.76-.4-1.28-.97-6.25-2.03-6.97-10.71-7.22-14.44-14.21-26.01-11-26.41 7.31-24.37 8.28-28.82 22.16-1.8 5.59-3.4 20.2-3.65 26-.31 7.04-.55 25.85-.54 32.88.01 7.85.3 15.7 1.09 23.51.09.87.23 3.31.51 6.22" fill="#D7E8F4"/>
    <path fill="#587BC9" d="M223.79 178.65l14.66 18.24-45.92 19.3-5.87-9.06 37.13-28.48"/>
    <path fill="#587BC9" d="M195.94 188.41l11.48 1.18 19.61 9.53 18.53 75.62-31.5 2.31-6.98-66.1-18.28-6.25-5.49-4.2 12.63-12.09"/>
    <path d="M522.65 105.01c-22.9-24.86-59.3-30.58-87.48-14.77l-.16.07c-8.45 5.8-14.55 14.62-15.29 26.42-.16 2.59-4 2.4-3.83-.2.78-12.65 7-22.24 15.76-28.7-19.1-33.12-57.5-50.69-92.45-39.42-34.39 11.08-56.16 46.15-54.33 84.07 3.12.04 6.26.39 9.38 1.08 12.43 2.75 23.29 10.01 32.09 19.7 1.74 1.92-1 4.67-2.74 2.76a65.58 65.58 0 00-9.5-8.63c-12.7-9.4-28.54-13.04-43.32-8.79-14.93 4.3-29.17 16.75-36.56 30.9a70.1 70.1 0 00-4.53 53.87c5.79 17.63 18.56 32.32 34.77 39.9 15.02 7.02 30.82 8.09 46.6 5.01 10.35-2.02 20.65-4.3 30.95-6.59a7758.64 7758.64 0 0088.13-20.25c12.89-3.02 25.78-6.06 38.66-9.11 10.59-2.5 21.94-4.25 31.86-8.86 32.44-15.09 50.36-54.47 38.08-91.15a76.06 76.06 0 00-16.09-27.3" fill="#F1F1F1"/>
    <path d="M296.57 270.09c-4.22 0-8.4-.3-12.55-.95 3.56.52 7.13.77 10.73.77 5.42 0 10.86-.57 16.31-1.63 10.35-2.02 20.66-4.3 30.95-6.58a7758.64 7758.64 0 0088.13-20.26c12.82-3 25.63-6.03 38.45-9.06l-.04.35-29.21 6.97-10.83 2.57a7669.27 7669.27 0 01-86.5 19.88c-10.3 2.29-20.6 4.57-30.95 6.59-1.9.36-3.78.67-5.68.92a91.8 91.8 0 01-8.8.43" fill="#70A3C5"/>
    <path d="M294.75 269.91c-3.6 0-7.17-.25-10.73-.77a75.22 75.22 0 01-13.78-3.48c.12-.13.2-.33.36-.36 19.59-3.44 34.7-6.07 50.55-10.08 49.47-12.45 101.62-25.92 149.55-43.38l-2.11 20.54c-12.82 3.03-25.63 6.05-38.45 9.06A7758.64 7758.64 0 01342 261.69c-10.3 2.3-20.6 4.57-30.95 6.6a85.21 85.21 0 01-16.31 1.62" fill="#E5E5E5"/>
    <path d="M533.18 193.18l-.24-.02a75.97 75.97 0 009.7-36.8 75.93 75.93 0 01-9.46 36.82" fill="#70A3C5"/>
    <path d="M532.94 193.16l-23.85-2.46c4.36-3.2 8.62-6.55 12.74-10.01 14.86-12.46 19.58-31.27 16.26-49.77a74.86 74.86 0 014.54 25.43 75.97 75.97 0 01-9.69 36.8" fill="#E5E5E5"/>
    <path fill="#3B455A" d="M629.08 426.52l.5 4.93-8.95 6.12-5.22-4.32 4.23-5.52 8.95-6.13.5 4.92"/>
    <path fill="#587BC9" d="M629 276l1.5 14.95-13.45 51.36 12.37 82.56-9.17 3.15-24.1-80.61-3.81-23.45.19-49.64L629 276"/>
    <path fill="#587BC9" d="M558.48 292.6l19.15 138.34h8.76l1.67-88.66 16.01-62.21-45.59 12.53"/>
    <path fill="#3B455A" d="M586.35 432.38l-.01 2.44-3.23 4.96-10.99-4.97 4.75-4.97 9.47.01v2.53"/>
    <path d="M580.4 191.46c6.62-5.47 22.56-2.3 30.94-2.3 1.73 18.4 5.09 36.78 9.2 54.78 3.55 15.55 10.33 30.72 13.35 46.25 2.68 13.86 8.55 23.82 19.6 33.31 1.73 1.49 3.7 3.4 3.2 5.62-.32 1.33-1.48 2.28-2.6 3.05-11.17 7.64-25.5 8.42-39.02 8.63-10.27.17-20.54.15-30.8-.04-13.38-.26-28.25-1.85-39.65-9.6-.72-.48-1.49-1.11-1.54-1.98-.05-.75.45-1.4.9-2 7.97-11 7.06-29.2 8.63-42.09 1.76-14.54 3.54-29.12 7.02-43.35a184.14 184.14 0 018.9-27.05c2.79-6.67 6.11-17.6 11.33-22.75.18-.17.36-.33.55-.48" fill="#D7E8F4"/>
    <path d="M572.93 131.54a34.93 34.93 0 00-16.15-14.27c-4.58-2-9.36-2.49-13.98-2.96l-13.44-1.38c-6.25-.65-11.86-.03-17.16 1.89a34.39 34.39 0 00-16.94 13.77 35.07 35.07 0 00-5.24 15.35l-7.3 71.03 10.67 1.1 7.34-71.39c.29-2.79.8-4.66 2-7.42.93-2.14 2.99-5.15 4.68-6.84a22.99 22.99 0 017.26-5.02 23.43 23.43 0 0110.52-2.06c.49.01 1 .05 1.64.12l18.81 1.93c2.85.3 4.74.8 7.5 2 2.15.94 5.15 3 6.84 4.69a22.98 22.98 0 015.03 7.25 23.44 23.44 0 012.06 10.53c-.02.48-.06 1-.12 1.62l-7.35 71.4 10.68 1.1 7.34-71.39a34.1 34.1 0 00-4.69-21.05" fill="#305399"/>
    <path d="M526.4 242.64l-1.91 18.65c-.14 1.39-1.87 2.34-3.86 2.14h-.08c-1.99-.21-3.49-1.5-3.34-2.89l1.91-18.65a14.44 14.44 0 117.29.75m-53.16-55.62l-7.96 77.45a19.07 19.07 0 0017.01 20.92l71.3 7.33a19.07 19.07 0 0020.92-17.02l7.97-77.45-109.24-11.23" fill="#305399"/>
    <path d="M555.58 292.65c-.66 0-1.31-.03-1.98-.1l-71.3-7.33a19.12 19.12 0 01-3.17-.6c.07 0 1.78.2 4.71.4 2.93.2 7.08.4 12.03.4 25.9 0 73.61-5.48 82.27-45.07l-3.62 35.19a19.07 19.07 0 01-18.94 17.11" fill="#2B4B89"/>
    <path fill="#EAC5B0" d="M268.34 188.32l2.97-7.9 4.13-3.1 1.37 1.04-1.38 3.09 5.85-4.8 2.75 2.75-3.45 8.93-7.19 4.65-5.05-4.66"/>
    <path fill="#D7E8F4" d="M184.85 203.5l57.17 13.25 24.34-30.37 9.95 9.06-25.1 40.12-67.3-2.63-4.96-15.85 5.9-13.58"/>
    <path fill="#F7F7F7" d="M614.53 195.44l-41.23 28.37-25.34-15.88-5.44 8.15 29.86 26.29 41.22-20.34.93-26.59"/>
    <path d="M600 168.41c-5.4.78-9.7 3-10.94 8.3-2.51-3-3.46-7.26-2.46-11.05 1-3.79 3.93-7.02 7.61-8.39a14.25 14.25 0 015.79 9.1v2.04" fill="#3B455A"/>
    <path d="M594.16 193.08c-3.97-1.87-6.48-6.07-7.2-10.39-.72-4.32.13-8.76 1.47-12.94 4.46-13.88 21.92-9.22 25.59 2.93 3.2 10.58-8.34 25.83-19.86 20.4" fill="#EAC5B0"/>
    <path d="M598.91 290.13c-2.51-1.92-2.22-5.69-2.87-8.79-.65-3.1-4.55-6.18-6.61-3.78-4.38-1.8-6.68-6.88-6.66-11.62.02-4.73 1.89-9.24 3.73-13.6 4.07-9.68 7.88-19.51 12.23-29.06 4.11-9.03 5.75-18.97 7.42-28.58.83-4.81-.3-9.8-2.33-14.26-2.02-4.45-4.9-8.45-7.71-12.44-1.17-1.66-2.38-3.43-2.55-5.46-.19-2.24.97-4.44 2.62-5.96a10.58 10.58 0 018.7-3c11.78 1.18 19.75 9.23 21.66 21.12 1.61 10.05-1 20.22-2.88 30.23-2.83 15.04-1.9 32.95 5.44 46.55 3 5.54 6.32 11.14 7.04 17.4.71 6.26-2.03 13.44-7.93 15.62-2.31.85-4.93.9-7.01 2.2a4.1 4.1 0 00-1.11 6.12c-3.12 4.14-5.57.54-8.71-.72-3.83-1.53-9.24.49-12.46-1.97" fill="#3B455A"/>
    <path fill="#EAC5B0" d="M546.74 209.76l-1.95-5-9.05-1.82-1.36 3.62 6.33 5.44 3.76 1.16 2.27-3.4"/>
  </g>
</svg>
