<?xml version="1.0" encoding="utf-8"?>
<!-- Generator: Adobe Illustrator 19.2.1, SVG Export Plug-In . SVG Version: 6.00 Build 0)  -->
<svg version="1.1" id="layer" xmlns="http://www.w3.org/2000/svg" xmlns:xlink="http://www.w3.org/1999/xlink" x="0px" y="0px"
	 viewBox="0 0 652 652" style="enable-background:new 0 0 652 652;" xml:space="preserve">
<style type="text/css">
	.st0{fill:#ffffff;}
	.st1{fill:#E82C2E;}
	.st2{fill:#003660;}
	.st3{fill:#FFFFFF;}
	.st4{fill:#FFCB05;}
</style>
<path class="st0" d="M325.8,193.2v5h18.7v107.3c0.2,10.4-4.7,20.3-13,26.6c-7.4,6.1-16.7,9.4-26.3,9.4c-7.4,0.3-14.6-2.2-20.2-6.9
	c-5.8-5-8.7-12.3-8.7-21.5V198.2h21.3v-5h-70.6v5h15.9v107.3c-0.3,12.9,6,25.1,16.8,32.3c10,7,22.3,10.6,36.6,10.6
	c14.3,0,26.5-3.6,36.4-10.6c10.8-7.2,17.1-19.3,16.8-32.3V198.2h15.4v-5H325.8z"/>
<path class="st0" d="M474.3,199.2c-1.7,0-8.2-3-12.1-4.3c-6.6-2.3-13.5-3.5-20.4-3.5c-1.6,0-3.2,0-4.8,0.2
	c-17.5,1.2-32.8,9.4-45.5,24.4c-12.9,15-19.8,34.2-19.7,54c-0.2,19.5,6.5,38.5,19,53.6c12.3,15.3,27.6,23.5,45.3,24.8
	c0,0,2.8,0.2,4.3,0.2c9-0.4,18-2,26.6-4.7c3.8-1.3,10.4-4.3,12.1-4.3c3.4,0,6.2,1,6.2,6.2c0,0.3,0,0.5,0,0.7h4.2v-50h-5.2
	c0,0,0,2.5,0,3.5c-0.2,11.5-2.7,22.8-9.4,31.2c-7.5,9.4-19.7,12.9-34.8,13.1c-1.2,0-3.4-0.2-3.4-0.2c-10.2-0.7-17-5.2-20.9-12
	c-3.1-5.1-5.2-15-6.3-29.2c-0.7-9-1.1-20.2-1.1-32.9c0-9.9,0.3-18.8,0.8-26.6c1-16.5,2.8-27.6,5.3-33c4.1-8.3,11.6-13.5,22.8-14.5
	c1.5-0.1,3.1-0.2,4.8-0.2c10.2,0,19.4,2.8,27.7,12.4c7.4,8.6,9.9,20.3,9.9,32.6v1.6h5.2V193h-4.3
	C480.6,198.8,477.8,199.2,474.3,199.2"/>
<path class="st0" d="M606,199.2c-1.7,0-8.2-3-12.1-4.3c-6.6-2.3-13.5-3.5-20.4-3.5c-1.6,0-3.2,0-4.8,0.2
	c-17.5,1.2-32.8,9.4-45.5,24.4c-12.8,15-19.8,34.2-19.7,54c-0.2,19.5,6.5,38.5,18.9,53.6c12.3,15.3,27.6,23.5,45.3,24.8
	c0,0,2.8,0.2,4.3,0.2c9-0.4,18-2,26.6-4.7c3.8-1.3,10.4-4.3,12.1-4.3c3.4,0,6.2,1,6.2,6.2c0,0.2,0,0.5,0,0.7h4.2v-50H616
	c0,0,0,2.5,0,3.5c-0.2,11.5-2.7,22.8-9.4,31.2c-7.7,9.4-19.8,12.9-34.8,13.1c-1.2,0-3.4-0.2-3.4-0.2c-10.2-0.7-17-5.2-20.9-12
	c-3.1-5.1-5.2-15-6.3-29.2c-0.7-9-1.1-20.2-1.1-32.9c0-9.9,0.3-18.8,0.8-26.6c1-16.5,2.8-27.6,5.3-33c4.1-8.3,11.6-13.5,22.8-14.5
	c1.5-0.1,3.1-0.2,4.8-0.2c10.2,0,19.4,2.8,27.7,12.4c7.4,8.6,9.9,20.3,9.9,32.6v1.6h5.2V193h-4.3C612.2,198.8,609.4,199.2,606,199.2
	"/>
<path class="st0" d="M37.4,458.1c-8.1,0-14.7-6.6-14.6-14.8c0-8.1,6.6-14.7,14.8-14.6c4.2-0.1,8.2,1.5,11.1,4.5l-2.2,2.4
	c-2.3-2.5-5.6-3.9-8.9-3.9c-6.5,0-11.8,5.3-11.8,11.8s5.3,11.8,11.8,11.8c3.5,0,6.8-1.5,9.2-4.1l2.1,2.1
	C45.9,456.4,41.7,458.2,37.4,458.1"/>
<path class="st0" d="M62.8,458.1c-6,0-10.9-4.9-10.9-10.9c0-6,4.9-10.9,10.9-10.9s10.9,4.9,10.9,10.9
	C73.7,453.2,68.8,458.1,62.8,458.1 M62.8,438.9c-4.3,0-7.7,3.5-7.7,7.7c0,0.1,0,0.3,0,0.4c-0.2,4.4,3.2,8,7.6,8.2c0.1,0,0.1,0,0.2,0
	c4.3,0,7.8-3.4,7.8-7.7c0-0.1,0-0.3,0-0.4c0.2-4.4-3.2-8.1-7.6-8.2C63,438.9,62.9,438.9,62.8,438.9"/>
<rect x="79.1" y="428" class="st0" width="3.1" height="29.6"/>
<path class="st0" d="M90,440.6l-0.9-2.6c2.4-1.2,5-1.8,7.6-1.8c5.7,0,8.9,2.9,8.9,8.4v12.8h-3v-3.2c-1.8,2.4-4.6,3.7-7.6,3.6
	c-3.9,0-7.8-2.2-7.8-6.6s3.6-6.8,9-6.8c2.2,0,4.4,0.3,6.5,0.9v-0.7c0-3.8-2.3-5.7-6.3-5.7C94.2,439,92,439.6,90,440.6 M90.4,451.3
	c0,2.7,2.4,4.2,5.3,4.2c3.9,0,7-2.4,7-5.7v-2c-2-0.6-4.1-0.9-6.2-0.9C92.6,446.9,90.4,448.6,90.4,451.3 M95.4,433.4l3.9-5.9l3.3,1.5
	l-4.7,4.5L95.4,433.4z"/>
<path class="st0" d="M111.7,428.6h3.6v3.5h-3.6V428.6z M111.8,436.6h3.1v21h-3.1L111.8,436.6z"/>
<path class="st0" d="M128.3,458c-3.2-0.1-6.2-1.1-8.7-3.1l1.6-2.2c2.1,1.6,4.6,2.6,7.2,2.7c2.5,0,4.3-1.3,4.3-3.3l0,0
	c0-2.1-2.5-2.9-5.2-3.6c-3.3-0.9-6.9-2.1-6.9-5.9l0,0c0-3.6,3-6,7.1-6c2.7,0,5.3,0.7,7.6,2l-1.4,2.4c-1.8-1.2-4-1.9-6.2-2
	c-2.5,0-4.1,1.3-4.1,3l0,0c0,2,2.6,2.8,5.4,3.6c3.3,1,6.7,2.2,6.7,6l0,0c0,4-3.3,6.3-7.5,6.3"/>
<path class="st0" d="M145.2,451.6c-0.2,1.7,1,3.3,2.7,3.5c0.3,0,0.6,0,1,0c1.1,0,2.1-0.2,3-0.7v2.7c-1.2,0.6-2.5,0.9-3.8,0.9
	c-3,0.3-5.6-1.9-5.9-4.9c0-0.3,0-0.7,0-1v-12.7h-3v-2.8h2.9v-6.3h3.1v6.3h6.6v2.8h-6.7V451.6z"/>
<path class="st0" d="M165,455.4c2.5,0,5-1.1,6.6-3l2,1.8c-2.1,2.6-5.3,4-8.6,3.9c-5.8,0-10.5-4.6-10.5-10.4c0-0.2,0-0.4,0-0.6
	c0-6.1,4.3-11,10.1-11c6.2,0,9.8,5,9.8,11.1c0,0.3,0,0.7,0,1h-16.6C157.8,452.3,161.1,455.5,165,455.4 M171.2,446
	c-0.3-3.8-2.5-7.2-6.7-7.2c-3.6,0-6.4,3-6.8,7.2H171.2z"/>
<path class="st0" d="M194.5,457.6h-3.1v-21h3.1v3.6c1.4-2.6,4.2-4.2,7.2-4.1c5.1,0,8,3.4,8,8.4v13h-3.1v-12.3c0-3.9-2.1-6.3-5.8-6.3
	c-3.4-0.1-6.2,2.6-6.3,6c0,0.2,0,0.4,0,0.6L194.5,457.6z"/>
<path class="st0" d="M217,440.6l-0.9-2.6c2.4-1.2,5-1.8,7.6-1.8c5.7,0,8.9,2.9,8.9,8.4v12.8h-3v-3.2c-1.8,2.4-4.6,3.7-7.6,3.6
	c-3.9,0-7.8-2.2-7.8-6.6s3.6-6.8,9-6.8c2.2,0,4.4,0.3,6.5,0.9v-0.7c0-3.8-2.3-5.7-6.2-5.7c-2.2,0-4.4,0.5-6.4,1.5 M217.5,451.3
	c0,2.7,2.4,4.2,5.3,4.2c3.9,0,7-2.4,7-5.7v-2c-2-0.6-4.1-0.9-6.2-0.9C219.7,446.9,217.5,448.6,217.5,451.3"/>
<path class="st0" d="M254,457.6h-3.1V428h3.1v12.4c1.4-2.6,4.2-4.2,7.2-4.1c5.1,0,8,3.4,8,8.4v13h-3.2v-12.3c0-3.9-2.1-6.3-5.8-6.3
	c-3.4-0.1-6.2,2.6-6.3,6c0,0.2,0,0.4,0,0.6L254,457.6z"/>
<path class="st0" d="M289.2,458.1c-8.1,0.1-14.8-6.4-14.9-14.5c-0.1-8.1,6.4-14.8,14.5-14.9c8.1-0.1,14.8,6.4,14.9,14.5
	c0,0.1,0,0.1,0,0.2c0.3,7.9-5.9,14.5-13.8,14.7C289.6,458.1,289.4,458.1,289.2,458.1 M289.2,431.6c-6.2,0-11.2,5-11.1,11.2
	c0,0.2,0,0.3,0,0.5c-0.3,6.2,4.6,11.5,10.8,11.8c0.1,0,0.2,0,0.4,0c6.2,0,11.2-5,11.1-11.2c0-0.2,0-0.3,0-0.5
	c0.3-6.2-4.6-11.5-10.8-11.8C289.4,431.6,289.3,431.6,289.2,431.6"/>
<rect x="309.9" y="428" class="st0" width="3.1" height="29.6"/>
<rect x="319.6" y="428" class="st0" width="3.1" height="29.6"/>
<path class="st0" d="M336.1,458c-3.2-0.1-6.2-1.1-8.7-3.1l1.6-2.2c2.1,1.6,4.6,2.6,7.2,2.7c2.5,0,4.3-1.3,4.3-3.3l0,0
	c0-2.1-2.5-2.9-5.2-3.6c-3.3-0.9-6.9-2.1-6.9-5.9l0,0c0-3.6,3-6,7.1-6c2.7,0.1,5.3,0.9,7.5,2.3l-1.4,2.4c-1.8-1.2-4-1.9-6.2-2
	c-2.5,0-4.1,1.3-4.1,3l0,0c0,2,2.6,2.8,5.4,3.6c3.2,1,6.7,2.2,6.7,6l0,0C343.6,455.8,340.3,458.1,336.1,458"/>
<path class="st0" d="M358,458.1c-6.1-0.1-10.9-5.1-10.8-11.1c0.1-6.1,5.1-10.9,11.1-10.8c3.1,0,6.1,1.4,8.1,3.7l-2.1,2.2
	c-1.6-1.9-3.9-3.1-6.4-3.2c-4.3,0.1-7.6,3.7-7.5,8c0,0.1,0,0.1,0,0.2c-0.2,4.3,3.2,8,7.5,8.2c0.1,0,0.1,0,0.2,0
	c2.5-0.1,4.8-1.2,6.4-3.1l2,1.8C364.5,456.6,361.4,458.1,358,458.1"/>
<path class="st0" d="M380.2,458.1c-6,0-10.9-4.9-10.9-10.9c0-6,4.9-10.9,10.9-10.9c6,0,10.9,4.9,10.9,10.9
	C391.1,453.2,386.2,458.1,380.2,458.1 M380.2,438.9c-4.3,0-7.7,3.5-7.7,7.7c0,0.1,0,0.3,0,0.4c-0.2,4.4,3.2,8,7.6,8.2
	c0.1,0,0.1,0,0.2,0c4.3,0,7.7-3.5,7.7-7.7c0-0.1,0-0.3,0-0.4c0.2-4.4-3.2-8.1-7.6-8.2C380.4,438.9,380.3,438.9,380.2,438.9"/>
<path class="st0" d="M396.2,428.6h3.6v3.5h-3.6V428.6z M396.4,436.6h3.1v21h-3.2L396.4,436.6z"/>
<rect x="406.1" y="428" class="st0" width="3.1" height="29.6"/>
<path class="st0" d="M425.1,455.4c2.5,0,4.9-1.1,6.6-3l2,1.8c-2.1,2.6-5.3,4-8.6,3.9c-5.8,0-10.5-4.6-10.5-10.4c0-0.2,0-0.4,0-0.6
	c0-6.1,4.3-11,10.1-11c6.2,0,9.8,5,9.8,11.1c0,0.3,0,0.7,0,1h-16.6C417.9,452.3,421.2,455.5,425.1,455.4 M431.3,446
	c-0.3-3.8-2.5-7.2-6.7-7.2c-3.6,0-6.4,3-6.8,7.2H431.3z"/>
<path class="st0" d="M464.9,458.1c-8.1,0-14.7-6.6-14.6-14.8c0-8.1,6.6-14.7,14.8-14.6c4.2-0.1,8.2,1.5,11.1,4.5l-2.2,2.4
	c-2.3-2.5-5.6-3.9-8.9-3.9c-6.5,0-11.8,5.3-11.8,11.8s5.3,11.8,11.8,11.8c3.5,0,6.8-1.5,9.2-4.1l2.1,2.1
	C473.5,456.4,469.3,458.2,464.9,458.1"/>
<path class="st0" d="M490.4,458.1c-6,0-10.9-4.9-10.9-10.9c0-6,4.9-10.9,10.9-10.9s10.9,4.9,10.9,10.9
	C501.2,453.2,496.4,458.1,490.4,458.1 M490.4,438.9c-4.3,0-7.7,3.5-7.7,7.7c0,0.1,0,0.3,0,0.4c-0.2,4.4,3.2,8,7.6,8.2
	c0.1,0,0.1,0,0.2,0c4.3,0,7.7-3.5,7.7-7.7c0-0.1,0-0.3,0-0.4c0.2-4.4-3.2-8.1-7.6-8.2C490.5,438.9,490.4,438.9,490.4,438.9"/>
<path class="st0" d="M509.6,457.6h-3.1v-21h3.1v5.4c1.3-3.6,4.8-5.9,8.6-5.8v3.4h-0.3c-4.6,0-8.3,3.3-8.3,9.6L509.6,457.6z"/>
<path class="st0" d="M531.1,458.1c-6.1-0.1-10.9-5.1-10.8-11.1c0.1-6.1,5.1-10.9,11.1-10.8c3.1,0,6.1,1.4,8.1,3.7l-2,2.2
	c-1.6-1.9-3.9-3.1-6.4-3.2c-4.3,0.1-7.6,3.7-7.5,8c0,0.1,0,0.1,0,0.2c-0.2,4.3,3.2,8,7.5,8.2c0.1,0,0.1,0,0.2,0
	c2.5-0.1,4.8-1.2,6.4-3.1l2,1.8C537.6,456.6,534.4,458.1,531.1,458.1"/>
<path class="st0" d="M545.7,440.6l-0.9-2.6c2.4-1.2,5-1.8,7.6-1.8c5.7,0,8.9,2.9,8.9,8.4v12.8h-3v-3.2c-1.8,2.4-4.6,3.7-7.6,3.6
	c-3.9,0-7.8-2.2-7.8-6.6s3.6-6.8,9-6.8c2.2,0,4.4,0.3,6.5,0.9v-0.7c0-3.8-2.3-5.7-6.2-5.7c-2.2,0-4.4,0.5-6.4,1.5 M546.2,451.3
	c0,2.7,2.4,4.2,5.3,4.2c3.9,0,7-2.4,7-5.7v-2c-2-0.6-4.1-0.9-6.2-0.9C548.4,446.9,546.2,448.6,546.2,451.3"/>
<path class="st0" d="M567.4,428.6h3.6v3.5h-3.6V428.6z M567.6,436.6h3.1v21h-3.1V436.6z"/>
<path class="st0" d="M586.3,464.2c-3.4,0-6.7-1-9.5-2.9l1.4-2.4c2.3,1.8,5.2,2.7,8.1,2.7c4.6,0,7.6-2.6,7.6-7.5v-2.5
	c-1.8,2.8-4.9,4.4-8.2,4.4c-5.5,0-9.9-4.5-9.9-9.9s4.5-9.9,9.9-9.9c3.3,0,6.3,1.5,8.2,4.2v-3.8h3.1v17.3c0,6.8-4.2,10.2-10.7,10.2
	 M586.3,438.7c-3.8-0.2-7.1,2.8-7.2,6.6c0,0.2,0,0.3,0,0.5c-0.1,3.9,3,7.2,6.9,7.2c0.1,0,0.2,0,0.3,0c3.9,0.6,7.7-2.1,8.3-6
	c0.6-3.9-2.1-7.7-6-8.3C587.8,438.7,587.1,438.7,586.3,438.7"/>
<path class="st0" d="M606.6,457.6h-3.1V428h3.1v12.4c1.4-2.6,4.2-4.2,7.2-4.1c5.1,0,8,3.4,8,8.4v13h-3.2v-12.3
	c0-3.9-2.1-6.3-5.8-6.3c-3.4-0.1-6.2,2.6-6.3,6c0,0.2,0,0.4,0,0.6L606.6,457.6z"/>
<path class="st0" d="M36.3,411.8c-7.2,0-11.6-4-11.6-11.9v-15.3h5.9v15.1c0,4.3,2.2,6.6,5.8,6.6c3.6,0,5.8-2.2,5.8-6.4v-15.3H48
	v15.1C48,407.9,43.5,411.8,36.3,411.8"/>
<path class="st0" d="M64.7,411.4V400c0-2.7-1.3-4.2-3.5-4.2c-2.2,0-3.6,1.4-3.6,4.2v11.4h-5.8v-20.4h5.8v2.9c1.3-2,3.5-3.2,5.9-3.3
	c4.4,0,6.9,2.9,6.9,7.6v13.3H64.7z"/>
<path class="st0" d="M75.2,383.5h6.1v5.1h-6.1V383.5z M75.4,390.9h5.8v20.4h-5.8V390.9z"/>
<polygon class="st0" points="97.3,411.5 92,411.5 84,390.9 90.1,390.9 94.7,404.6 99.3,390.9 105.4,390.9 "/>
<path class="st0" d="M126.3,403.2H112c0.4,2.4,2.5,4.2,5,4c1.9,0,3.7-0.7,5-2.1l3.3,2.9c-3.9,4.5-10.8,5-15.3,1.1
	c-2.3-2-3.6-4.8-3.7-7.8l0,0c-0.2-5.6,4.1-10.4,9.7-10.6c0.1,0,0.3,0,0.4,0c6.8,0,9.9,5.3,9.9,11.1l0,0
	C126.3,402.3,126.3,402.6,126.3,403.2 M116.4,395.2c-2.4,0.1-4.3,2-4.4,4.3h8.7C120.7,397.1,118.8,395.2,116.4,395.2"/>
<path class="st0" d="M142.3,396.6c-3.9,0-6.2,2.3-6.2,7.2v7.5h-5.8v-20.4h5.8v4.2c0.8-2.8,3.6-4.7,6.5-4.5v6.1L142.3,396.6z"/>
<path class="st0" d="M152.9,411.7c-3.2,0-6.3-1.1-8.8-3.1l2.6-3.8c1.8,1.4,4.1,2.3,6.4,2.4c1.7,0,2.4-0.6,2.4-1.5l0,0
	c0-1.3-2-1.7-4.2-2.4c-2.9-0.8-6.1-2.2-6.1-6.1l0,0c0-4.2,3.3-6.5,7.5-6.5c2.7,0,5.4,0.9,7.6,2.4l-2.3,3.7c-1.7-1-3.6-1.7-5.5-1.8
	c-1.4,0-2.1,0.6-2.1,1.4l0,0c0,1.1,2,1.7,4.2,2.4c2.9,1,6.2,2.3,6.2,6.1l0,0c0,4.5-3.4,6.6-7.8,6.6"/>
<path class="st0" d="M164.6,383.5h6.1v5.1h-6.1V383.5z M164.7,390.9h5.8v20.4h-5.8L164.7,390.9z"/>
<path class="st0" d="M182.4,411.7c-3.6,0-6-1.4-6-6.1v-9.7H174v-5h2.4v-5.2h5.8v5.2h4.8v5h-4.8v8.7c0,1.3,0.6,2,1.8,2
	c1,0,2-0.2,2.9-0.7v4.6C185.6,411.4,184,411.8,182.4,411.7"/>
<path class="st0" d="M202.7,411.9c-1.6,4.2-3.2,5.7-6.7,5.7c-1.8,0-3.6-0.5-5.2-1.4l1.9-4.2c0.7,0.5,1.6,0.7,2.5,0.8
	c0.9,0.1,1.8-0.5,2-1.4l-8-20.5h6.2l4.6,13.9l4.5-13.9h6L202.7,411.9z"/>
<path class="st0" d="M237.9,411.8c-7.4,0.1-13.6-5.8-13.7-13.3c0-0.2,0-0.3,0-0.5l0,0c-0.1-7.5,5.8-13.7,13.3-13.8
	c0.2,0,0.4,0,0.6,0c3.9-0.2,7.8,1.3,10.5,4.1l-3.7,4.3c-1.8-1.9-4.2-2.9-6.8-3c-4.4,0.1-7.8,3.7-7.8,8.1c0,0.1,0,0.2,0,0.2l0,0
	c-0.3,4.4,3.1,8.1,7.4,8.4c0.1,0,0.2,0,0.3,0c2.7,0,5.2-1.2,7-3.1l3.7,3.8c-2.7,3.2-6.7,4.9-10.9,4.8"/>
<path class="st0" d="M261.9,411.8c-5.9,0.2-10.8-4.4-11-10.2c0-0.1,0-0.2,0-0.4l0,0c0.3-6.1,5.6-10.8,11.7-10.4
	c5.6,0.3,10.1,4.8,10.4,10.4l0,0c0,5.9-4.9,10.7-10.8,10.6C262.1,411.9,262,411.9,261.9,411.8 M267.4,401.3c0.1-3-2.2-5.5-5.2-5.6
	c-0.1,0-0.1,0-0.2,0c-2.9,0-5.3,2.3-5.3,5.1c0,0.1,0,0.3,0,0.4l0,0c-0.1,3,2.2,5.5,5.2,5.6c0.1,0,0.1,0,0.2,0c2.9,0,5.3-2.3,5.3-5.2
	C267.4,401.5,267.4,401.4,267.4,401.3L267.4,401.3z"/>
<rect x="277.1" y="383.5" class="st0" width="5.8" height="27.8"/>
<rect x="288.1" y="383.5" class="st0" width="5.8" height="27.8"/>
<path class="st0" d="M317.9,403.2h-14.2c0.4,2.4,2.5,4.2,5,4c1.9,0,3.7-0.7,5-2.1l3.3,2.9c-3.9,4.5-10.8,5-15.3,1.1
	c-2.3-2-3.6-4.8-3.7-7.8l0,0c-0.3-5.6,4.1-10.4,9.7-10.6c0.1,0,0.3,0,0.4,0c6.8,0,9.9,5.3,9.9,11.1l0,0
	C317.9,402.3,317.9,402.6,317.9,403.2 M308.1,395.2c-2.4,0.1-4.3,2-4.4,4.3h8.7C312.3,397.1,310.4,395.2,308.1,395.2"/>
<path class="st0" d="M330.9,417.6c-3.1,0-6.2-0.7-9-2.1l2-4.3c2.1,1.2,4.5,1.8,6.9,1.8c4,0,5.8-1.9,5.8-5.6v-1
	c-1.5,2.1-4,3.4-6.7,3.3c-5,0-9.1-4-9.1-9c0-0.2,0-0.3,0-0.5l0,0c-0.3-5,3.6-9.3,8.5-9.5c0.2,0,0.3,0,0.5,0c2.6-0.1,5,1.1,6.6,3.1
	v-2.7h5.8v15.8C342.3,414.5,338.5,417.6,330.9,417.6 M336.6,400.2c-0.2-2.7-2.7-4.8-5.4-4.6c-2.4,0.2-4.3,2.1-4.6,4.6l0,0
	c0,2.6,2,4.7,4.6,4.7c0.1,0,0.2,0,0.4,0c2.6,0.2,4.8-1.8,5-4.4C336.6,400.4,336.6,400.3,336.6,400.2L336.6,400.2z"/>
<path class="st0" d="M366.2,403.2H352c0.4,2.4,2.5,4.2,5,4c1.9,0,3.7-0.7,5-2.1l3.3,2.9c-3.9,4.5-10.8,5-15.3,1.1
	c-2.3-2-3.6-4.8-3.7-7.8l0,0c-0.2-5.6,4.1-10.4,9.7-10.6c0.1,0,0.3,0,0.4,0c6.8,0,9.9,5.3,9.9,11.1l0,0
	C366.3,402.3,366.3,402.6,366.2,403.2 M356.4,395.2c-2.4,0.1-4.3,2-4.4,4.3h8.7C360.7,397.1,358.8,395.2,356.4,395.2"/>
<path class="st0" d="M394.4,411.8c-7.4,0.1-13.6-5.8-13.7-13.3c0-0.2,0-0.3,0-0.5l0,0c-0.1-7.5,5.8-13.7,13.3-13.8
	c0.2,0,0.4,0,0.6,0c3.9-0.2,7.8,1.3,10.5,4.1l-3.7,4.3c-1.8-1.9-4.3-3-6.9-3.1c-4.4,0.1-7.8,3.7-7.8,8.1c0,0.1,0,0.2,0,0.2l0,0
	c-0.3,4.4,3.1,8.1,7.4,8.4c0.1,0,0.2,0,0.3,0c2.7,0,5.2-1.2,7-3.1l3.7,3.8C402.6,410.2,398.6,411.9,394.4,411.8"/>
<path class="st0" d="M418.5,411.8c-5.9,0.2-10.8-4.4-11-10.2c0-0.1,0-0.2,0-0.4l0,0c0-5.9,4.9-10.7,10.8-10.6c0.1,0,0.2,0,0.3,0
	c5.9-0.2,10.8,4.4,11,10.2c0,0.1,0,0.2,0,0.4l0,0c0,5.9-4.9,10.7-10.8,10.6C418.7,411.8,418.6,411.8,418.5,411.8 M423.9,401.2
	c0.1-3-2.2-5.5-5.2-5.6c-0.1,0-0.1,0-0.2,0c-2.9,0-5.3,2.3-5.3,5.1c0,0.1,0,0.3,0,0.4l0,0c-0.1,3,2.2,5.5,5.2,5.6c0.1,0,0.1,0,0.2,0
	c2.9,0,5.3-2.3,5.3-5.1C423.9,401.5,423.9,401.3,423.9,401.2L423.9,401.2z"/>
<path class="st0" d="M445.4,396.6c-3.9,0-6.2,2.3-6.2,7.2v7.5h-5.8v-20.4h5.8v4.2c0.8-2.8,3.6-4.7,6.5-4.5v6.1L445.4,396.6z"/>
<polygon class="st0" points="461.9,411.4 456.6,403 454.6,405.2 454.6,411.4 448.8,411.4 448.8,383.5 454.6,383.5 454.6,398.4 
	461.4,390.9 468.3,390.9 460.5,399 468.6,411.4 "/>
<path class="st0" d="M473.9,411.4h-2.4v-6.1h6.2v5.2c0,5-2.5,7.1-7.1,7.1l-0.5-2.4C472.8,414.9,474.1,413.6,473.9,411.4"/>
<rect x="494.2" y="384.7" class="st0" width="5.9" height="26.7"/>
<path class="st0" d="M517.8,396.6c-3.9,0-6.2,2.3-6.2,7.2v7.5h-5.8v-20.4h5.8v4.2c0.8-2.8,3.6-4.7,6.5-4.5v6.1L517.8,396.6z"/>
<path class="st0" d="M540.1,403.2h-14.2c0.4,2.4,2.5,4.2,5,4c1.9,0,3.7-0.7,5-2.1l3.3,2.9c-3.9,4.5-10.8,5-15.3,1.1
	c-2.3-2-3.6-4.8-3.7-7.8l0,0c-0.2-5.6,4.1-10.4,9.7-10.6c0.1,0,0.3,0,0.4,0c6.8,0,9.9,5.3,9.9,11.1l0,0
	C540.2,402.3,540.2,402.6,540.1,403.2 M530.2,395.2c-2.4,0.1-4.3,2-4.4,4.3h8.7C534.5,397.2,532.6,395.2,530.2,395.2"/>
<rect x="544.2" y="383.5" class="st0" width="5.8" height="27.8"/>
<path class="st0" d="M567,411.4v-2.2c-1.6,1.7-3.8,2.6-6.1,2.6c-3.9,0-7-2.2-7-6.3l0,0c0-4.5,3.4-6.5,8.2-6.5c1.7,0,3.4,0.3,5,0.8
	v-0.3c0-2.4-1.5-3.7-4.4-3.7c-1.9,0-3.9,0.4-5.6,1.1l-1.4-4.4c2.5-1.1,5.2-1.7,7.9-1.6c6.3,0,9,3.3,9,8.8v11.8H567z M567.1,403.1
	c-1.1-0.5-2.4-0.8-3.6-0.8c-2.5,0-4,1-4,2.8l0,0c0,1.6,1.3,2.5,3.2,2.5c2.7,0,4.5-1.5,4.5-3.6L567.1,403.1z"/>
<path class="st0" d="M590.4,411.4V400c0-2.7-1.3-4.2-3.5-4.2c-2.2,0-3.6,1.4-3.6,4.2v11.4h-5.8v-20.4h5.8v2.9c1.3-2,3.6-3.3,6-3.3
	c4.4,0,6.9,2.9,6.9,7.6v13.2H590.4z"/>
<path class="st0" d="M615.7,411.4v-2.9c-1.4,2.1-3.8,3.4-6.4,3.3c-4.8,0-9.3-3.7-9.3-10.6l0,0c0-6.8,4.5-10.6,9.3-10.6
	c2.5,0,4.8,1.1,6.4,3.1v-10.1h5.8v27.8H615.7z M615.7,401.1c0.3-2.7-1.6-5.2-4.4-5.6c-2.7-0.3-5.2,1.6-5.6,4.4c0,0.4,0,0.8,0,1.2
	l0,0c-0.3,2.7,1.6,5.2,4.4,5.6c2.7,0.3,5.2-1.6,5.6-4.4C615.7,401.9,615.7,401.5,615.7,401.1z"/>
<path class="st1" d="M36.1,252.4h70.4h0.1v7.1c-2-1.6-4.6-2.2-7.1-1.6c-4.8,1.5-6.3-0.6-6.3-0.6c-0.8,1.8-2.5,3.2-4.4,3.6l-0.1,2
	h-8.9l-0.7,5.6h9l0,0l-0.3,3h-9.1l-0.9,6.2h9.5l-0.4,4.1h18c0.3,0.7,0.9,1.2,1.6,1.4v75.7c-7.8-5.9-27.1-5.6-27.1-5.6
	c-5.7,0.1-11.4-0.2-17.1-0.7c-5.8-0.4-11.5-2.1-16.6-5l-0.4-0.3c-2.9-1.9-5.5-4.2-7.8-6.8c-4.9-5.3-8.3-11.9-9.6-19v-0.1
	c-1-4.3-1.4-8.6-1.3-13c-0.2-6,0.4-12,1.8-17.8l0,0c2.8-10.3,3.9-15.3,3.9-15.3c1.6-6.7,2.8-13.6,3.5-20.5c0-0.7,0.1-1.5,0.2-2.2
	L36.1,252.4z"/>
<path class="st2" d="M110.3,252.4h70.6c0,0.7,0.1,1.5,0.2,2.2c0.7,6.9,1.8,13.8,3.4,20.5c0,0,1.1,5.1,3.9,15.3l0,0
	c1.4,5.8,2,11.8,1.8,17.8c0.1,4.4-0.3,8.7-1.3,13v0.1c-1.4,7.1-4.7,13.8-9.6,19.1c-2.3,2.6-4.9,4.9-7.8,6.8l-0.4,0.3
	c-5.1,2.9-10.8,4.6-16.6,5c-5.7,0.6-11.4,0.8-17.1,0.8c0,0-19.3-0.2-27.1,5.6v-75.9c0.7-0.2,1.3-0.7,1.6-1.4l0,0h18.1l-0.4-4h9.5
	l-0.8-6.2h-9.2l-0.3-3.1l0,0h9l-0.7-5.6h-8.7l-0.2-2.1c-1.9-0.5-3.5-1.8-4.4-3.6c0,0-1.5,2.1-6.3,0.6c-2.5-0.6-5.2,0-7.2,1.7v-7
	L110.3,252.4z"/>
<path class="st3" d="M109.2,276.2v-14c3.4-3.2,6-3.2,8-2.6c1.6,0.5,3.2,0.6,4.8,0.3l0.9,14l0,0c-1.8,0.8-3.8,0.8-5.6,0
	c-2.9-0.7-5.9,0.1-8,2.1"/>
<polygon class="st4" points="87.5,275.9 80.2,275.9 80.5,273.1 87.8,273.1 "/>
<polygon class="st4" points="88.5,264.5 88.3,266.9 81.4,266.9 81.7,264.5 "/>
<path class="st4" d="M123.7,260.3c0.7,0.8,1.6,1.3,2.6,1.7l0,0l1.4,16.1c-1.3-0.6-2.3-1.6-3-2.8L123.7,260.3L123.7,260.3z"/>
<path class="st3" d="M94.8,259.9c1.6,0.3,3.3,0.2,4.8-0.3c2-0.6,4.6-0.6,8,2.6v14c-2.1-2-5.1-2.8-8-2.2c-1.8,0.8-3.8,0.8-5.6,0
	L94.8,259.9z"/>
<path class="st4" d="M90.4,262L90.4,262c1-0.3,1.9-0.9,2.6-1.7l-0.9,15c-0.7,1.2-1.8,2.2-3,2.8L90.4,262z"/>
<path class="st4" d="M105,280H88.8c2.2-0.6,4-2.2,5-4.3l1,0.3c1.6,0.3,3.3,0.2,4.8-0.3c2-0.6,4.6-0.6,8,2.6l0,0
	C106.6,278.4,105.7,279,105,280"/>
<path class="st4" d="M108.4,281.7L108.4,281.7c-1,0-1.8-0.4-1.8-0.9s0.8-0.9,1.8-0.9s1.8,0.4,1.8,0.9S109.4,281.7,108.4,281.7"/>
<polygon class="st0" points="132.5,265.2 132.6,266.2 134.5,266.2 134.4,265.2 "/>
<polygon class="st0" points="133.7,273.9 133.8,275 135.7,275 135.5,273.9 "/>
<path class="st0" d="M185.5,256.5c0,0-1.1-10.5-1.3-16.1V240c-0.6-26.8,10.9-41.6,10.9-41.6L174.8,178c0,0-11.1,6.2-29.4,6.1
	c-7.1,0.2-14.3-0.8-21-3c-5.1-1.6-10.5-2.3-15.8-2.1c-5.4-0.3-10.7,0.4-15.8,2.1c-6.8,2.2-13.9,3.3-21,3
	c-18.3,0.1-29.4-6.1-29.4-6.1l-20.4,20.4c0,0,11.5,14.8,10.9,41.6v0.4c0,5.7-1.2,16.2-1.2,16.2c-1.4,11.4-3.8,22.6-7.1,33.5
	c0,0-7.8,32,8.4,51.1c8.7,10.3,16.7,16,40.1,16.3c27.5,0.2,31.6,3.6,35.5,9.8l0,0l0,0h0.2l0,0l0,0c3.9-6.2,8-9.6,35.5-9.8
	c23.4-0.2,31.4-5.9,40.1-16.3c16.3-19.1,8.4-51.1,8.4-51.1C189.3,279.1,186.9,267.9,185.5,256.5z M27.1,199L27.1,199h-0.4H27.1
	L27.1,199L43,183.1l0,0c18.6,7.8,40.6,4.3,40.6,4.3c2.7-0.3,5.3-0.9,7.9-1.8c5.4-1.8,11.2-2.7,16.9-2.6h0.2
	c5.7-0.1,11.5,0.8,16.9,2.6c2.5,0.9,5.2,1.5,7.9,1.8c0,0,22,3.4,40.5-4.6l0,0l15.9,15.9v0.1c-0.7,1.1-6.5,10.4-9,26.6
	c-1,7.7-1.1,15.5-0.2,23.2H36.3c0.9-7.7,0.8-15.5-0.2-23.2C33.6,209.3,27.7,200,27.1,199z M127.9,280h-16.2
	c-0.5-0.9-1.5-1.5-2.5-1.6l0,0l0,0l0,0c3.4-3.2,6-3.2,8-2.6c1.6,0.5,3.2,0.6,4.8,0.3l1-0.3C124,277.8,125.8,279.3,127.9,280z
	 M127.7,278.1c-1.3-0.6-2.3-1.6-3-2.8l-0.9-15c0.7,0.7,1.6,1.3,2.6,1.7l0,0L127.7,278.1z M122.9,273.9c-1.8,0.8-3.8,0.8-5.6,0
	c-2.9-0.7-5.9,0.1-8,2.1v-13.8c3.4-3.2,6-3.2,8-2.6c1.6,0.5,3.2,0.6,4.8,0.3L122.9,273.9L122.9,273.9z M93.8,275.7l1,0.3
	c1.6,0.3,3.3,0.2,4.8-0.3c2-0.6,4.6-0.6,8,2.6c-1,0.1-1.9,0.7-2.5,1.6H88.8C91,279.3,92.8,277.7,93.8,275.7z M90.5,261.9L90.5,261.9
	c1-0.3,1.9-0.9,2.6-1.7l-0.9,15c-0.7,1.2-1.8,2.2-3,2.8L90.5,261.9z M99.5,273.9c-1.8,0.8-3.8,0.8-5.6,0l0.9-14.1
	c1.6,0.3,3.3,0.2,4.9-0.3c2-0.6,4.6-0.6,8,2.6v14c-2.2-2-5.1-2.8-8-2.2L99.5,273.9z M106.6,359c-7.8-5.9-27.1-5.6-27.1-5.6
	c-5.7,0.1-11.4-0.2-17.1-0.7c-5.8-0.4-11.5-2.1-16.6-5l-0.4-0.3c-2.9-1.9-5.5-4.2-7.8-6.8c-4.9-5.3-8.3-12-9.7-19.1v-0.1
	c-1-4.3-1.4-8.6-1.3-13c-0.2-6,0.4-12,1.8-17.8l0,0c2.8-10.3,3.9-15.3,3.9-15.3c1.6-6.7,2.8-13.6,3.5-20.5c0-0.7,0.1-1.5,0.2-2.2
	h0.1h70.4h0.1v7.1c-2-1.6-4.6-2.2-7.1-1.6c-4.8,1.5-6.3-0.6-6.3-0.6c-0.8,1.8-2.5,3.2-4.4,3.6l-0.1,2h-8.9l-0.7,5.6h9l0,0l-0.3,3
	h-9.1l-0.9,6.2h9.5l-0.4,4.1h18c0.3,0.7,0.9,1.2,1.6,1.4L106.6,359z M88.5,264.5l-0.2,2.4h-7l0.3-2.4H88.5z M87.8,273.1l-0.3,2.9
	h-7.4l0.4-2.8L87.8,273.1z M108.4,281.7c-1,0-1.8-0.4-1.8-0.9s0.8-0.9,1.8-0.9s1.8,0.4,1.8,0.9S109.4,281.7,108.4,281.7L108.4,281.7
	z M188.9,321.3v0.1c-1.4,7.2-4.7,13.8-9.7,19.1c-2.3,2.6-4.9,4.9-7.8,6.8l-0.4,0.3c-5.1,2.9-10.8,4.6-16.6,5
	c-5.7,0.6-11.4,0.8-17.1,0.8c0,0-19.3-0.2-27.1,5.6v-75.9c0.7-0.2,1.3-0.7,1.6-1.4l0,0h18.1l-0.4-4h9.5l-0.8-6.2h-9.2l-0.3-3.1l0,0
	h9l-0.7-5.6h-8.7l-0.2-2.1c-1.9-0.5-3.5-1.8-4.4-3.6c0,0-1.5,2.1-6.3,0.6c-2.5-0.6-5.2,0-7.2,1.7v-7h0.1h70.6c0,0.7,0.1,1.5,0.2,2.2
	c0.7,6.9,1.8,13.8,3.4,20.5c0,0,1.1,5.1,3.9,15.3l0,0c1.4,5.8,2,11.8,1.8,17.8C190.2,312.7,189.8,317.1,188.9,321.3z M132.7,267.1
	h-4.2l-0.2-2.4h7.2l0.2,2.4L132.7,267.1L132.7,267.1z M129,273.2h7.6l0.3,2.9h-7.7L129,273.2z"/>
<path class="st4" d="M111.7,280L111.7,280c-0.5-0.9-1.5-1.5-2.5-1.6l0,0l0,0l0,0c3.4-3.2,6-3.2,8-2.6c1.6,0.5,3.2,0.6,4.8,0.3l1-0.3
	c1,2,2.8,3.5,4.9,4.2L111.7,280z"/>
<path class="st4" d="M128.6,267l-0.2-2.4h7.2l0.2,2.4H128.6z M134.5,266.2l-0.1-1.1h-1.8l0.1,1.1H134.5z"/>
<path class="st4" d="M129,273.1h7.6l0.3,2.9h-7.7L129,273.1z M133.7,273.9L133.7,273.9L133.7,273.9z M133.7,273.9l0.1,1.1h1.8
	l-0.1-1.2L133.7,273.9z"/>
<path class="st4" d="M36.3,248.9h144.3c-0.9-7.7-0.8-15.5,0.2-23.2c2.5-16.3,8.3-25.5,9-26.6v-0.1l-16-15.9l0,0
	c-18.5,7.9-40.5,4.5-40.5,4.5c-2.7-0.3-5.3-0.9-7.9-1.8c-5.5-1.8-11.2-2.7-17-2.6h-0.2c-5.7-0.1-11.5,0.8-16.9,2.6
	c-2.5,0.9-5.2,1.5-7.9,1.8c0,0-22,3.4-40.5-4.6l0,0l-15.9,15.9l0,0h-0.4l0.4,0.1l0,0c0.7,1,6.5,10.3,9,26.6
	C37.2,233.3,37.2,241.1,36.3,248.9L36.3,248.9z"/>
<path class="st0" d="M71.5,229L71.5,229l-1.9-23.3l1.1-3.2h0.5l2.3-6.9h-5l-0.6,1.7h-3.4v-1.7H57v1.7h-3.4l-0.6-1.7h-5l2.3,6.9h0.5
	l1,3.2l-1.9,23.3l0,0c-1.2,0.2-2,1.2-2,2.4c0,1,0.7,1.9,1.7,2.2l0,0l-0.6,8.2h10.4v-5.8l0,0c0-0.6,0.8-1,1.3-1l0,0
	c0.6,0,1.4,0.5,1.4,1v5.7h10.4l-0.7-8.3l0,0c1-0.3,1.6-1.2,1.6-2.2C73.5,230.2,72.6,229.2,71.5,229 M51.5,200.8l-1.1-3.5h1.4
	l0.6,1.7h6.3v-1.7h4.1v1.7h6.3l0.6-1.7h1.4l-1.1,3.5h-0.3H51.8H51.5z M68.9,202.6l-0.6,1.9H53.1l-0.6-1.9H68.9z M53.5,206.2H68
	l1.8,22.8H51.6L53.5,206.2z M71.1,232.2h-7.8c0.4,0.6,0.9,1.1,1.3,1.6h5.4l0.6,6.4h-6.9v-4.1c-0.2-1.6-1.5-2.7-3.1-2.7l0,0
	c-1.6,0-2.9,1.1-3.1,2.7v4.1h-6.9l0.5-6.5h5.4c0.5-0.5,0.9-1,1.3-1.6h-7.7c-0.4,0-0.7-0.3-0.7-0.7c0-0.4,0.3-0.7,0.7-0.7h20.9
	c0.4,0,0.7,0.4,0.7,0.7C71.8,231.8,71.5,232.1,71.1,232.2C71.1,232.1,71.1,232.1,71.1,232.2L71.1,232.2z M57.6,236.2L57.6,236.2z
	 M58.3,216.4h5v-6.9c-0.2-1.3-1.3-2.2-2.5-2.1c-1.3-0.1-2.3,0.9-2.5,2.1V216.4z M59.8,209.6c0.2-0.5,0.8-0.7,1.3-0.5
	c0.2,0.1,0.4,0.3,0.5,0.5v5.4h-1.8V209.6z M54.2,227.1h5v-7c-0.2-1.3-1.3-2.2-2.5-2.1c-1.3-0.1-2.3,0.9-2.5,2.1V227.1z M55.7,220.3
	c0.1-0.4,0.5-0.7,0.9-0.7c0.4,0,0.8,0.2,0.9,0.7v5.4h-1.8L55.7,220.3z M67.3,220.1c-0.1-1.2-1.2-2.2-2.5-2.1c-1.3,0-2.4,0.9-2.5,2.1
	v7h5L67.3,220.1z M65.8,225.7H64v-5.4c0.2-0.5,0.8-0.7,1.3-0.5c0.2,0.1,0.4,0.3,0.5,0.5V225.7z"/>
<path class="st1" d="M51.5,200.8l-1.1-3.5h1.4l0.6,1.7h6.3v-1.7h4.1v1.7h6.3l0.6-1.7h1.4l-1.1,3.5h-0.3H51.8H51.5z M68.9,202.6
	l-0.6,1.9H53.1l-0.6-1.9H68.9z M53.5,206.2H68l1.8,22.8H51.6L53.5,206.2z M71.1,232.2h-7.8c0.4,0.6,0.9,1.1,1.3,1.6h5.4l0.6,6.4
	h-6.9v-4.1c-0.2-1.5-1.5-2.7-3.1-2.7l0,0c-1.6,0-2.9,1.1-3.1,2.7v4.1h-6.9l0.5-6.5h5.4c0.5-0.5,0.9-1,1.3-1.6h-7.7
	c-0.4,0-0.7-0.3-0.7-0.7c0-0.4,0.3-0.7,0.7-0.7h20.9c0.4,0,0.7,0.4,0.7,0.7C71.8,231.8,71.5,232.1,71.1,232.2
	C71.1,232.1,71.1,232.1,71.1,232.2L71.1,232.2z M57.6,236.2L57.6,236.2z M58.3,216.4h5v-6.9c-0.2-1.3-1.3-2.2-2.5-2.1
	c-1.3-0.1-2.3,0.9-2.5,2.1V216.4z M54.1,227.1h5v-6.9c-0.2-1.3-1.3-2.2-2.5-2.1c-1.3,0-2.3,0.9-2.5,2.1V227.1z M67.3,220.1
	c-0.1-1.2-1.2-2.2-2.5-2.1c-1.3,0-2.4,0.9-2.5,2.1v7h5L67.3,220.1z"/>
<path class="st0" d="M145.2,229c-1.2,0.2-2,1.2-2,2.4c0,1,0.6,1.9,1.6,2.2l0,0l-0.7,8.3h10.4v-5.8c0-0.6,0.8-1,1.4-1l0,0
	c0.6,0,1.3,0.5,1.3,1l0,0v5.8h10.4l-0.7-8.3l0,0c1-0.3,1.7-1.2,1.7-2.2c0-1.2-0.8-2.2-2-2.4l0,0l-1.8-23.3l1-3.2h0.6l2.3-6.9h-5.1
	l-0.6,1.7h-3.4v-1.7h-7.5v1.7h-3.4l-0.6-1.7h-5l2.3,6.9h0.5l1,3.2L145.2,229L145.2,229 M164.9,200.8h-17.8h-0.3l-1.1-3.5h1.4
	l0.6,1.7h6.3v-1.7h4.1v1.7h6.3l0.6-1.7h1.4l-1.1,3.5H164.9z M164.3,202.5l-0.6,1.9h-15.2l-0.6-1.9H164.3z M165.1,229H147l1.8-22.8
	h14.5L165.1,229z M145.6,232.1c-0.4,0-0.7-0.3-0.7-0.7c0,0,0,0,0,0c0-0.4,0.3-0.7,0.7-0.7h20.9c0.4,0,0.7,0.4,0.7,0.7
	c0,0.4-0.3,0.7-0.7,0.7h-7.8c0.4,0.6,0.8,1.1,1.3,1.6h5.4l0.5,6.5h-6.9v-4.1c-0.2-1.6-1.5-2.7-3.1-2.7l0,0c-1.6,0-2.9,1.1-3.1,2.7
	v4.1h-6.9l0.6-6.5h5.4c0.5-0.5,0.9-1.1,1.3-1.6L145.6,232.1 M153,236.2L153,236.2z M159.1,236.2L159.1,236.2z M158.5,209.5
	c-0.1-1.2-1.2-2.2-2.5-2.1c-1.3,0-2.4,0.9-2.5,2.1v7h5L158.5,209.5z M156.9,215.1h-1.8v-5.4c0.2-0.5,0.8-0.7,1.3-0.5
	c0.2,0.1,0.4,0.3,0.5,0.5V215.1z M162.6,220.2c-0.1-1.3-1.2-2.2-2.5-2.1c-1.3-0.1-2.4,0.8-2.6,2.1v7h5L162.6,220.2z M161.1,225.7
	h-1.8v-5.4c0.1-0.4,0.5-0.7,0.9-0.7c0.4,0,0.8,0.3,0.9,0.7L161.1,225.7z M149.5,227.1h4.9v-7c-0.2-1.3-1.3-2.2-2.5-2.1
	c-1.3,0-2.3,0.9-2.5,2.1L149.5,227.1z M151,220.3c0.2-0.5,0.8-0.7,1.3-0.5c0.2,0.1,0.4,0.3,0.5,0.5v5.4H151V220.3z"/>
<path class="st1" d="M164.9,200.8h-17.8h-0.3l-1.1-3.5h1.4l0.6,1.7h6.3v-1.7h4.1v1.7h6.3l0.6-1.7h1.4l-1.1,3.5H164.9z M164.3,202.5
	l-0.6,1.9h-15.2l-0.6-1.9H164.3z M165.1,229H147l1.8-22.8h14.5L165.1,229z M145.6,232.1c-0.4,0-0.7-0.3-0.7-0.7c0,0,0,0,0,0
	c0-0.4,0.3-0.7,0.7-0.7h20.9c0.4,0,0.7,0.4,0.7,0.7c0,0.4-0.3,0.7-0.7,0.7h-7.8c0.4,0.6,0.8,1.1,1.3,1.6h5.4l0.5,6.5h-6.9v-4.1
	c-0.2-1.5-1.5-2.7-3.1-2.7l0,0c-1.6,0-2.9,1.1-3.1,2.7v4.1h-6.9l0.6-6.5h5.4c0.5-0.5,0.9-1.1,1.3-1.6L145.6,232.1 M153,236.2
	L153,236.2z M159.1,236.2L159.1,236.2z M158.5,209.5c-0.1-1.2-1.2-2.2-2.5-2.1c-1.3,0-2.4,0.9-2.5,2.1v7h5L158.5,209.5z
	 M162.6,220.2c-0.1-1.3-1.2-2.2-2.5-2.1c-1.3,0-2.4,0.9-2.5,2.1v7h5L162.6,220.2z M149.4,227.1h5v-7c-0.2-1.3-1.3-2.2-2.5-2.1
	c-1.3,0-2.3,0.9-2.5,2.1V227.1z"/>
<path class="st0" d="M113.6,243.4L113.6,243.4z M108.5,243.4L108.5,243.4z M119.7,223.5c-0.4,0-0.7,0.1-1,0.4l-1.2,1.2
	c-0.3,0.3-0.6,0.4-1,0.4h-4.9l-0.8-13.7l0,0c3.4-1.6,6.1-4.6,7.4-8.2c0.2,0.1,0.5,0.1,0.7,0.1c2.8,0.1,5.1-2.1,5.2-4.9
	c0-0.2,0-0.4,0-0.6c0-0.6-0.1-1.2-0.4-1.8l1.5-0.7l-0.7-1.5l-14.2,7.1l0,0l-0.5-9.7c0-0.4-0.3-0.7-0.7-0.7c-0.4,0-0.7,0.3-0.7,0.7
	l0,0l-0.1,1.8l0,0c-0.7-0.3-2.5-1-5,1c-1.5,1.3-3.6,1.7-5.4,0.9c0.2,0.4,1.7,5.4,6.2,5c1.3-0.2,2.5-0.2,3.8,0l0,0l-0.1,2.3
	l-16.1,8.1l0.7,1.5l1.4-0.7l0,0c0.8,1.8,2.7,3,4.7,2.9c1.6-0.1,3.2-0.9,4.2-2.1l0,0c0.7,0.5,1.6,0.7,2.4,0.6c0.3,0,0.6,0,0.9,0
	l1-0.1l-0.8,12.7H102c-0.5,0-1-0.2-1.3-0.5c-0.7-0.5-1.3-1.4-2.9-1.4H83.3c-2.8,0-2.7,4.7-0.2,4.7c2.9,0,2.7,2.5,4,2.5h1.9l5.3,7.6
	l0,0c0.6,0.8,1.5,1.3,2.5,1.2h7.4l3.3,4.5c0.1,0.2,0.3,0.2,0.4,0.2c0.3,0,0.7-0.2,0.7-0.5c0-0.1-0.1-0.3-0.1-0.3l-2.9-3.9h3.6
	l3.3,4.5l0,0c0.1,0.2,0.3,0.2,0.4,0.2c0.3,0,0.7-0.2,0.7-0.5c0-0.1-0.1-0.3-0.2-0.3l-2.9-3.9h3.6l3.4,4.6c0.1,0.2,0.3,0.2,0.5,0.2
	c0.3,0,0.7-0.2,0.7-0.5c0-0.1-0.1-0.3-0.1-0.4l0,0l-2.8-3.8h3.6l3.3,4.5l0,0c0.1,0.2,0.3,0.2,0.4,0.2c0.3,0,0.7-0.2,0.7-0.5
	c0-0.1-0.1-0.3-0.2-0.4l0,0l-2.9-3.9h0.4c1.6,0,3-1.3,3.1-2.9c0,0,0,0,0-0.1v-4.7c0-1.7,0.4-3.1,3.1-3.1h3.6v-5.2L119.7,223.5z
	 M104.8,198.9c-0.9,0.2-1.9,0.1-2.7-0.1c-0.8-0.3-1.5-0.9-1.9-1.7h0.4c1.5-0.1,2.9-0.8,4-1.8c1-1,2.5-1.1,3.6-0.2l0,0l-0.2,4
	c-1-0.2-2.1-0.2-3.1,0 M101,209.6L101,209.6c0.1,0.6,0.3,1.1,0.6,1.6l0,0c-0.9,1.6-2.9,2.3-4.6,1.4c-0.7-0.4-1.3-1.1-1.6-1.8l0,0
	l27.1-13.5l0,0c0,0.1,0,0.3,0,0.4c0,2.8-0.6,5-5,5c-0.7,0-1.3-0.1-1.9-0.4l0,0c0.4,0.3,0.8,0.6,1.2,0.8c-1.1,3.6-3.9,6.5-7.6,7.5
	C106.6,212.1,103.3,211.6,101,209.6 M110.1,225.7H108l0.5-13l0.8-0.2h0.2L110.1,225.7z M97.1,238c-0.4,0-0.8-0.2-1.1-0.4l-4.9-6.8
	c-0.1-0.2,0.3-0.5,0.5-0.3l5.2,5.1c0.6,0.6,1.5,1,2.4,1h2.8l1,1.4L97.1,238z M104.5,238l-1-1.4h3.6l1,1.4H104.5z M109.6,238
	l-0.9-1.4h3.6l1,1.4L109.6,238z M114.7,238l-1-1.4h3.6l1,1.4H114.7z M122.7,236.5c0,0.8-0.7,1.5-1.5,1.6h-1.4l-1-1.4
	c1-0.1,1.9-0.8,2.2-1.8v-0.1l2-4.2c-0.2,0.5-0.3,1-0.3,1.6L122.7,236.5z M129.3,226.9h-6.5c-0.9,0-3.7,2.4-3.7,2.4
	c-0.1,0.1-0.3,0.2-0.5,0.2h-18.1c-0.1,0-0.2-0.1-0.4-0.1l-4.7-2.4c-0.2-0.1-0.4-0.2-0.7-0.2H83.6c-0.8,0-0.9-1.5,0-1.5h14.3
	c0.2,0,0.5,0.1,0.7,0.2l1.9,1.4c0.5,0.3,1,0.4,1.6,0.4h15.3c0.4,0,0.7-0.2,1-0.5l0,0c0,0,1.8-1.6,2.1-1.6h8.9L129.3,226.9z
	 M117.6,235.2c0,0-0.8-1.1-1-1.3c-0.1-0.2,0-0.3,0.1-0.3c0.1,0,0.2,0.1,0.3,0.1c0.2,0.3,0.2,0.4,0.4,0.4c0.2,0,0.3-0.2,0.3-0.4
	c0,0,0,0,0,0c0-1.1-1-1.6-2-1.6c-1,0-1.8,0.5-1.8,1.6c0.1,0.2,0.3,0.4,0.5,0.3c0.4,0,0.2-0.5,0.5-0.5c0.1,0,0.2,0,0.3,0.1l0.7,0.9
	l0.4,0.5h-3.7c0,0-0.8-1.1-1-1.3c-0.1-0.2,0-0.3,0.1-0.3c0.1,0,0.2,0.1,0.3,0.1c0.2,0.3,0.2,0.4,0.4,0.4c0.2,0,0.4-0.1,0.4-0.3
	c0,0,0,0,0,0c0-1.1-1-1.6-2-1.6c-1,0-1.8,0.5-1.8,1.6c0.1,0.2,0.3,0.4,0.5,0.3c0.4,0,0.2-0.5,0.5-0.5c0.1,0,0.2,0,0.3,0.1l0.7,0.9
	l0.4,0.5h-3.8c0,0-0.8-1.1-1-1.3s0-0.3,0.1-0.3c0.1,0,0.2,0.1,0.3,0.1c0.2,0.3,0.2,0.4,0.4,0.4c0.2,0,0.4-0.3,0.4-0.3
	c0-1.1-1-1.6-2-1.6c-1,0-1.8,0.5-1.8,1.6c0.1,0.2,0.3,0.4,0.5,0.3c0.4,0,0.2-0.5,0.5-0.5c0.1,0,0.2,0,0.3,0.1l0.7,0.9l0.4,0.5h-3.6
	c0,0-1-1-1-1.3s0-0.3,0.1-0.3c0.1,0,0.2,0.1,0.3,0.1c0.2,0.3,0.2,0.4,0.4,0.4c0.2,0,0.3-0.1,0.4-0.3c0,0,0-0.1,0-0.1
	c0-1.1-1-1.6-2-1.6c-1,0-1.8,0.5-1.8,1.6c0.1,0.2,0.3,0.4,0.5,0.3c0.4,0,0.2-0.5,0.5-0.5c0.1,0,0.2,0,0.3,0.1l0.7,0.9l0.4,0.5h-2.2
	c-0.4,0-0.8-0.4-1-0.6l-5.1-4.8c-0.4-0.2-0.7-0.2-1.1-0.2h-3.8c-1,0-1-1.2,0-1.2h6.4c0.2,0,0.5,0.1,0.7,0.2l4.7,2.5
	c0.3,0.2,0.7,0.3,1,0.3h18.1c0.5,0.1,1-0.1,1.4-0.4l0,0l1.6-1.6l-2.4,4.9v0.1c-0.1,0.5-0.6,0.9-1.1,0.9L117.6,235.2L117.6,235.2z"/>
<path class="st1" d="M104.8,198.9c-0.9,0.2-1.9,0.1-2.7-0.1c-0.8-0.4-1.5-0.9-1.9-1.7h0.4c1.5-0.1,2.9-0.8,4-1.8
	c1-1,2.5-1.1,3.6-0.2l0,0l-0.2,4c-1-0.2-2.1-0.2-3.1,0 M101,209.6L101,209.6c0.1,0.6,0.3,1.1,0.6,1.6l0,0c-0.6,1.1-1.7,1.8-3,1.8
	c-1.4,0-2.7-0.9-3.2-2.2l0,0l27.1-13.5l0,0c0,0.1,0,0.3,0,0.4c0,2.8-0.6,5-5,5c-0.7,0-1.3-0.1-1.9-0.4l0,0c0.4,0.3,0.8,0.6,1.2,0.8
	c-1.1,3.6-3.9,6.5-7.6,7.5C106.6,212.1,103.3,211.6,101,209.6 M110.1,225.7H108l0.5-13l0.8-0.2h0.2L110.1,225.7z M97.2,238.1
	c-0.4,0-0.8-0.2-1.1-0.4l-4.9-6.8c-0.1-0.2,0.3-0.5,0.5-0.3l5.2,5.1c0.6,0.6,1.5,1,2.4,1h2.8l1,1.4L97.2,238.1z M104.5,238.1l-1-1.4
	h3.6l1,1.4H104.5z M109.6,238.1l-1-1.4h3.6l1,1.4L109.6,238.1z M114.7,238.1l-1-1.4h3.6l1,1.4H114.7z M122.7,236.5
	c0,0.8-0.7,1.5-1.5,1.6h-1.4l-1-1.4c1-0.1,1.9-0.8,2.2-1.8v-0.1l2-4.3c-0.2,0.5-0.3,1-0.3,1.6L122.7,236.5z M129.3,226.9h-6.5
	c-0.9,0-3.7,2.4-3.7,2.4c-0.1,0.1-0.3,0.2-0.5,0.2h-18.1c-0.1,0-0.2-0.1-0.4-0.1l-4.7-2.4c-0.2-0.1-0.4-0.2-0.7-0.2H83.6
	c-0.8,0-0.9-1.5,0-1.5h14.3c0.2,0,0.5,0.1,0.7,0.2l1.9,1.4c0.5,0.3,1,0.4,1.6,0.4h15.3c0.4,0,0.8-0.2,1-0.5l0,0c0,0,1.8-1.6,2.1-1.6
	h8.9L129.3,226.9z M117.6,235.2c0,0-0.8-1.1-1-1.3c-0.1-0.2,0-0.3,0.1-0.3c0.1,0,0.2,0.1,0.3,0.1c0.2,0.3,0.2,0.4,0.4,0.4
	c0.2,0,0.4-0.3,0.4-0.3c0-1.1-1-1.6-2-1.6c-1,0-1.8,0.5-1.8,1.6c0.1,0.2,0.3,0.4,0.5,0.3c0.4,0,0.2-0.5,0.5-0.5c0.1,0,0.2,0,0.3,0.1
	l0.7,0.9l0.4,0.5h-3.8c0,0-0.8-1.1-1-1.3s0-0.3,0.1-0.3c0.1,0,0.2,0.1,0.3,0.1c0.2,0.3,0.2,0.4,0.4,0.4c0.2,0,0.3-0.1,0.4-0.3
	c0,0,0-0.1,0-0.1c0-1.1-1-1.6-2-1.6s-1.8,0.5-1.8,1.6c0.1,0.2,0.3,0.4,0.5,0.3c0.4,0,0.2-0.5,0.5-0.5c0.1,0,0.2,0,0.3,0.1l0.7,0.9
	l0.4,0.5h-3.8c0,0-0.8-1.1-1-1.3c-0.1-0.2,0-0.3,0.1-0.3c0.1,0,0.2,0.1,0.3,0.1c0.2,0.3,0.2,0.4,0.4,0.4c0.2,0,0.4-0.1,0.4-0.3
	c0,0,0,0,0,0c0-1.1-1-1.6-2-1.6c-1,0-1.8,0.5-1.8,1.6c0.1,0.2,0.3,0.4,0.5,0.3c0.4,0,0.2-0.5,0.5-0.5c0.1,0,0.2,0,0.3,0.1l0.7,0.9
	l0.4,0.5h-3.6c0,0-1-1.1-1-1.3s0-0.3,0.1-0.3c0.1,0,0.2,0.1,0.3,0.1c0.2,0.3,0.2,0.4,0.4,0.4c0.2,0,0.3-0.1,0.4-0.3c0,0,0-0.1,0-0.1
	c0-1.1-1-1.6-2-1.6c-1,0-1.8,0.5-1.8,1.6c0.1,0.2,0.3,0.4,0.5,0.3c0.4,0,0.2-0.5,0.5-0.5c0.1,0,0.2,0,0.3,0.1l0.7,0.9l0.4,0.5h-2.2
	c-0.4,0-0.8-0.4-1-0.6l-5.1-4.8c-0.4-0.2-0.7-0.2-1.1-0.2h-3.8c-1,0-1-1.2,0-1.2h6.4c0.2,0,0.5,0.1,0.7,0.2l4.7,2.5
	c0.3,0.2,0.7,0.3,1,0.3h18.1c0.5,0.1,1-0.1,1.4-0.4l0,0l1.6-1.6l-2.4,4.9v0.1c-0.1,0.5-0.6,0.9-1.1,0.9L117.6,235.2z"/>
<path class="st4" d="M42.1,297.9c-0.3,0-2.1-0.7-2.1-0.7c-1-0.3-2-2.8-2-2.8c0.7-0.6,1.5-1.1,2.4-1.3c0,0,2.3-0.2,2.5-1.2
	c0-0.2,0-0.4,0-0.5c0,0,0.3,0.4,6.7,0.4s6.7-0.4,6.7-0.4v0.1c0,1.3,3.2,1.7,3.2,1.7c0.7,0.1,1.2,0.5,1.6,1.1
	c0.2,0.5-0.5,0.9-2.2,2.8c-0.5,0.5-1.8,0.3-2.4,0.4l-0.1,0.2c0.4,0.8,0.8,1.6,1.1,2.4c-0.3,0-0.6,0.1-0.8,0.2
	c-0.3,0.2-0.6,0.5-0.7,0.9c0.3,0.6,0.5,1.2,0.7,1.8c-0.5,0-0.9,0.1-1.3,0.4c0.5,1.1,0.5,2.3,0,3.3c-0.6-0.4-1.2-0.6-1.9-0.6h-0.6
	c0,2.8-1,2.9-1,2.9c-1-1.3-3.1,0.1-3.1,0.1c-1.2-0.5-1.9-2.7-1.9-2.7c-0.6,0.1-1.2,0.5-1.6,1c-0.6-1.1-1-2.3-1-3.6
	c-0.7,0.1-1.3,0.5-1.7,1c-1.6-1.8,0.3-4.7,0.3-4.7c-0.4,0-0.8,0-1.2,0c-0.9-0.2-1.2-0.1-1.2,0c0.4-0.9,1-1.7,1.6-2.5 M38.5,331.8
	c-0.1-0.4-0.1-0.7,0-1.1l0,0c-0.7,0-1.3,0.4-1.7,0.9c0.6-0.1,1.2,0,1.8,0.2L38.5,331.8z M39.1,335.1c-0.2-0.3-0.4-0.6-0.4-1
	c-0.6,0.3-1,0.8-1.1,1.5l0,0C38,335.3,38.5,335.1,39.1,335.1 M69.2,334c0-0.2,0-0.3,0-0.5c0-0.2,0-0.4,0-0.5c-0.6,0.1-1.1,0.5-1.5,1
	C68.2,333.9,68.8,333.9,69.2,334 M91,334.1c-0.1-0.3-0.1-0.7,0-1c-0.7,0.1-1.2,0.5-1.5,1.1C90,334.1,90.5,334.1,91,334.1
	 M51.3,282.6c2.4-0.2,3.9,0.5,4.7,2.3c0.3-0.3,0.4-0.6,0.5-1c0-0.5-0.4-1.5-2.6-2.1C51.7,281.1,51.3,282.4,51.3,282.6 M44.6,290.5
	c1.2,0.2,2.5,0.3,3.7,0.2c0.3,0,0.7-0.2,0.7-0.9c0-0.3-0.2-0.6-0.6-0.7c0,0-0.1,0-0.1,0c-1.2-0.1-2.4-0.1-3.6,0
	c-0.4,0.2-0.4,1.2,0,1.4 M44.5,287.9c0.2,0.2,1.4,0.1,1.4,0.1c0.1-0.8-0.5-1.4-1.3-1.5c0,0-0.1,0-0.1,0
	C44.5,286.5,44.3,287.7,44.5,287.9 M50.4,289.8c0,0.7,0.3,0.8,0.7,0.9c1.2,0.1,2.5,0,3.7-0.2c0.3-0.2,0.3-1.2,0-1.4
	c-1.2-0.1-2.4-0.1-3.6,0c-0.3,0-0.6,0.2-0.7,0.6c0,0,0,0,0,0.1 M55,286.6c-0.8,0-1.4,0.6-1.4,1.4c0,0,0,0.1,0,0.1c0,0,1.2,0,1.4-0.1
	C55.1,287.8,54.9,286.6,55,286.6 M50.6,283.8l-0.5,1.8l1.8-0.6v2.1l-1.8-0.6l0.5,1.6h1.8c-0.1-1.3,0.8-2.5,2.1-2.6
	c0.1,0,0.2,0,0.3,0c0.8,0-0.8-1.8-2.8-1.8c-0.4,0-0.9,0.1-1.3,0.2 M47.4,283.7c-2,0-3.6,1.8-2.8,1.8c1.3,0,2.4,1.1,2.3,2.4
	c0,0.1,0,0.2,0,0.3h1.8l0.5-1.6l-1.8,0.6v-2.4l1.8,0.6l-0.5-1.8c-0.4-0.1-0.9-0.2-1.3-0.2 M43.3,284.7c0.9-1.8,2.3-2.5,4.7-2.3
	c0-0.1-0.6-1.5-2.6-0.9s-2.6,1.6-2.6,2.1C42.8,284.1,43,284.4,43.3,284.7 M47.7,315.1c0.3,0.5,0.5,1,0.7,1.5c1-0.7,1.4-1.1,1.4-0.9
	s-0.4,0.9,1.6,3.3c2.8-1.2,2.1-4.5,2-5.4c1.6-0.1,3.6,1.9,3.6,1.9c0.6-0.9,0.9-1.8,1.1-2.8c0-0.7,0-1.5-0.1-2.2
	c0.8-0.6,1.8-1,2.9-1.1c-1-2.8,0.4-3.6,0.4-3.6s-1.2-1.1-0.3-3.6c0.2-0.7,0.6-1.4,1.1-2l-0.6-0.3c-0.5-0.2-0.9-0.6-1.2-1.1l-0.4-0.5
	c-0.8,0.5-1.2,0.4-1.2,0.4c1.1,2,1,2.8,1,2.8c-1.1-0.4-1.6,0.1-1.6,0.1v0.2c0.8,2,0.3,2.8,0.2,2.7c-0.5-0.2-0.7-0.1-0.7-0.1
	c0,0.6,0,0.6,0,0.6c0.1,1.8-0.8,3.5-2.3,4.4c0-0.7-0.5-1.3-1.2-1.4c-0.1,1.5-1,2.7-2.4,3.3c-0.6-2.2-3.4,0.1-3.4,0.1
	c-0.6-1-1.3-1.9-2-2.7c-0.4,0.3-0.6,1.8-0.6,1.8c-1.3-1-2.1-2.4-2.4-4c-0.3,0.2-0.5,0.6-0.6,1c-1.5-0.5-2-2.7-2-2.7
	c-0.2,1.2-0.7,2.3-1.6,3.2c0.3,1.3,2.1,0.7,2.1,0.7c0.2,1.2,0.2,2.5-0.2,3.6c1.5,0.2,1.8-0.2,1.8-0.2c1.6,0.8,2.7,2.4,2.9,4.3
	c0.7-0.3,1.3-0.8,1.8-1.4 M41.5,337.4c-0.3-0.2-0.5-0.6-0.6-0.9c-0.5,0.5-0.8,1.1-0.8,1.8l0,0C40.5,337.9,40.9,337.6,41.5,337.4
	 M47.7,330.2c1.1-0.8,2.3-1.3,3.6-1.6c-1.2-1.1,1.1-4.5,1.1-4.5c0.2,0.3,0.4,0.5,0.6,0.7c0.6-1.1,1.3-2.1,1.3-2.1
	c-0.5-1-1.1-1.8-1.8-2.6c0,0-1.4,1-1.4,1c-1.6-1.9-2.6-3.3-2.6-3.3c0.1,0.7,0.2,1.4,0.2,2.1c0,3-0.9,5.8-2.5,8.3
	c-1.1,1.3-2.4,2.4-3.9,3.2c-0.3-0.3-0.6-0.6-0.9-0.8c-1-0.7-1.4-0.2-1.4-0.2c-0.3,0.2-0.4,0.6-0.3,0.9c0.1,0.6,0.9,0.7,0.9,0.7
	c0.7,0.1,1.3,0.5,1.7,1c-0.4-0.2-0.9-0.2-1.4-0.2c-0.8,0-0.8,0.6-0.8,0.6c-0.1,0.3,0,0.7,0.2,1c0.3,0.2,0.8,0.2,1.1,0
	c1.4-0.7,1.7,0,1.7,0c-0.7,0.2-1.4,1-0.8,1.8c0.7,0.8,2.7-1.3,2.7-1.3c0.5-0.6,1.1-1.1,1.8-1.3c-1.2-1.8,1.1-3.6,1.1-3.6
	 M50.5,335.2l-0.1-0.2c-0.1-0.1-0.1-0.2-0.2-0.3c0-0.2,0-0.4,0-0.6l0,0c-0.6,0.3-1,0.8-1.2,1.4c0,0,0,0,0,0.1
	c0.5-0.2,1.1-0.4,1.6-0.5 M52.9,337.3L52.9,337.3l-0.6-0.1h-0.1l-0.4-0.3c-0.3,0.6-0.3,1.2,0,1.8l0,0c0.3-0.5,0.6-0.9,1-1.3
	 M56.3,338.1c-0.3-0.1-0.5-0.3-0.7-0.5l0,0h-0.1c-0.3,0.6-0.3,1.2,0,1.8l0,0C55.7,338.9,55.9,338.5,56.3,338.1 M73.2,318.4
	c2.1-1.6,4.6-2.4,7.2-2.3c-1.3-0.7-2.7-1.1-4.2-1c-1.5,0.2-3,0.9-4.2,1.8L73.2,318.4z M71.3,330.8L71.3,330.8c0-0.2,0.1-0.3,0.1-0.4
	c0-0.2,0.2-0.3,0.3-0.5h-0.3c-0.6-0.1-1.1,0-1.6,0.3C70.4,330.3,70.9,330.5,71.3,330.8 M71.1,337.6l-0.3-0.3l0,0
	c-0.1-0.1-0.2-0.3-0.2-0.4c-0.5,0.4-0.7,0.9-0.8,1.5C70.3,338.1,70.7,337.8,71.1,337.6L71.1,337.6z M82.4,323.7
	c-0.5,0.2-1,0.2-1.5,0c1.8-4.9,1-5.4,1-5.4c-0.2-0.4-1.1-0.7-1.1-0.7c-2.5-0.3-5.1,0.5-7,2.2c-0.7,0.7-0.9,1.7-0.5,2.6
	c0.3-0.2,0.6-0.4,0.9-0.6c2-1,1.4,1.5,4.6,2.2c0,0,2.2,1,2.4,2.7c0.2,1.2-0.1,2.3-0.7,3.3c-0.5,1-1.6,1.6-2.8,1.6
	c-0.5,0-1.1,0-1.6-0.1c-0.9-0.1-1.7-0.5-2.4-0.9c-1-0.4-0.9,1.1-0.9,1.1c1.6,0.7,1.5,1.5,1.5,1.5c-3-1.4-3.6,0.1-3.6,0.1
	c-0.1,0.4,0.1,0.8,0.5,0.9c0.8,0.3,1.6,0.4,2.5,0.5c-1.4,0.7-1.3,1.5-1.3,1.5c0,0.9,1.2,0.4,1.2,0.4c0.9-0.5,1.6-1.1,2-2
	c0.7,0.2,1.3,0.8,1.5,1.5c1.2-1.9,1.9-2.2,1.9-2.2c1-0.7,2.1-1.3,3.2-1.7c0.6,0,1.3,0.2,1.8,0.6c0-1-0.3-2-0.7-2.9
	c0.6,0,1.2,0.1,1.7,0.3c-0.4-1-0.5-2.1-0.3-3.1c-1.3-0.6-2.1-2-2-3.5 M92.2,329.9c-0.7-0.1-1.3,0.2-1.8,0.7c0.5,0.1,1.1,0.2,1.6,0.4
	l0,0c0-0.1,0-0.1,0-0.2c0-0.1,0-0.2,0-0.2l0,0c0-0.1,0-0.2,0-0.3c0-0.1,0.1-0.1,0.1-0.2 M93.6,337.2c-0.2-0.2-0.4-0.3-0.6-0.6
	l-0.1-0.2c-0.4,0.5-0.6,1.2-0.5,1.8C92.7,337.9,93.2,337.5,93.6,337.2 M93.9,333.2c0,0-0.6-0.5-1-0.3c0,0-0.7,0.1-0.7,0.7
	c0,0.3,0.2,0.6,0.4,0.8l0.2,0.1C92.8,334.5,93.2,333.4,93.9,333.2 M103,329.8c-0.5-0.5-0.7-1.1-0.7-1.8c-0.2-1.5,0-3,0.6-4.4
	c-0.7,0.1-1.4,0.1-2,0c-0.1-1-0.4-2-1-2.8c-0.4,0.6-0.7,1.3-0.8,2.1c-4-1.3-4.7-3.6-4.7-3.6c-0.4-1.3-0.5-2.6-0.4-3.9
	c0.3-3.2-0.6-3.6-0.6-3.6c-0.6-1.2-1.2-1.3-1.8-1.2c-0.6,0.1-1.7,1.6-1.7,1.6c0.1-0.7,0.3-1.4,0.7-2c0.9-1.4,3.1-1.2,3.1-1.2
	c2.9-0.4,5-2.9,5-5.8c0.2-2.5-1.4-4.9-3.8-5.7c-0.9-0.2-1.8-0.3-2.7-0.3c-0.9,0-1.8-0.1-2.7-0.2c-1.8-0.3-2.3-2.6-2.3-2.5
	c-0.6,0.8-0.7,1.8-0.4,2.7c-0.9,0.1-1.8-0.1-2.6-0.5c-0.7-0.3-1.3-0.9-1.4-1.6c-0.1,0.9-0.2,1.8-0.1,2.7c-3.6-0.2-12.5-0.5-12.5-4.8
	c0-2.7,6.2-3.6,10-2.1c0,0,0.3-1.8,0-2.2c0,0,4.1,2.8,7.1,1.3c0.6-0.3,1.2-0.6,1.7-1c0,0-0.5,0.3-3.6-0.1c-1.4-0.2-1.1-0.6-0.5-1.8
	c-1.4,0-1-0.3-3.3-0.8c-1.6-0.3-3.2,0.1-4.5,0.9c-0.3-2-1.2-2.4-1.2-2.4c0,1.1-0.5,2.1-1.3,2.7c-0.8,0.6-1.7,1-2.7,1.2
	c-1.6,0.5-3.9,1.4-3.9,4.5c0,4.7,5.6,5.8,9.5,6.2c1.3,0.1,2.6,0.1,4,0c0,0.2,0.2,1.3,0.2,1.3c1-1,2.7-1,3.7,0c0,0,0.6-1.6,2.1-1.6
	c1.1,0.1,2.1,0.6,2.7,1.6c0.6-1.2,1.8-1.9,3.1-1.8c2.3,0.1,4.1,2,4.1,4.3c-0.1,2.3-2,4.1-4.3,4.1c-1.9,0.2-3.8,0-5.6-0.5
	c-1.4-0.7-3-1.2-4.6-1.4c-1.9-0.1-3.8,0.2-5.7,0.8c-3.1,0.4-6.2,0.4-9.3,0l-0.8-0.2c-1.8-0.5-3.4-1.4-4.8-2.7
	c-0.1,0.4-0.1,0.9,0,1.3c0.3,0.8,0.8,1.5,1.4,2.1c-1.4-0.1-1.6,0.7-1.6,0.7c-0.3,0.6-0.3,1.2,0,1.8c0.8,1.3,1.4,2.8,1.4,2.8
	c-0.5-0.3-1-0.6-1.6-0.7c-2.2-0.2-2.5,0.5-2.5,0.5c0.1,0.2,0.1,0.5,0.1,0.7c0.1,1.3-0.3,2.6-1.1,3.7c-0.3,0.6-0.6,1.2-0.9,1.8
	c-0.7-1-1.6-1.8-2.7-2.3c0.3,1.3-0.1,2.6-1,3.5c1.6,1.9,2.8,4,3.5,6.3c1.5,4.3,0.8,5.7,0.8,5.7c-0.4,1.2-1.5,2.1-2.8,2.2
	c-0.6,0.1-1.2,0-1.8-0.2c-0.4-0.4-1.2-0.4-1.6,0c-0.3,0.3-0.4,0.7-0.3,1.1c0.2,0.6,1,0.2,1,0.2c0.8-0.3,1,0.2,1,0.2
	c-0.7,0-0.8,0.9-0.8,0.9c0,0.6,0.5,0.7,0.5,0.7c0.6,0.1,1.2,0,1.7-0.4c0.4-0.2,0.4-0.8,1-1.2c0.4-0.2,0.9-0.2,1.3,0
	c-0.5,0-0.9,1-0.9,1c-0.3,1.2,1,1.2,1,1.2c0.7,0,0.9-1.2,0.9-1.2c0.4-0.6,1.1-1,1.8-1.1c0.7-0.2,0.6-0.5,0.8-1.8
	c0.4-1.5,1.1-3,2-4.3c-2.4-0.4-2.2-2.1-2.2-2.1c0.5,0,0.9-0.3,1.2-0.7c-0.8-0.7-1.4-1.6-1.7-2.6c-0.2-1.5,0-3,0.6-4.3
	c0.5-1.5,1.5-2.9,2.7-4c-0.6,1.2-1,2.5-1.2,3.8c2.2,0.3,4.2-1.2,4.5-3.4c0.1-0.7,0-1.3-0.2-2c1,1.5,1.2,3.4,0.4,5
	c4.8-1.1,3.3-6.1,3.3-6.1c1,0.7,1.5,1.9,1.4,3.2c1.1-1,2.5-1.5,3.9-1.6c-0.3-0.4-0.6-0.7-1-1c7-0.4,8.7,4.2,8.7,4.2
	c0.7,1.4,0.9,3,0.4,4.5c0.7-0.3,3.1-2,3.1-2c0.2,1.5,0.6,3,1.2,4.4c0-2.3,2.9-0.7,2.9-0.7c1.2,0.7,6.2,2.5,6.2,2.5
	c0.8,0.3,1.4,0.9,1.7,1.6c0.4,1,0.4,2.1,0.1,3.1c-0.3,1-1.2,1.7-2.2,1.8c-0.4,0-1.2-0.7-1.2-0.7c-0.3-0.3-0.6-0.6-0.9-0.9
	c-0.2-0.1-0.5,0-0.8,0.1c-0.3,0.1-0.1,0.7-0.1,0.7c0.1,0.3,0.2,0.5,0.5,0.6c0.6,0.2,1.1,0.7,1.3,1.3c0.9,0,1.8,0.6,2,1.5
	c-0.7-0.7-1.8-0.7-2.6,0c0,0,0,0,0,0c-0.3,0.3-0.4,0.7-0.2,1c0.5,0.8,1,0.5,2,0c1-0.3,2.1-0.5,3.1-0.5c0.6,0,0.9-0.2,1-0.4
	c0.1-0.6,0.1-1.2,0.1-1.8C100.7,331.2,102.9,329.7,103,329.8"/>
<path class="st0" d="M104,328c-0.1-0.9-0.1-1.9-0.1-2.8c0-1.2,1.8-2.1,1.8-2.1c-0.9-1-3.3-0.8-3.3-0.8c0-0.6-1.3-2.2-1.7-3.7
	c-1.8,0-2.5,2.2-2.5,2.2c-0.7-0.4-1.3-0.9-1.8-1.5c-0.9-1-0.5-4.4-0.5-4.4c0-4.6-1.4-4.3-1.4-4.3c6.5-1.1,6-7.8,6-7.8
	c-0.1-4-3.4-7.2-7.4-7.1c-0.2,0-0.4,0-0.6,0h-1.8c-2.4,0-2.3-3-2.3-3c-2.4,0.2-2.8,3-2.8,3c-2.1-0.3-1.8-2.9-1.8-2.9
	c-2.2,0.3-2.4,3.6-2.4,3.6c-3.3,0-9.7-0.8-9.7-3.1c0-0.9,0.8-1.7,5.6-1.7c1.5,0.1,2.9,0.7,4,1.8c0.2-0.8,0.2-1.7,0.2-2.5
	c1.9,1.2,4.2,1.5,6.3,0.7c1.8-0.7,3.3-2.3,3.9-4.1c0,0-1.1,1-5.6,0.5c0.5-0.8,0.9-1.7,1.1-2.7c-1,0.6-2.1,0.8-3.2,0.4
	c-1.9-1-4.1-1.1-6-0.2c0,0-1.1-2.6-3.1-2.8c0,0,1.4,3.1-3.2,4.8c-0.9,0.3-4.9,1.5-4.9,5.6c0,4.1,3.8,7.6,13.9,7.6
	c0.1,0.6,0.2,1.2,0.4,1.8c0,0,1.8-2.8,5.1-0.2c0,0,0.6-2.1,2-2.1s2.1,2.1,2.7,2.3c0.1-1.1,1-2.1,2.1-2.2c0,0,2.7-0.5,2.8,2.7
	c0,0,0.1,2.4-3.2,2.6c-1.9,0.1-3.9-0.2-5.7-0.9c-2.9-1.1-6.1-1.2-9-0.2c-3.3,0.7-6.7,0.7-10,0c-2.9-0.6-4.6-1.6-4.6-2.8
	s1.6-0.7,1.5-1c-0.2-0.7-0.9-1.1-1.8-1.6c-2.3-0.9-2.7-1.4,0.2-4.2c0,0,0.2-1.4-1.7-2.7c-0.5-0.3-1.2-0.5-1.8-0.5
	c0.4-0.7,0.6-1.6,0.6-2.4c0,0-2.6,0.2-3.1,1.3c0,0-0.7,0-0.7-0.6c0-0.6,0-1.8,0-1.8c0-1.6,0.2-1.6,0.6-2.2c0.7-0.9,0.9-2.2,0.4-3.2
	c-1.2-1.4-2.9-2.1-4.7-2c-0.7,0.2-1.2,0.6-1.6,1.1l0,0l-0.6-2l1.9,0.6v-2.3l-1.9,0.7l0.5-2.1h-2.2l0.6,2l-1.9-0.7v2.3l1.9-0.6
	l-0.6,2l0,0c-0.4-0.6-1-1-1.6-1.1c-1.8-0.2-3.6,0.6-4.7,2c-0.5,1.1-0.3,2.3,0.4,3.2c0.4,0.6,0.6,0.5,0.6,2.1c0,0,0,1.2,0,1.8
	c0,0.6-0.7,0.6-0.7,0.6c-0.5-1.1-3.1-1.3-3.1-1.3c0,0.8,0.1,1.7,0.5,2.4l0.1,0.2c-3.4,1.1-4.6,2.4-3.5,3.8c0.7,0.9,1.4,1.8,2.1,2.8
	c0.3,0.3,0.6,0.4,1,0.5c-0.8,1-1.3,2.3-1.4,3.6c0.6-0.5,1.4-0.7,2.2-0.5h0.1c-0.1,0.4-0.1,0.7-0.1,1.1c-0.3,0-0.5,0.1-0.7,0.3
	c-0.3,0.4-0.5,0.9-0.5,1.4c-0.1,0.8-0.4,1.6-0.9,2.2l0,0c-0.2,0.5-0.6,0.8-1.1,1c0.3,1.3,1.4,2.2,2.7,2.3c0.8,0.8-0.5,3.3-0.5,3.3
	c2,1.1,2.9,0.3,2.9,0.3c2.7,1.1,2.1,5.3,2.1,5.3c0.7-0.6,1.6-1,2.5-1.3c0.6,1.4,0,6.2-1.4,8.7c-0.7,1.4-1.8,2.5-3.2,3.2
	c-0.6-0.6-1.5-0.9-2.3-0.7c-0.6,0.1-1.1,0.4-1.3,1c0,0-2.6,0-2.9,2.4c0.9-0.3,1.9-0.3,2.8,0.1l0.3,0.1l0.2,0.2
	c-0.1,0.2-0.2,0.3-0.3,0.5h-0.2c-1.3,0.6-2,2-1.7,3.4c0.7-0.7,1.6-1.1,2.6-1.1c0.3,0.2,0.6,0.4,0.9,0.4c-1.1,0.9-1.3,2.4-0.6,3.6
	c0.5-0.8,1.3-1.4,2.2-1.7h0.4c0.2,0,0.5,0,0.7,0c1.3,0,2.8-1.9,2.8-1.9c0.7-0.6,1.6-0.9,2.5-0.9c-0.3,0.6-0.3,1.2-0.1,1.8
	c0.7-0.6,1.7-1,2.6-1h0.6c0,0,0,0.1,0,0.1l-0.1,0.2c-0.7,1.2-0.4,2.8,0.6,3.7c0.2-0.9,0.7-1.8,1.5-2.3l0.3-0.2
	c0.5-0.1,1-0.3,1.2-0.7v0.1v0.2c0,0-1.1,2.5,0.9,3.6c0.1-0.9,0.5-1.8,1.2-2.4h0.3c0.9,0.1,1.8-0.5,2-1.4c0.1-0.4,0.4-0.6,0.8-0.7
	c1.8-0.3,1.7-0.7,1.9-1.2c0.1-0.8,0.2-1.5,0.2-2.3c0.5-1.9,1.4-3.8,2.5-5.4c-0.7,0.1-1.5,0-2.2-0.3c0.3-0.1,0.5-0.2,0.7-0.4
	c0.3-0.3,0.7-0.5,1.1-0.5c-0.4-0.4-0.9-0.9-1.4-1.2c-1.6-0.8-2.1-2.8-1.3-4.3c0,0,0,0,0,0c6.5,0.4,9-2.3,9-2.3l1.2,1.5
	c-0.9,2-0.3,4.5,1.6,5.7c-0.3-0.9,0.2-1.9,1-2.2c0.5,1.4,3.5,2.6,3.5,2.6c1,0.3,1.6,1.4,1.3,2.4c0,0,0,0,0,0
	c-0.2,1.3-1.2,2.2-2.5,2.3c-0.6,0.1-1.2,0-1.8-0.3c-0.5-0.4-1.1-0.7-1.8-0.8c-0.3,0-0.6,0-0.8,0.1h-0.3c-1.4-0.5-2.9,0.1-3.6,1.3
	c0.9,0,1.7,0.3,2.4,0.9c-0.7,0-1.4,0.3-1.8,0.9l0,0c0,0-2.6,0.3-2.7,2.6c0.9-0.4,1.9-0.4,2.8-0.1h0.1c0.3,0.4,0.8,0.6,1.3,0.7l0,0
	c-0.1,0.1-0.3,0.1-0.4,0.2c-1.1,0.8-1.6,2.3-1,3.6c0.6-0.8,1.4-1.3,2.3-1.5h0.1c0.2,0.1,0.4,0.1,0.7,0.1c1.1,0.3,2.6-1.3,2.6-1.3
	c0.7,1.1,0.9,1.1,0.9,1.1c0.9,0.7,2.1-0.8,2.1-0.8c0.5-0.7,1.2-1.3,1.8-1.8c2.2-1.7,3.2-0.9,3.2-0.9c0.5,0.2,1,0.6,1.2,1.1
	c1.3-0.8,0.9-3.8,0.9-3.8c0.7,0.3,1.4,0.7,2,1.2c0-1.2-0.4-2.3-1.1-3.3c-0.5-1.1-0.4-2.4,0.3-3.3c-0.6-0.2-1.2-0.5-1.8-0.9
	c-1-0.6-0.7-2.5-0.7-2.5c0.5-0.3,1-0.5,1.4-0.9c1.4,3.9,3,4.1,3,4.1c0-0.6,0-2,0.5-2.1c2.4,0.9,4.7,1.9,7,3c1.1,0.4,1,2,1,2
	c0.1,0.7-0.4,1.3-1.1,1.4c-0.5-1.1-1.8-1.7-2.9-1.2c-0.2,0.1-0.3,0.1-0.4,0.2h-0.2c0,0-2.6-0.3-3.2,2c0.9-0.2,1.9,0,2.7,0.5l0,0
	c-0.3,0.2-0.7,0.4-0.9,0.7h-0.1c0,0-2.6,0.4-2.6,2.8c0.9-0.4,1.8-0.5,2.8-0.3l0,0c0.4,0.4,0.8,0.7,1.3,0.8c-0.8,1.1-0.8,2.6,0.1,3.7
	c0.4-0.9,1.1-1.6,2-2l0,0c0.5,0.1,0.9,0.1,1.4,0c0.9-0.5,2-0.8,3.1-0.8c3.1,0,3.4-1.2,3.4-3.3c0-2.2,3.6-3.1,3.6-3.1
	C105.5,330,104.1,328.9,104,328z M38.5,331.8c-0.6-0.2-1.2-0.3-1.8-0.2c0.4-0.5,1-0.9,1.7-0.9l0,0c-0.1,0.4-0.1,0.7,0,1.1
	L38.5,331.8z M37.5,335.7L37.5,335.7c0.1-0.6,0.6-1.2,1.1-1.5c0,0.4,0.2,0.7,0.4,1C38.5,335.2,38,335.3,37.5,335.7L37.5,335.7z
	 M67.7,334.1c0.3-0.5,0.9-0.9,1.5-1c0,0.2,0,0.4,0,0.5c0,0.2,0,0.3,0,0.5c-0.5-0.1-1-0.2-1.5-0.2V334.1z M89.3,334.4
	c0.3-0.6,0.9-1,1.5-1.1c-0.1,0.3-0.1,0.7,0,1c-0.5-0.1-1-0.1-1.5-0.1V334.4z M53.9,281.9c2.2,0.7,2.6,1.6,2.6,2.1
	c0,0.4-0.2,0.7-0.5,1c-0.9-1.8-2.3-2.5-4.7-2.3c0-0.3,0.6-1.6,2.6-1V281.9z M44.6,289.2c1.2-0.1,2.4-0.1,3.6,0
	c0.3,0,0.6,0.2,0.7,0.6c0,0,0,0,0,0.1c0,0.7-0.3,0.8-0.7,0.9c-1.2,0.1-2.5,0-3.7-0.2c-0.3-0.4-0.3-1.4,0.1-1.6V289.2z M44.4,286.6
	c0.8,0,1.4,0.6,1.4,1.4c0,0,0,0.1,0,0.1c0,0-1.2,0-1.4-0.1C44.2,287.8,44.4,286.6,44.4,286.6z M49.7,283.3L49.7,283.3z M49.7,282.1
	L49.7,282.1z M51,289.2c1.2-0.1,2.4-0.1,3.6,0c0.4,0.2,0.3,1.2,0,1.4c-1.2,0.2-2.5,0.3-3.7,0.2c-0.3,0-0.7-0.2-0.7-0.9
	c-0.1-0.3,0.1-0.7,0.4-0.8C50.8,289.1,50.9,289.1,51,289.2L51,289.2z M54.9,287.9c-0.2,0.2-1.4,0.1-1.4,0.1
	c-0.1-0.8,0.5-1.4,1.3-1.5c0,0,0.1,0,0.1,0C55,286.6,55.1,287.6,54.9,287.9L54.9,287.9z M51.9,283.6c2,0,3.6,1.8,2.8,1.8
	c-1.3,0-2.4,1.1-2.3,2.4c0,0.1,0,0.2,0,0.3h-1.8l-0.5-1.6l1.8,0.6v-2.2l-1.8,0.6l0.5-1.8C51.1,283.5,51.5,283.4,51.9,283.6
	L51.9,283.6z M48.7,283.8l0.5,1.8l-1.8-0.6v2.1l1.8-0.6l-0.5,1.6h-1.8c0.1-1.3-0.8-2.5-2.1-2.6c-0.1,0-0.2,0-0.3,0
	c-0.8,0,0.8-1.8,2.8-1.8C47.8,283.6,48.3,283.6,48.7,283.8L48.7,283.8z M42.9,283.9c0-0.5,0.4-1.5,2.6-2.1c2.2-0.7,2.6,0.7,2.6,0.9
	c-2.4-0.2-3.9,0.5-4.7,2.3C43,284.6,42.9,284.3,42.9,283.9L42.9,283.9z M39.9,297.2c-1-0.3-2-2.8-2-2.8c0.7-0.6,1.5-1.1,2.4-1.3
	c0,0,2.3-0.2,2.5-1.2c0-0.2,0-0.4,0-0.5c0,0,0.3,0.4,6.7,0.4s6.7-0.4,6.7-0.4v0.1c0,1.3,3.2,1.7,3.2,1.7c0.7,0.1,1.2,0.5,1.6,1.1
	c0.2,0.5-0.5,0.9-2.2,2.8c-0.5,0.5-1.9,0.3-2.4,0.4v0.2c0.4,0.8,0.8,1.6,1.1,2.4c-0.3,0-0.6,0.1-0.8,0.2c-0.3,0.2-0.6,0.5-0.7,0.9
	c0.3,0.6,0.5,1.2,0.7,1.8c-0.5,0-0.9,0.1-1.3,0.4c0.5,1.1,0.5,2.3,0,3.3c-0.6-0.4-1.2-0.6-1.9-0.6H53c0,2.8-1,2.9-1,2.9
	c-1-1.3-3.1,0.1-3.1,0.1c-1.2-0.5-1.9-2.7-1.9-2.7c-0.6,0.1-1.2,0.5-1.6,1c-0.6-1.1-1-2.3-1-3.5c-0.7,0.1-1.3,0.5-1.7,1
	c-1.6-1.8,0.3-4.6,0.3-4.6c-0.4,0-0.8,0-1.2,0c-0.9-0.2-1.2-0.1-1.2,0c0.4-0.9,1-1.7,1.6-2.5C41.8,297.8,39.9,297.2,39.9,297.2z
	 M45.8,316.5c-0.2-1.8-1.3-3.4-2.9-4.3c0,0-0.3,0.4-1.8,0.2c0.4-1.2,0.5-2.4,0.2-3.6c0,0-1.8,0.6-2.1-0.7c0.9-0.9,1.4-2,1.6-3.2
	c0,0,0.5,2.2,2,2.7c0-0.4,0.3-0.8,0.6-1c0.3,1.6,1.1,3,2.4,3.9c0,0,0.2-1.4,0.6-1.8c0.7,0.9,1.4,1.8,2,2.7c0,0,2.8-2.4,3.4-0.1
	c1.3-0.6,2.3-1.9,2.4-3.3c0.7,0.1,1.2,0.7,1.2,1.4c1.5-0.9,2.4-2.6,2.3-4.4c0,0,0,0,0-0.6c0,0,0.2-0.1,0.7,0.1
	c0.2,0,0.7-0.7-0.2-2.7v-0.2c0,0,0.5-0.5,1.6-0.1c0,0,0.1-0.8-1-2.8c0,0,0.4,0.1,1.2-0.4l0.3,0.5c0.3,0.5,0.7,0.9,1.2,1.1l0.6,0.3
	c-0.6,0.5-0.9,1.2-1.1,2c-0.9,2.5,0.3,3.6,0.3,3.6s-1.3,0.8-0.4,3.6c-1.1,0.1-2.1,0.5-2.9,1.1c0.1,0.7,0.2,1.5,0.2,2.2
	c-0.2,1-0.6,1.9-1.2,2.7c0,0-2.1-2-3.6-1.9c0.2,0.9,0.9,4.2-2,5.4c-2-2.4-1.6-3.1-1.6-3.3s-0.4,0.1-1.4,0.9c-0.2-0.5-0.4-1-0.7-1.5
	C47.2,315.7,46.5,316.2,45.8,316.5L45.8,316.5z M40,338.2L40,338.2c0-0.7,0.3-1.4,0.8-1.8c0.1,0.4,0.3,0.7,0.6,0.9
	C40.9,337.6,40.5,337.9,40,338.2L40,338.2z M46.7,333.6c-0.7,0.2-1.4,0.7-1.8,1.3c0,0-1.8,2.3-2.6,1.3c-0.8-1,0.1-1.6,0.8-1.8
	c0,0-0.3-0.7-1.7,0c-0.3,0.2-0.8,0.2-1.1,0c-0.2-0.3-0.3-0.6-0.2-1c0,0,0-0.5,0.8-0.6c0.5-0.1,1,0,1.4,0.2c-0.4-0.5-1-0.9-1.7-1
	c0,0-0.8,0-0.9-0.7c-0.2-0.3-0.1-0.7,0.3-0.9c0,0,0.4-0.5,1.4,0.2c0.3,0.3,0.6,0.5,0.9,0.8c1.5-0.8,2.9-1.9,4-3.2
	c1.6-2.5,2.5-5.4,2.5-8.4c0-0.7-0.1-1.4-0.2-2.1c0,0,0.9,1.4,2.6,3.3l1.4-1c0.7,0.8,1.3,1.7,1.8,2.6c0,0-0.7,1-1.3,2.1
	c-0.2-0.2-0.4-0.5-0.6-0.7c0,0-2.4,3.4-1.1,4.5c-1.3,0.3-2.5,0.9-3.6,1.6C47.7,330,45.5,331.8,46.7,333.6z M48.8,335.7
	C48.8,335.7,48.8,335.7,48.8,335.7c0.2-0.7,0.6-1.2,1.2-1.5l0,0c0,0.2,0,0.4,0,0.6c0,0.1,0.1,0.2,0.2,0.3l0.1,0.2
	C49.8,335.4,49.3,335.5,48.8,335.7L48.8,335.7z M50.2,333c0,0.1,0,0.2,0,0.3c-0.6,0.2-1.1,0.5-1.5,1c-3.6-3.3,4.1-5,4.4-5.1
	c-0.9-0.8-1-2.2-0.2-3.1c0.8,0.9,1.5,0.6,1.5,0.6c-0.6-2,0.7-2.7,0.7-2.7c0.8,1.6,1.3,3.3,1.5,5.1c0.3,1.1-0.4,2.3-1.6,2.6
	c-0.3,0.1-0.6,0.1-0.9,0c-0.9-0.9-2.4-0.9-3.3,0C50.5,332.2,50.3,332.6,50.2,333L50.2,333z M51.8,338.6L51.8,338.6
	c-0.3-0.6-0.3-1.2,0-1.8c0.1,0.1,0.3,0.2,0.4,0.3h0.1l0.4,0.1l0,0C52.3,337.7,52,338.2,51.8,338.6L51.8,338.6z M55.6,339.3
	L55.6,339.3c-0.3-0.6-0.3-1.2,0-1.8h0.1l0,0c0.2,0.2,0.5,0.4,0.7,0.5C56.1,338.4,55.8,338.8,55.6,339.3L55.6,339.3z M72.2,316.8
	c1.2-1,2.7-1.6,4.2-1.8c1.5-0.1,2.9,0.2,4.2,1c-2.6-0.1-5.2,0.7-7.2,2.3L72.2,316.8z M70,330c0.5-0.3,1-0.5,1.6-0.3h0.3
	c-0.1,0.2-0.2,0.3-0.3,0.5c-0.1,0.1-0.1,0.3-0.1,0.4l0,0C71,330.3,70.5,330.1,70,330z M71.2,337.4c-0.4,0.2-0.9,0.4-1.3,0.7
	c0-0.6,0.3-1.2,0.8-1.5c0.1,0.2,0.1,0.3,0.2,0.4l0,0L71.2,337.4L71.2,337.4z M84.4,327c-0.2,1-0.1,2.1,0.3,3.1
	c-0.6-0.2-1.2-0.3-1.8-0.3c0.4,0.9,0.7,1.9,0.7,2.9c-0.5-0.3-1.2-0.5-1.8-0.6c-1.1,0.4-2.2,1-3.2,1.7c0,0-0.7,0.3-1.9,2.2
	c-0.2-0.7-0.7-1.3-1.5-1.5c-0.5,0.8-1.2,1.5-2,2c0,0-1.2,0.5-1.2-0.4c0,0,0-0.8,1.3-1.5c-0.8-0.1-1.7-0.2-2.5-0.5
	c-0.4-0.1-0.6-0.5-0.5-0.9c0,0,0.7-1.5,3.6-0.1c0,0,0.1-0.7-1.5-1.5c0,0-0.2-1.5,0.9-1.1c0.7,0.5,1.5,0.8,2.4,0.9
	c0.5,0.1,1.1,0.1,1.6,0.1c1.2,0.2,2.4-0.4,3-1.5c0.7-1,1-2.2,0.8-3.4c-0.2-1.8-2.4-2.7-2.4-2.7c-3.2-0.7-2.6-3.1-4.6-2.2
	c-0.3,0.2-0.6,0.4-0.9,0.6c-0.4-0.9-0.2-1.9,0.5-2.6c1.9-1.7,4.5-2.5,7-2.2c0,0,1,0.3,1.1,0.7c0,0,0.8,0.5-1,5.4
	c0.5,0.2,1,0.2,1.5,0C82.3,325.1,83.1,326.4,84.4,327L84.4,327z M92,330c0,0.1,0,0.2,0,0.3l0,0c0,0.1,0,0.3,0,0.4l0,0
	c-0.5-0.2-1-0.3-1.6-0.4c0.5-0.5,1.1-0.7,1.8-0.7L92,330z M92.4,338.2c-0.1-0.6,0.1-1.3,0.5-1.8l0.1,0.2c0.2,0.2,0.4,0.4,0.6,0.6
	C93.1,337.4,92.7,337.8,92.4,338.2L92.4,338.2z M92.8,334.4l-0.2-0.1c-0.3-0.2-0.4-0.5-0.4-0.8c0-0.6,0.7-0.7,0.7-0.7
	c0.4-0.1,1.1,0.3,1.1,0.3C93.2,333.3,92.8,334.5,92.8,334.4L92.8,334.4z M100.6,332.8c0,0.6,0,1.2-0.1,1.8c-0.1,0.2-0.4,0.4-1,0.4
	c-1.1,0-2.1,0.1-3.1,0.5c-1,0.5-1.5,0.8-2,0c-0.1-0.3-0.1-0.7,0.2-1c0.7-0.7,1.8-0.7,2.6,0c0,0,0,0,0,0c-0.2-0.9-1.1-1.5-2-1.5
	c-0.2-0.6-0.7-1.1-1.3-1.3c-0.2-0.1-0.4-0.3-0.5-0.6c0,0-0.1-0.5,0.1-0.7c0.3-0.2,0.6-0.3,0.8-0.1c0.3,0.3,0.6,0.6,0.9,0.9
	c0,0,0.7,0.7,1.2,0.7c1-0.1,1.9-0.8,2.2-1.8c0.3-1,0.3-2.1-0.1-3.1c-0.3-0.8-0.9-1.3-1.7-1.6c0,0-4.9-1.8-6.2-2.5
	c0,0-2.9-1.5-2.9,0.7c-0.6-1.4-1-2.9-1.2-4.4c0,0-2.4,1.7-3.1,2.1c0.5-1.5,0.4-3.1-0.4-4.5c0,0-1.7-4.5-8.7-4.2c0.4,0.3,0.7,0.7,1,1
	c-1.4,0.1-2.8,0.7-3.9,1.6c0.2-1.2-0.4-2.4-1.4-3.2c0,0,1.5,5-3.3,6.1c0.8-1.6,0.7-3.5-0.4-5c0.8,2-0.2,4.3-2.3,5.1
	c-0.6,0.2-1.3,0.3-2,0.2c0.1-1.3,0.5-2.6,1.2-3.8c-1.2,1.1-2.2,2.4-2.8,3.9c-0.6,1.3-0.8,2.9-0.6,4.3c0.3,1,0.8,1.9,1.6,2.6
	c-0.2,0.4-0.7,0.7-1.2,0.7c0,0-0.2,1.7,2.2,2.1c-0.9,1.3-1.6,2.8-2,4.3c-0.2,1.2-0.1,1.5-0.8,1.8c-0.7,0.1-1.4,0.5-1.8,1.1
	c0,0-0.2,1.1-0.9,1.2c0,0-1.3,0-1-1.2c0,0,0.3-1,0.9-1c-0.4-0.2-0.9-0.2-1.3,0c-0.7,0.4-0.7,1-1,1.2c-0.4,0.4-1.1,0.6-1.6,0.4
	c0,0-0.5,0-0.5-0.7c0,0,0-0.9,0.8-0.9c0,0-0.2-0.5-1-0.2c0,0-0.8,0.4-1-0.2c-0.1-0.6,0.3-1.2,0.9-1.4c0.4-0.1,0.8,0,1,0.3
	c0.6,0.2,1.3,0.3,1.9,0.2c1.3-0.1,2.5-1,2.9-2.3c0,0,0.7-1.4-0.9-5.7c-0.7-2.3-1.9-4.5-3.5-6.3c1-0.9,1.4-2.2,1.1-3.4
	c1.1,0.5,2.1,1.3,2.8,2.3c0.2-0.6,0.5-1.2,0.8-1.8c0.8-1.1,1.2-2.4,1.1-3.7c0-0.2-0.1-0.5-0.1-0.7c0,0,0.3-0.7,2.5-0.5
	c0.6,0.1,1.1,0.3,1.6,0.7c0,0-0.7-1.5-1.4-2.8c-0.3-0.6-0.3-1.2,0-1.8c0,0,0.2-0.8,1.6-0.7c-0.6-0.6-1.1-1.3-1.4-2.1
	c-0.1-0.4-0.1-0.9,0-1.3c1.3,1.3,3,2.2,4.8,2.7l0.8,0.2c3.1,0.4,6.2,0.4,9.3,0c1.8-0.6,3.7-0.9,5.7-0.8c1.6,0.2,3.2,0.7,4.6,1.4
	c1.8,0.5,3.7,0.7,5.6,0.5c2.3,0.1,4.2-1.8,4.3-4.1c0.1-2.3-1.8-4.2-4.1-4.3c-1.3-0.1-2.6,0.6-3.1,1.8c-0.6-0.9-1.6-1.5-2.7-1.6
	c-1.5,0-2.1,1.6-2.1,1.6c-1-1-2.7-1-3.7,0c0,0-0.2-1.1-0.2-1.3c-1.3,0.1-2.7,0-4-0.1c-4-0.3-9.5-1.4-9.5-6.2c0-3,2.3-3.9,3.9-4.5
	c0.9-0.3,1.8-0.7,2.6-1.2c0.9-0.6,1.4-1.6,1.4-2.6c0,0,0.8,0.5,1.2,2.4c1.3-0.9,2.9-1.3,4.5-1c2.3,0.6,1.8,0.7,3.3,0.8
	c-0.6,1.2-0.9,1.6,0.5,1.8c3.1,0.5,3.6,0.1,3.6,0.1c-0.5,0.4-1.1,0.8-1.7,1c-3,1.5-7.1-1.3-7.1-1.3c0.3,0.4,0,2.2,0,2.2
	c-3.8-1.4-10-0.6-10,2.1c0,4.2,8.9,4.6,12.5,4.7c-0.1-0.9,0-1.8,0.1-2.7c0.2,0.7,0.7,1.3,1.4,1.6c0.8,0.4,1.7,0.6,2.6,0.6
	c-0.3-0.9-0.2-2,0.4-2.8c0-0.1,0.4,2.2,2.3,2.5c0.9,0.1,1.8,0.2,2.7,0.2c0.9-0.1,1.8,0,2.7,0.3c2.4,0.8,4.1,3.1,3.9,5.6
	c0,2.9-2.1,5.4-5,5.8c0,0-2.2-0.3-3.1,1.2c-0.4,0.6-0.6,1.4-0.7,2.1c0,0,1-1.4,1.7-1.6c0.7-0.2,1.1,0,1.8,1.2c0,0,0.8,0.4,0.6,3.6
	c-0.2,1.3-0.1,2.6,0.3,3.8c0,0,0.7,2.4,4.7,3.6c0.1-0.7,0.4-1.4,0.8-2.1c0.6,0.8,0.9,1.8,1,2.8c0.7,0.1,1.4,0.1,2,0
	c-0.6,1.4-0.8,2.9-0.6,4.4c0,0.7,0.2,1.3,0.7,1.8C103,329.7,100.7,331.2,100.6,332.8L100.6,332.8z M41.7,295.4
	c0-0.4-0.3-0.8-0.7-0.9c-0.6-0.2-1.2-0.2-1.8,0c0.3-0.2,0.7-0.4,1.1-0.5c0.3-0.1,0.7-0.1,1,0c0.4,0,0.8,0.3,0.9,0.7
	C42.1,294.6,42.3,295.1,41.7,295.4z M51.2,295.4c0.7,0.5,1.7,0.8,2.6,0.6c0.6-0.1,1.1-0.5,1.2-1.1l0,0c0-0.7,1.1-2,1.1-2
	c-0.1,0.1-0.2,0.1-0.2,0.2c-0.6,0.4-1.2,0.6-1.9,0.6l-1.5,0.1c-0.5,0-0.9,0.2-1.2,0.5c-0.3,0.4-0.5,0.9-0.5,1.4l0.2-0.3
	C51,295.3,51.1,295.3,51.2,295.4L51.2,295.4z M48.8,297.4c0,0-1.4,1.8,0.8,1.8l0,0c2.2,0,0.8-1.8,0.8-1.8s2.7,2.1,0.8,2.7h0.2
	c3.2,0,1.8-3.1,1.8-3.1s2.5,2.8,0.3,3.9h0.1c0.2,0.1,0.3,0.5,0.2,0.7c0,0,0,0,0,0c-0.2,0.3-3.6,3.5-3.6,3.5c-0.3,0.6-0.9,0.6-1.2,0
	c0,0-3.3-3.2-3.6-3.5c-0.1-0.3-0.1-0.6,0.2-0.7c0,0,0.1,0,0.1,0c-2.2-1.1,0.3-3.9,0.3-3.9s-1.4,3.1,1.8,3.1H48
	C46.1,299.5,48.8,297.4,48.8,297.4z M51,303.1c0,0,1.8-1.8,1.9-2l0,0c-0.4,0.1-0.8,0.2-1.2,0.3C51.7,301.4,51.5,302.2,51,303.1
	L51,303.1z M48.2,303.1c-0.4-1-0.7-1.7-0.7-1.7c-0.4-0.1-0.8-0.2-1.2-0.3l0,0L48.2,303.1L48.2,303.1z M48.4,301.4
	c0,0,0.5,2.3,1.3,2.3c0.8,0,1.3-2.3,1.3-2.3h-0.3c-0.2,0-0.5-0.1-0.7-0.2h-0.8c-0.2,0.1-0.4,0.2-0.7,0.2H48.4L48.4,301.4z
	 M45.6,295.9c0,0,1.5,0.5,1.8-0.8l0,0c0.1-0.1,0.2-0.2,0.3-0.2c0.1,0,0.2,0,0.3,0.1l0,0c0.2,0.2,0.5,0.4,0.7,0.7
	c-0.1-0.5-0.3-0.9-0.5-1.4c-0.3-0.4-0.8-0.6-1.3-0.5c-0.7,0.1-1.3,0.1-2,0c0,0-0.6,0.1-1.4-0.7c-0.1-0.1-0.1-0.1-0.2-0.2
	C43.2,292.9,44.4,295.7,45.6,295.9L45.6,295.9z M57.6,295.3c0-0.5,0.3-0.9,0.7-1c0.6-0.3,1.2-0.3,1.8-0.1c0,0,0-0.2-0.9-0.5
	c-0.4-0.1-0.9-0.1-1.3,0c-0.4,0.1-0.6,0.4-0.7,0.8C57.2,294.5,56.9,295.1,57.6,295.3L57.6,295.3z"/>
<path class="st4" d="M119.2,305.4l-4-13.4c0,0,6.2,7.6,6.4,8c0.5,0.7,1.2,0.3,1.2-0.3c0-0.7-0.7-9.8-0.8-10.9c0,0,4.5,10,4.8,10.7
	c0.3,0.6,1.1,0.6,1.2-0.1c0.1-0.8,1.9-11.4,1.9-11.4s1.8,10.5,1.9,11.4s0.9,0.8,1.2,0.1s4.8-10.7,4.8-10.7c0,1.1-0.8,10.3-0.8,10.9
	c0,0.5,0.7,1,1.2,0.3c0.3-0.4,6.4-8,6.4-8l-4,13.5L119.2,305.4z"/>
<path class="st0" d="M132,311.7l0.2-0.2v-3l-0.2-0.2h-4.1l-0.2,0.2v3l0.2,0.2H132z M128.9,309.4h2.2v1.3h-2.2L128.9,309.4z"/>
<path class="st0" d="M136.9,311.7c1,0.3,2-0.2,2.3-1.2c0.3-1-0.2-2-1.2-2.3c-0.3-0.1-0.7-0.1-1.1,0c-1-0.3-2,0.2-2.3,1.2
	c-0.3,1,0.2,2,1.2,2.3C136.1,311.8,136.5,311.8,136.9,311.7z M136.9,309.1c0.5,0,0.8,0.4,0.8,0.8c0,0.5-0.4,0.8-0.8,0.8c0,0,0,0,0,0
	c-0.5,0-0.8-0.4-0.8-0.8C136,309.5,136.4,309.1,136.9,309.1C136.9,309.1,136.9,309.1,136.9,309.1z"/>
<path class="st0" d="M123,311.7c1,0,1.8-0.8,1.8-1.8c0-1-0.8-1.8-1.8-1.8s-1.8,0.8-1.8,1.8C121.2,310.9,122,311.7,123,311.7z
	 M123,309.1c0.5,0,0.8,0.4,0.8,0.8c0,0.5-0.4,0.8-0.8,0.8c0,0,0,0,0,0c-0.5,0-0.8-0.4-0.8-0.8C122.2,309.5,122.6,309.1,123,309.1
	C123,309.1,123,309.1,123,309.1z"/>
<path class="st0" d="M146.4,288.7c-0.5-0.2-1,0-1.3,0.4l-6.4,7.9l0.7-10.2c0-0.9-0.3-1.2-0.7-1.3c-0.5-0.1-1.1,0.2-1.2,0.7
	c-0.4,0.9-4.7,10.3-4.7,10.3l-1.8-11.2c-0.3-1.1-0.6-1.4-1-1.4c-0.4,0-0.7,0.3-1,1.4l-1.8,11.2c0,0-4.3-9.4-4.7-10.3
	c-0.2-0.5-0.7-0.9-1.2-0.7c-0.4,0.1-0.7,0.4-0.7,1.3l0.7,10.3l-6.4-7.9c-0.3-0.4-0.8-0.6-1.3-0.4c-0.5,0.2-0.5,0.7-0.4,1.2
	c0.3,0.8,4.4,15.4,4.4,15.4h-0.9c-0.5-0.1-0.9,0.3-1,0.7c-0.1,0.5,0.3,0.9,0.7,1c0.1,0,0.2,0,0.2,0h0.8v5.7h-0.8
	c-0.5,0-0.9,0.4-0.9,0.8c0,0,0,0,0,0c0,0.5,0.4,0.8,0.8,0.8c0,0,0,0,0,0h26.6c0.5,0,0.8-0.3,0.9-0.8c0,0,0,0,0,0
	c0-0.5-0.4-0.8-0.9-0.8c0,0,0,0,0,0h-0.8v-5.7h0.8c0.5,0.1,0.9-0.3,1-0.7c0.1-0.5-0.3-0.9-0.7-1c-0.1,0-0.2,0-0.2,0h-0.9
	c0,0,4.2-14.6,4.4-15.4C146.9,289.5,146.9,288.9,146.4,288.7z M141,312.8H119v-5.7h21.9L141,312.8z M140.8,305.4h-21.6l-4-13.4
	c0,0,6.2,7.6,6.4,8c0.5,0.7,1.2,0.3,1.2-0.3c0-0.7-0.7-9.8-0.8-10.9c0,0,4.5,10,4.8,10.7c0.3,0.6,1.1,0.6,1.2-0.1
	c0.1-0.8,1.9-11.4,1.9-11.4s1.8,10.5,1.9,11.4s0.9,0.8,1.2,0.1s4.8-10.7,4.8-10.7c0,1.1-0.8,10.3-0.8,10.9c0,0.5,0.7,1,1.2,0.3
	c0.3-0.4,6.4-8,6.4-8L140.8,305.4z"/>
<path class="st4" d="M132,311.7l0.2-0.2v-3l-0.2-0.2h-4.1l-0.2,0.2v3l0.2,0.2H132z M128.9,309.4h2.2v1.3h-2.2L128.9,309.4z
	 M136.9,311.7c1,0.3,2-0.2,2.3-1.2c0.3-1-0.2-2-1.2-2.3c-0.3-0.1-0.7-0.1-1.1,0c-1-0.3-2,0.2-2.3,1.2c-0.3,1,0.2,2,1.2,2.3
	C136.1,311.8,136.5,311.8,136.9,311.7z M136.9,309.1c0.5,0,0.8,0.4,0.8,0.8c0,0.5-0.4,0.8-0.8,0.8c0,0,0,0,0,0
	c-0.5,0-0.8-0.4-0.8-0.8C136,309.5,136.4,309.1,136.9,309.1C136.9,309.1,136.9,309.1,136.9,309.1z M123,311.7c1,0,1.8-0.8,1.8-1.8
	c0-1-0.8-1.8-1.8-1.8c-1,0-1.8,0.8-1.8,1.8C121.2,310.9,122,311.7,123,311.7C123,311.7,123,311.7,123,311.7L123,311.7z M123,309.1
	c0.5,0,0.8,0.4,0.8,0.8c0,0.5-0.4,0.8-0.8,0.8c0,0,0,0,0,0c-0.5,0-0.8-0.4-0.8-0.8S122.5,309.1,123,309.1
	C123,309.1,123,309.1,123,309.1z M140.9,312.7H119v-5.7h21.9L140.9,312.7z"/>
<path class="st4" d="M157.5,305.4l-4-13.4c0,0,6.2,7.6,6.4,8c0.5,0.7,1.2,0.3,1.2-0.3s-0.7-9.8-0.8-10.9c0,0,4.5,10,4.8,10.7
	s1.1,0.6,1.2-0.1c0.1-0.8,2-11.6,2-11.6s1.8,10.5,1.9,11.4c0.1,0.9,0.9,0.8,1.2,0.1s4.8-10.7,4.8-10.7c0,1.1-0.8,10.3-0.8,10.9
	s0.7,1,1.2,0.3c0.3-0.4,6.4-8,6.4-8l-4,13.5L157.5,305.4z"/>
<path class="st0" d="M170.3,311.7l0.2-0.2v-3l-0.2-0.2h-4.1l-0.2,0.2v3l0.2,0.2L170.3,311.7z M167.2,309.4h2.2v1.3h-2.2L167.2,309.4
	z"/>
<path class="st0" d="M175.2,311.7c1,0.3,2-0.2,2.3-1.2c0.3-1-0.2-2-1.2-2.3c-0.3-0.1-0.7-0.1-1.1,0c-1-0.3-2,0.2-2.3,1.2
	c-0.3,1,0.2,2,1.2,2.3C174.5,311.8,174.9,311.8,175.2,311.7z M175.2,309.1c0.5,0,0.8,0.4,0.8,0.8c0,0.5-0.4,0.8-0.8,0.8c0,0,0,0,0,0
	c-0.5,0-0.8-0.4-0.8-0.8C174.4,309.5,174.8,309.1,175.2,309.1C175.2,309.1,175.2,309.1,175.2,309.1z"/>
<path class="st0" d="M161.4,311.7c1,0,1.8-0.8,1.8-1.8c0-1-0.8-1.8-1.8-1.8s-1.8,0.8-1.8,1.8C159.6,310.9,160.4,311.7,161.4,311.7z
	 M161.4,309.1c0.5,0,0.8,0.4,0.8,0.8c0,0.5-0.4,0.8-0.8,0.8c0,0,0,0,0,0c-0.5,0-0.8-0.4-0.8-0.8
	C160.5,309.5,160.9,309.1,161.4,309.1C161.4,309.1,161.4,309.1,161.4,309.1z"/>
<path class="st0" d="M184.8,288.7c-0.5-0.2-1,0-1.3,0.4l-6.3,7.9l0.7-10.3c0-0.9-0.3-1.2-0.7-1.3c-0.5-0.1-1.1,0.2-1.2,0.7
	c-0.4,0.9-4.7,10.3-4.7,10.3l-1.8-11.2c-0.3-1.1-0.6-1.4-1-1.4s-0.7,0.3-1,1.4l-1.8,11.2c0,0-4.3-9.4-4.7-10.3
	c-0.2-0.5-0.7-0.9-1.2-0.7c-0.4,0.1-0.7,0.4-0.7,1.3l0.6,10.3l-6.3-7.9c-0.3-0.4-0.8-0.6-1.3-0.4c-0.5,0.2-0.5,0.7-0.4,1.2
	c0.2,0.8,4.4,15.4,4.4,15.4H155c-0.5-0.1-0.9,0.3-1,0.7c-0.1,0.5,0.3,0.9,0.7,1c0.1,0,0.2,0,0.2,0h0.8v5.7H155
	c-0.5,0-0.9,0.4-0.9,0.8c0,0,0,0,0,0c0,0.5,0.4,0.8,0.8,0.8c0,0,0,0,0,0h26.5c0.5,0,0.8-0.3,0.9-0.8c0,0,0,0,0,0
	c0-0.5-0.4-0.8-0.9-0.8c0,0,0,0,0,0h-0.8v-5.7h0.8c0.5,0.1,0.9-0.3,1-0.7c0.1-0.5-0.3-0.9-0.7-1c-0.1,0-0.2,0-0.2,0h-0.9
	c0,0,4.2-14.6,4.4-15.4C185.3,289.5,185.2,288.9,184.8,288.7z M179.3,312.8h-22v-5.7h21.9L179.3,312.8z M179.1,305.4h-21.6l-4-13.4
	c0,0,6.2,7.6,6.4,8c0.5,0.7,1.2,0.3,1.2-0.3s-0.7-9.8-0.8-10.9c0,0,4.5,10,4.8,10.7s1.1,0.6,1.2-0.1c0.1-0.8,2-11.6,2-11.6
	s1.8,10.5,1.9,11.4c0.1,0.9,0.9,0.8,1.2,0.1s4.8-10.7,4.8-10.7c0,1.1-0.8,10.3-0.8,10.9s0.7,1,1.2,0.3c0.3-0.4,6.4-8,6.4-8
	L179.1,305.4z"/>
<path class="st4" d="M170.3,311.7l0.2-0.2v-3l-0.2-0.2h-4.1l-0.2,0.2v3l0.2,0.2L170.3,311.7z M167.2,309.4h2.2v1.3h-2.2L167.2,309.4
	z M175.2,311.7c1,0.3,2-0.2,2.3-1.2c0.3-1-0.2-2-1.2-2.3c-0.3-0.1-0.7-0.1-1.1,0c-1-0.3-2,0.2-2.3,1.2c-0.3,1,0.2,2,1.2,2.3
	C174.5,311.8,174.9,311.8,175.2,311.7z M175.2,309.1c0.5,0,0.8,0.4,0.8,0.8c0,0.5-0.4,0.8-0.8,0.8c0,0,0,0,0,0
	c-0.5,0-0.8-0.4-0.8-0.8C174.4,309.5,174.8,309.1,175.2,309.1C175.2,309.1,175.2,309.1,175.2,309.1z M161.3,311.7
	c1,0,1.8-0.8,1.8-1.8c0-1-0.8-1.8-1.8-1.8s-1.8,0.8-1.8,1.8C159.5,310.9,160.3,311.7,161.3,311.7
	C161.4,311.7,161.4,311.7,161.3,311.7L161.3,311.7z M161.3,309.1c0.5,0,0.8,0.4,0.8,0.8s-0.4,0.8-0.8,0.8c0,0,0,0,0,0
	c-0.5,0-0.8-0.4-0.8-0.8C160.5,309.5,160.9,309.1,161.3,309.1C161.3,309.1,161.3,309.1,161.3,309.1z M179.2,312.7h-21.9v-5.7h21.9
	L179.2,312.7z"/>
<path class="st4" d="M138.3,336.9l-4-13.5c0,0,6.2,7.6,6.4,8c0.5,0.7,1.2,0.3,1.2-0.3c0-0.7-0.7-9.8-0.8-10.9c0,0,4.5,10,4.8,10.7
	c0.3,0.6,1.1,0.6,1.2-0.1c0.1-0.8,1.9-11.4,1.9-11.4s1.8,10.5,1.9,11.4s0.9,0.8,1.2,0.1c0.3-0.7,4.8-10.7,4.8-10.7
	c0,1.1-0.8,10.3-0.8,10.9c0,0.5,0.7,1,1.2,0.3c0.3-0.4,6.4-8,6.4-8l-4,13.5H138.3z"/>
<path class="st0" d="M151.1,343.2l0.2-0.2v-3l-0.2-0.2h-4.1l-0.2,0.2v3l0.2,0.2L151.1,343.2z M148,340.8h2.2v1.3H148V340.8z"/>
<path class="st0" d="M156,343.2c1,0.3,2-0.2,2.3-1.2c0.3-1-0.2-2-1.2-2.3c-0.3-0.1-0.7-0.1-1.1,0c-1-0.3-2,0.2-2.3,1.2
	c-0.3,1,0.2,2,1.2,2.3C155.3,343.3,155.7,343.3,156,343.2z M156,340.7c0.5,0,0.8,0.4,0.8,0.8c0,0.5-0.4,0.8-0.8,0.8c0,0,0,0,0,0
	c-0.5,0-0.8-0.4-0.8-0.8S155.6,340.7,156,340.7C156,340.7,156,340.7,156,340.7z"/>
<path class="st0" d="M142.2,343.2c1,0,1.8-0.8,1.8-1.8s-0.8-1.8-1.8-1.8c-1,0-1.8,0.8-1.8,1.8S141.2,343.2,142.2,343.2z
	 M142.2,340.7c0.5,0,0.8,0.4,0.8,0.8c0,0.5-0.4,0.8-0.8,0.8c0,0,0,0,0,0c-0.5,0-0.8-0.4-0.8-0.8S141.7,340.7,142.2,340.7
	C142.2,340.7,142.2,340.7,142.2,340.7z"/>
<path class="st0" d="M165.6,320.3c-0.5-0.2-1,0-1.3,0.4l-6.4,7.9l0.6-10.3c0-0.9-0.3-1.2-0.7-1.3c-0.5-0.1-1.1,0.2-1.2,0.7
	c-0.4,0.9-4.7,10.3-4.7,10.3l-1.8-11.2c-0.3-1.1-0.6-1.4-1-1.4c-0.4,0-0.7,0.3-1,1.4l-1.8,11.2c0,0-4.3-9.4-4.7-10.3
	c-0.2-0.5-0.7-0.9-1.2-0.7c-0.4,0.1-0.7,0.4-0.7,1.3l0.6,10.3l-6.3-7.9c-0.3-0.4-0.8-0.6-1.3-0.4c-0.5,0.2-0.5,0.7-0.4,1.2
	c0.2,0.8,4.4,15.4,4.4,15.4h-1c-0.5-0.1-0.9,0.3-1,0.7c-0.1,0.5,0.3,0.9,0.7,1c0.1,0,0.2,0,0.2,0h0.8v5.7h-0.8
	c-0.5,0-0.9,0.4-0.9,0.8c0,0,0,0,0,0c0,0.5,0.4,0.8,0.8,0.8c0,0,0,0,0,0h26.6c0.5,0,0.8-0.3,0.9-0.8c0,0,0,0,0,0
	c0-0.5-0.4-0.8-0.9-0.8c0,0,0,0,0,0h-0.8v-5.7h0.8c0.5,0.1,0.9-0.3,1-0.7c0.1-0.5-0.3-0.9-0.7-1c-0.1,0-0.2,0-0.2,0h-0.9
	c0,0,4.2-14.6,4.4-15.4C166.1,320.9,166,320.4,165.6,320.3z M160.1,344.3h-21.9v-5.7h21.9L160.1,344.3z M159.9,336.9h-21.6l-4-13.5
	c0,0,6.2,7.6,6.4,8c0.5,0.7,1.2,0.3,1.2-0.3c0-0.7-0.7-9.8-0.8-10.9c0,0,4.5,10,4.8,10.7c0.3,0.6,1.1,0.6,1.2-0.1
	c0.1-0.8,1.9-11.4,1.9-11.4s1.8,10.5,1.9,11.4s0.9,0.8,1.2,0.1c0.3-0.7,4.8-10.7,4.8-10.7c0,1.1-0.8,10.3-0.8,10.9
	c0,0.5,0.7,1,1.2,0.3c0.3-0.4,6.4-8,6.4-8L159.9,336.9z"/>
<path class="st4" d="M151.1,343.2l0.2-0.2v-3l-0.2-0.2h-4.1l-0.2,0.2v3l0.2,0.2L151.1,343.2z M148,340.8h2.2v1.3H148V340.8z
	 M156,343.2c1,0.3,2-0.2,2.3-1.2c0.3-1-0.2-2-1.2-2.3c-0.3-0.1-0.7-0.1-1.1,0c-1-0.3-2,0.2-2.3,1.2c-0.3,1,0.2,2,1.2,2.3
	C155.3,343.3,155.7,343.3,156,343.2z M156,340.6c0.5,0,0.8,0.4,0.8,0.8c0,0.5-0.4,0.8-0.8,0.8c0,0,0,0,0,0c-0.5,0-0.8-0.4-0.8-0.8
	C155.2,341,155.6,340.6,156,340.6C156,340.6,156,340.6,156,340.6z M142.2,343.2c1,0,1.8-0.8,1.8-1.8c0-1-0.8-1.8-1.8-1.8
	s-1.8,0.8-1.8,1.8C140.3,342.4,141.1,343.2,142.2,343.2C142.1,343.2,142.2,343.2,142.2,343.2L142.2,343.2z M142.2,340.6
	c0.5,0,0.8,0.4,0.8,0.8c0,0.5-0.4,0.8-0.8,0.8c0,0,0,0,0,0c-0.5,0-0.8-0.4-0.8-0.8C141.3,341,141.7,340.6,142.2,340.6
	C142.1,340.6,142.2,340.6,142.2,340.6z M160,344.2h-21.9v-5.6h21.9L160,344.2z"/>
</svg>
